<svg width="30" height="30" viewBox="0 0 30 30" fill="none" xmlns="http://www.w3.org/2000/svg">
<mask id="mask0_150_6015" style="mask-type:alpha" maskUnits="userSpaceOnUse" x="0" y="0" width="30" height="30">
<rect width="30" height="30" fill="#D9D9D9"/>
</mask>
<g mask="url(#mask0_150_6015)">
<path d="M6.25 26.25C5.5625 26.25 4.97396 26.0052 4.48438 25.5156C3.99479 25.026 3.75 24.4375 3.75 23.75V6.25C3.75 5.5625 3.99479 4.97396 4.48438 4.48438C4.97396 3.99479 5.5625 3.75 6.25 3.75H17.5V6.25H6.25V23.75H23.75V12.5H26.25V23.75C26.25 24.4375 26.0052 25.026 25.5156 25.5156C25.026 26.0052 24.4375 26.25 23.75 26.25H6.25ZM21.25 11.25V8.75H18.75V6.25H21.25V3.75H23.75V6.25H26.25V8.75H23.75V11.25H21.25ZM7.5 21.25H22.5L17.8125 15L14.0625 20L11.25 16.25L7.5 21.25Z" fill="#2B2B2B"/>
</g>
</svg>
