<svg width="27" height="26" viewBox="0 0 27 26" fill="none" xmlns="http://www.w3.org/2000/svg">
<path d="M20.4336 25.25H6.68359V9L15.4336 0.25L16.9961 1.8125C17.1419 1.95833 17.2617 2.15625 17.3555 2.40625C17.4492 2.65625 17.4961 2.89583 17.4961 3.125V3.5625L16.1211 9H24.1836C24.8503 9 25.4336 9.25 25.9336 9.75C26.4336 10.25 26.6836 10.8333 26.6836 11.5V14C26.6836 14.1458 26.6628 14.3021 26.6211 14.4688C26.5794 14.6354 26.5378 14.7917 26.4961 14.9375L22.7461 23.75C22.5586 24.1667 22.2461 24.5208 21.8086 24.8125C21.3711 25.1042 20.9128 25.25 20.4336 25.25ZM9.18359 22.75H20.4336L24.1836 14V11.5H12.9336L14.6211 4.625L9.18359 10.0625V22.75ZM6.68359 9V11.5H2.93359V22.75H6.68359V25.25H0.433594V9H6.68359Z" fill="#617092"/>
</svg>
