<svg width="30" height="31" viewBox="0 0 30 31" fill="none" xmlns="http://www.w3.org/2000/svg">
<mask id="mask0_622_1951" style="mask-type:alpha" maskUnits="userSpaceOnUse" x="0" y="0" width="30" height="31">
<rect y="0.0893555" width="30" height="30" fill="#D9D9D9"/>
</mask>
<g mask="url(#mask0_622_1951)">
<path d="M15.5938 21.1206L26.0625 10.6519L24.4375 9.02686L13.9688 19.4956L15.5938 21.1206ZM7.4375 23.8394C5.35417 23.7352 3.80208 23.2977 2.78125 22.5269C1.76042 21.756 1.25 20.6414 1.25 19.1831C1.25 17.8289 1.80729 16.73 2.92188 15.8862C4.03646 15.0425 5.58333 14.5373 7.5625 14.3706C8.375 14.3081 8.98438 14.1779 9.39062 13.98C9.79688 13.7821 10 13.506 10 13.1519C10 12.6102 9.69271 12.2039 9.07813 11.9331C8.46354 11.6623 7.44792 11.4644 6.03125 11.3394L6.25 8.83936C8.39583 9.00602 9.97396 9.43831 10.9844 10.1362C11.9948 10.8341 12.5 11.8394 12.5 13.1519C12.5 14.256 12.099 15.1206 11.2969 15.7456C10.4948 16.3706 9.3125 16.7456 7.75 16.8706C6.41667 16.9748 5.41667 17.2196 4.75 17.605C4.08333 17.9904 3.75 18.5164 3.75 19.1831C3.75 19.9123 4.04167 20.4383 4.625 20.7612C5.20833 21.0841 6.1875 21.2769 7.5625 21.3394L7.4375 23.8394ZM16.1875 24.0581L11.0312 18.9019L22.9688 6.96436C23.3854 6.54769 23.8802 6.33936 24.4531 6.33936C25.026 6.33936 25.5208 6.54769 25.9375 6.96436L28.125 9.15186C28.5417 9.56852 28.75 10.0633 28.75 10.6362C28.75 11.2091 28.5417 11.7039 28.125 12.1206L16.1875 24.0581ZM11.2188 25.0894C10.8646 25.1727 10.5521 25.0789 10.2812 24.8081C10.0104 24.5373 9.91667 24.2248 10 23.8706L11.0312 18.9019L16.1875 24.0581L11.2188 25.0894Z" fill="#617092"/>
</g>
</svg>
