<svg width="132" height="40" viewBox="0 0 132 40" fill="none" xmlns="http://www.w3.org/2000/svg">
<path d="M26.8737 20.86C26.8737 21.4733 26.8003 22.0733 26.6537 22.66C26.507 23.2467 26.287 23.78 25.9937 24.26C25.7003 24.74 25.3337 25.1267 24.8937 25.42C24.467 25.7 23.9537 25.84 23.3537 25.84C22.7803 25.84 22.3137 25.68 21.9537 25.36C21.5937 25.04 21.367 24.6667 21.2737 24.24H21.1537C20.9003 24.6933 20.5403 25.0733 20.0737 25.38C19.6203 25.6867 19.0537 25.84 18.3737 25.84C17.307 25.84 16.4803 25.5 15.8937 24.82C15.3203 24.1267 15.0337 23.2133 15.0337 22.08C15.0337 21.2 15.2137 20.42 15.5737 19.74C15.9337 19.06 16.4403 18.5267 17.0937 18.14C17.747 17.7533 18.5203 17.56 19.4137 17.56C20.0137 17.56 20.6137 17.6133 21.2137 17.72C21.8137 17.8133 22.2803 17.9267 22.6137 18.06L22.4137 22.12C22.4003 22.3333 22.3937 22.5 22.3937 22.62C22.3937 22.7267 22.3937 22.8 22.3937 22.84C22.3937 23.48 22.5003 23.9067 22.7137 24.12C22.9403 24.3333 23.1937 24.44 23.4737 24.44C23.8603 24.44 24.1803 24.28 24.4337 23.96C24.7003 23.6267 24.9003 23.1867 25.0337 22.64C25.1803 22.0933 25.2537 21.4933 25.2537 20.84C25.2537 19.6267 25.007 18.6067 24.5137 17.78C24.0337 16.94 23.367 16.3 22.5137 15.86C21.6737 15.42 20.7137 15.2 19.6337 15.2C18.527 15.2 17.547 15.3733 16.6937 15.72C15.8403 16.0667 15.1203 16.56 14.5337 17.2C13.9603 17.84 13.5203 18.5933 13.2137 19.46C12.9203 20.3267 12.7737 21.28 12.7737 22.32C12.7737 23.5867 13.0003 24.6667 13.4537 25.56C13.9203 26.4533 14.5937 27.1333 15.4737 27.6C16.3537 28.0533 17.4337 28.28 18.7137 28.28C19.5137 28.28 20.2937 28.1867 21.0537 28C21.827 27.8267 22.5203 27.6267 23.1337 27.4V28.92C22.5337 29.16 21.867 29.36 21.1337 29.52C20.4003 29.68 19.6003 29.76 18.7337 29.76C17.1337 29.76 15.767 29.4667 14.6337 28.88C13.5003 28.2933 12.6337 27.4533 12.0337 26.36C11.4337 25.2533 11.1337 23.9267 11.1337 22.38C11.1337 21.14 11.327 19.9933 11.7137 18.94C12.1003 17.8867 12.6603 16.9733 13.3937 16.2C14.1403 15.4133 15.0337 14.8067 16.0737 14.38C17.127 13.94 18.3137 13.72 19.6337 13.72C20.687 13.72 21.6537 13.8867 22.5337 14.22C23.4137 14.54 24.1737 15.0133 24.8137 15.64C25.467 16.2533 25.9737 17 26.3337 17.88C26.6937 18.76 26.8737 19.7533 26.8737 20.86ZM16.7937 22.12C16.7937 22.9333 16.9603 23.5267 17.2937 23.9C17.627 24.26 18.067 24.44 18.6137 24.44C19.347 24.44 19.867 24.1733 20.1737 23.64C20.4803 23.0933 20.6603 22.3933 20.7137 21.54L20.8337 19.14C20.6737 19.0867 20.467 19.0467 20.2137 19.02C19.9737 18.98 19.7203 18.96 19.4537 18.96C18.8137 18.96 18.2937 19.1133 17.8937 19.42C17.507 19.7267 17.227 20.12 17.0537 20.6C16.8803 21.08 16.7937 21.5867 16.7937 22.12ZM40.7424 16.42L41.4224 16.78C41.5024 16.82 41.5624 16.88 41.6024 16.96C41.6424 17.04 41.6624 17.24 41.6624 17.56C41.6624 18.4533 41.6558 19.4 41.6424 20.4C41.6291 21.3867 41.6091 22.32 41.5824 23.2L41.4824 23.66L41.5624 24.66L41.3824 25.58C41.3691 25.5933 41.3624 25.62 41.3624 25.66V25.74C41.3624 25.7667 41.3624 25.7933 41.3624 25.82C41.3758 25.8467 41.3824 25.8667 41.3824 25.88V26.04C41.3824 26.0667 41.3824 26.0933 41.3824 26.12C41.3958 26.1467 41.4024 26.1667 41.4024 26.18C41.4024 26.4067 41.3091 26.6533 41.1224 26.92L39.3224 27C39.2024 27 39.1424 26.9267 39.1424 26.78C39.1424 26.62 39.1824 26.46 39.2624 26.3L39.2224 25.6L39.4024 25.08L39.2024 23.58V22.68C39.2024 22.6 39.1558 22.5133 39.0624 22.42C38.9824 22.3267 38.8624 22.3 38.7024 22.34C38.6224 22.3667 38.5424 22.3867 38.4624 22.4C38.3824 22.4 38.3024 22.4 38.2224 22.4C38.1424 22.4 38.0624 22.4 37.9824 22.4C37.9158 22.3867 37.8491 22.3733 37.7824 22.36C37.7024 22.36 37.6224 22.36 37.5424 22.36C37.4758 22.3467 37.4091 22.34 37.3424 22.34H37.1424C37.0624 22.34 37.0024 22.3467 36.9624 22.36C36.8824 22.4 36.7691 22.4267 36.6224 22.44C36.4891 22.44 36.3491 22.44 36.2024 22.44H36.1824L35.9824 23.52L35.3624 24.78L35.2224 26.16L34.8624 26.94L33.9624 27.22L32.2024 26.78L32.8824 23.9L34.2424 20.46L33.9824 19.28L33.0624 19.44L31.2024 19.32C31.0291 19.2533 30.8224 19.2333 30.5824 19.26C30.3558 19.2867 30.1824 19.36 30.0624 19.48L29.3024 19.22L28.7824 17.4L31.1224 17.14H32.8224C33.2891 17.14 33.7624 17.1467 34.2424 17.16C34.7358 17.1733 35.1424 17.1933 35.4624 17.22L36.1624 17.62L37.2624 17.9L37.5024 18.64L37.2224 19L36.6424 20.6L36.9024 20.5C37.2358 20.3667 37.6758 20.26 38.2224 20.18L39.1624 20.36C39.3224 20.32 39.4424 20.2667 39.5224 20.2C39.6158 20.1333 39.6491 20.0533 39.6224 19.96L39.0824 19.62L38.8424 19.2L39.4024 16.88L40.7424 16.42ZM43.1224 22.4L42.9824 21.5L43.1424 20.9L42.9824 20.06L43.1024 18.16L43.0024 17.6L43.0224 16.16C43.0224 16.0133 43.2224 15.9267 43.6224 15.9H43.9224C43.9891 15.9 44.0491 15.9 44.1024 15.9C44.1558 15.9 44.2158 15.9067 44.2824 15.92C44.4158 15.92 44.5491 15.9267 44.6824 15.94C44.8291 15.94 44.9824 15.94 45.1424 15.94C45.3424 15.9533 45.4891 16.0133 45.5824 16.12C45.6891 16.2267 45.7691 16.36 45.8224 16.52V17.68L45.9624 19.76L45.9424 22.24L45.6024 23.68L45.6424 25.24L45.3224 26.36L45.3824 27.32C45.2358 27.6267 45.0758 27.7933 44.9024 27.82C44.7424 27.8333 44.5624 27.84 44.3624 27.84C44.1358 27.88 43.9158 27.9 43.7024 27.9H43.2624C43.1424 27.9 43.0558 27.8733 43.0024 27.82C42.9624 27.7533 42.9424 27.68 42.9424 27.6C42.9291 27.52 42.9291 27.4133 42.9424 27.28L42.9824 23L43.1224 22.4ZM51.471 16.18C51.511 16.22 51.531 16.1933 51.531 16.1C51.5443 16.0733 51.551 16.04 51.551 16C51.551 15.9467 51.5577 15.8867 51.571 15.82C51.571 15.74 51.5843 15.6467 51.611 15.54C51.6377 15.4333 51.691 15.3533 51.771 15.3C52.4243 14.9133 53.0443 14.92 53.631 15.32L55.171 16.46C55.291 16.5933 55.3843 16.8267 55.451 17.16C55.531 17.4933 55.5777 17.8733 55.591 18.3C55.6177 18.7133 55.6177 19.1467 55.591 19.6C55.5643 20.04 55.531 20.4333 55.491 20.78C55.451 20.8733 55.371 21.0333 55.251 21.26C55.131 21.4733 54.9777 21.64 54.791 21.76L52.131 23.34C51.2643 23.58 50.4043 23.54 49.551 23.22C49.231 23.22 48.9177 23.12 48.611 22.92C48.3043 22.72 48.111 22.4533 48.031 22.12C47.871 21.8533 47.7777 21.58 47.751 21.3C47.7377 21.0067 47.771 20.7333 47.851 20.48L49.351 17.04C49.391 17 49.4377 16.94 49.491 16.86C49.5443 16.78 49.5977 16.6933 49.651 16.6C49.7843 16.4533 49.971 16.2667 50.211 16.04L51.471 16.18ZM64.031 28.54L64.071 29.52L63.651 29.74C63.291 29.7667 62.9043 29.8133 62.491 29.88C62.091 29.9467 61.6843 30.0133 61.271 30.08C60.871 30.1467 60.4777 30.2133 60.091 30.28C59.7043 30.3467 59.3643 30.3867 59.071 30.4L58.571 30.04L58.591 29.66L59.311 27.96C59.391 27.6667 59.431 27.36 59.431 27.04C59.431 26.72 59.3777 26.4 59.271 26.08C59.191 26.0933 59.091 26.1067 58.971 26.12C58.8643 26.12 58.7443 26.1267 58.611 26.14C58.4777 26.1533 58.3443 26.1733 58.211 26.2C58.091 26.2133 57.9843 26.2333 57.891 26.26C57.7843 26.3 57.6577 26.36 57.511 26.44C57.3643 26.52 57.2243 26.6 57.091 26.68C57.0243 26.72 56.9577 26.76 56.891 26.8C56.8377 26.8267 56.7843 26.8533 56.731 26.88C56.691 26.9067 56.651 26.98 56.611 27.1C56.571 27.22 56.531 27.3733 56.491 27.56C56.4643 27.7467 56.4377 27.9533 56.411 28.18C56.3843 28.4067 56.351 28.64 56.311 28.88C56.2977 28.9467 56.2843 28.9933 56.271 29.02C56.2577 29.06 56.251 29.0933 56.251 29.12C56.2377 29.1467 56.2243 29.1733 56.211 29.2C56.211 29.2267 56.211 29.26 56.211 29.3C56.211 29.3267 56.1843 29.3533 56.131 29.38C56.0777 29.42 56.0177 29.4533 55.951 29.48C55.791 29.5733 55.711 29.6333 55.711 29.66C55.711 29.6867 55.7243 29.7133 55.751 29.74L55.851 29.84C55.8777 29.8533 55.931 29.9 56.011 29.98C55.8777 30.2733 55.6977 30.4267 55.471 30.44C55.2577 30.4533 55.011 30.46 54.731 30.46C54.4377 30.4733 54.1577 30.48 53.891 30.48C53.6243 30.4933 53.4443 30.5 53.351 30.5L52.891 29.82L53.411 27.48C53.5977 27.2933 53.731 27.0867 53.811 26.86C53.9043 26.62 53.9377 26.4867 53.911 26.46L54.511 24.24L55.911 24.04L56.391 25.4C56.4443 25.3867 56.511 25.3533 56.591 25.3C56.671 25.2467 56.7577 25.1867 56.851 25.12C56.9443 25.0667 57.0377 25.0133 57.131 24.96C57.2377 24.8933 57.3443 24.8467 57.451 24.82L59.131 24.1C59.651 24.06 60.151 24.0467 60.631 24.06C61.1243 24.0733 61.5177 24.1 61.811 24.14L62.211 25.12L61.691 27.28L60.771 28.54L61.191 28.38L61.991 27.88L63.611 27.52L64.251 27.6L64.031 28.54ZM59.551 22.76L59.171 21.42L59.331 18.96L59.211 18.4C59.1843 18.3067 59.1843 18.1667 59.211 17.98C59.2377 17.78 59.2577 17.5667 59.271 17.34C59.2977 17.1267 59.311 16.92 59.311 16.72C59.311 16.5067 59.2843 16.34 59.231 16.22C59.231 16.0467 59.2577 15.88 59.311 15.72C59.3243 15.6267 59.3377 15.5267 59.351 15.42C59.3777 15.3 59.4043 15.1467 59.431 14.96C59.4443 14.64 59.531 14.44 59.691 14.36C59.771 14.32 59.8643 14.3067 59.971 14.32C60.091 14.32 60.231 14.32 60.391 14.32C60.551 14.3333 60.7577 14.3667 61.011 14.42C61.2643 14.46 61.5643 14.52 61.911 14.6L62.411 15.24C62.3977 15.32 62.3777 15.4267 62.351 15.56C62.3377 15.6933 62.3243 15.8667 62.311 16.08C62.2977 16.2933 62.291 16.5533 62.291 16.86C62.3043 17.1533 62.331 17.5 62.371 17.9L62.251 18.28L62.071 19.16L62.011 19.86L61.891 20.1L61.871 20.28L61.751 21.22L61.651 22.32L61.371 23.12L59.551 22.76ZM51.171 19.12L51.071 19.26C51.0443 19.3133 51.011 19.3667 50.971 19.42C50.931 19.46 50.891 19.5133 50.851 19.58C50.771 19.7 50.6977 19.8267 50.631 19.96C50.5777 20.0933 50.5577 20.2 50.571 20.28C50.571 20.4267 50.5843 20.5533 50.611 20.66C50.611 20.7533 50.6977 20.84 50.871 20.92C51.0043 20.9867 51.1843 21.0133 51.411 21H52.031C52.0977 21.0133 52.1777 21.02 52.271 21.02C52.3777 21.0067 52.511 20.98 52.671 20.94C52.991 20.86 53.1843 20.7133 53.251 20.5C53.291 20.38 53.3043 20.2667 53.291 20.16C53.291 20.04 53.2777 19.94 53.251 19.86C53.1977 19.7933 53.171 19.72 53.171 19.64C53.1443 19.5467 53.1577 19.4467 53.211 19.34C53.211 19.02 53.2443 18.7933 53.311 18.66C53.3777 18.4867 53.4377 18.3733 53.491 18.32C53.5177 18.28 53.531 18.1733 53.531 18C53.531 17.8267 53.4977 17.6933 53.431 17.6C53.3643 17.52 53.2777 17.46 53.171 17.42C53.0643 17.38 52.951 17.3533 52.831 17.34C52.711 17.3267 52.5977 17.3267 52.491 17.34C52.3977 17.34 52.331 17.36 52.291 17.4L51.171 19.12ZM68.0895 16.86L69.7295 16.36L72.7895 16.6L73.6895 16.46L74.6895 16.82L74.6695 17.34L74.1895 17.84L73.6695 19.18L71.1695 19.36L70.2095 19.82L70.3895 22.42L69.7495 23.4L70.5095 23.94C70.7628 24.14 70.9828 24.2467 71.1695 24.26C71.3695 24.26 71.5561 24.24 71.7295 24.2L72.6495 23.8L74.6095 23.7L76.2695 22.82L76.1695 21.46L76.4495 20.06L76.4895 17L76.7495 16.4L79.1295 16.64L79.3095 17.58C79.2828 17.8867 79.2561 18.1667 79.2295 18.42C79.2028 18.6733 79.1761 18.8933 79.1495 19.08C79.0961 19.4667 79.0428 19.8267 78.9895 20.16C78.9495 20.48 78.9161 20.6533 78.8895 20.68C78.8495 20.72 78.7961 20.7667 78.7295 20.82C78.6761 20.8733 78.6161 20.9267 78.5495 20.98C78.4961 21.0333 78.4428 21.0933 78.3895 21.16C78.3495 21.2133 78.3361 21.2667 78.3495 21.32C78.3761 21.32 78.4028 21.32 78.4295 21.32C78.4695 21.3067 78.5161 21.2933 78.5695 21.28L78.9095 21.16C79.1628 21.0933 79.3495 21.0333 79.4695 20.98L80.1895 19.86L80.4895 19.44L80.5495 18.72L80.9295 18.06L80.9695 17.28L81.9095 16.82L83.3895 17.5L83.3295 18.6C83.3028 18.8 83.3095 19 83.3495 19.2C83.3895 19.4 83.4895 19.6 83.6495 19.8L83.2695 26.16L82.4295 27.24L81.0295 26.84L80.7295 26.3L80.9695 21.84C80.9561 21.76 80.9161 21.6933 80.8495 21.64C80.7961 21.5867 80.7295 21.54 80.6495 21.5L80.3895 22.2L79.2295 23.24L78.2095 27.06C78.0761 27.0733 77.9495 27.0867 77.8295 27.1C77.7228 27.1 77.6228 27.1067 77.5295 27.12C77.3561 27.1333 77.1695 27.1467 76.9695 27.16C76.7828 27.1733 76.6361 27.18 76.5295 27.18C76.4095 27.1933 76.3228 27.1667 76.2695 27.1C76.2295 27.02 76.2028 26.94 76.1895 26.86C76.1628 26.7667 76.1628 26.6867 76.1895 26.62C76.2028 26.5667 76.2228 25.7067 76.2495 24.04L76.0695 24.2L74.9295 24.9L74.2495 25.4L71.7895 26.46L68.8295 26.74L67.8895 26.1C67.7295 25.5933 67.6295 25.1067 67.5895 24.64C67.5628 24.1733 67.5695 23.72 67.6095 23.28L68.2895 19.66L67.5695 19.26C67.6495 19.2467 67.6961 19.1933 67.7095 19.1C67.7228 19.0067 67.7028 18.92 67.6495 18.84C67.6095 18.76 67.5295 18.7 67.4095 18.66C67.3028 18.62 67.1761 18.6267 67.0295 18.68C66.8028 18.5733 66.6161 18.4867 66.4695 18.42C66.3228 18.34 66.2161 18.28 66.1495 18.24C65.9361 18.1067 65.8095 17.9867 65.7695 17.88C65.7295 17.76 65.7361 17.6 65.7895 17.4L65.9895 16.5L68.0895 16.86ZM101.724 20.68L101.404 20.72C101.217 20.72 101.044 20.7267 100.884 20.74C100.737 20.7533 100.591 20.7667 100.444 20.78C100.297 20.7933 100.157 20.8067 100.024 20.82C99.904 20.8333 99.7907 20.84 99.684 20.84L99.724 21.9L99.104 23.36C98.9973 23.4 98.8573 23.4533 98.684 23.52C98.5107 23.5733 98.3307 23.62 98.144 23.66C97.944 23.7 97.7573 23.7267 97.584 23.74C97.4107 23.74 97.2773 23.7067 97.184 23.64C96.9973 23.5333 96.8773 23.44 96.824 23.36C96.7707 23.28 96.744 23.12 96.744 22.88L96.924 22.16L96.804 21.62L96.824 19.38L96.644 18.82L96.664 18.42L96.844 17.94L96.684 16.78L96.744 15.1L97.304 14.26L99.644 14.04L99.864 14.7L99.644 15.7L99.444 18.6C99.244 18.7467 99.164 18.8533 99.204 18.92C99.244 18.9733 99.3307 19 99.464 19C99.6107 19 99.764 18.9867 99.924 18.96C100.084 18.92 100.184 18.88 100.224 18.84C100.317 18.76 100.444 18.68 100.604 18.6C100.764 18.5067 100.897 18.4467 101.004 18.42C101.151 18.3933 101.271 18.3867 101.364 18.4C101.457 18.4133 101.544 18.4267 101.624 18.44C101.691 18.4667 101.757 18.4933 101.824 18.52C101.904 18.5333 101.997 18.5267 102.104 18.5L102.884 18.6C102.964 18.6133 103.024 18.68 103.064 18.8C103.104 18.9067 103.131 19.0467 103.144 19.22C103.157 19.3933 103.157 19.5733 103.144 19.76C103.131 19.9467 103.104 20.1067 103.064 20.24L101.724 20.68ZM96.404 24.16C96.364 24.36 96.3507 24.5067 96.364 24.6C96.3773 24.72 96.4107 24.8333 96.464 24.94C96.5307 25.0467 96.644 25.12 96.804 25.16C96.9773 25.08 97.1973 25.02 97.464 24.98C97.744 24.9267 98.024 24.9067 98.304 24.92C98.584 24.92 98.8373 24.9467 99.064 25C99.304 25.0533 99.4707 25.1267 99.564 25.22L100.124 26.06C100.151 26.2467 100.151 26.46 100.124 26.7C100.097 26.9267 100.064 27.1467 100.024 27.36C99.9973 27.5867 99.9707 27.7933 99.944 27.98C99.9173 28.1533 99.9173 28.28 99.944 28.36C99.824 28.4533 99.7307 28.54 99.664 28.62C99.5973 28.7133 99.5173 28.8067 99.424 28.9C99.3307 29.0067 99.2107 29.12 99.064 29.24C98.9307 29.3733 98.7307 29.5267 98.464 29.7L94.504 30.78C94.304 30.78 94.084 30.74 93.844 30.66C93.604 30.6067 93.324 30.5267 93.004 30.42C92.8307 30.3667 92.6773 30.3 92.544 30.22C92.424 30.1533 92.3107 30.0733 92.204 29.98C92.0973 29.8867 91.9907 29.7933 91.884 29.7C91.7907 29.6067 91.6907 29.5133 91.584 29.42C91.464 29.34 91.3707 29.2667 91.304 29.2C91.2507 29.1467 91.2173 29.08 91.204 29C91.1773 28.9333 91.164 28.8467 91.164 28.74C91.164 28.6467 91.1707 28.5133 91.184 28.34C91.184 28.0067 91.2173 27.7467 91.284 27.56C91.364 27.3733 91.524 27.1667 91.764 26.94C91.924 27.06 92.0907 27.0733 92.264 26.98C92.4507 26.8867 92.5573 26.76 92.584 26.6L92.724 26.04C92.8307 25.9467 92.904 25.8533 92.944 25.76C92.9973 25.6667 93.0307 25.58 93.044 25.5C93.0573 25.42 93.0707 25.3467 93.084 25.28C93.0973 25.2133 93.1373 25.1533 93.204 25.1C93.364 24.9667 93.5107 24.82 93.644 24.66C93.7907 24.5 93.9107 24.3933 94.004 24.34C94.0973 24.2867 94.204 24.2333 94.324 24.18C94.4573 24.1133 94.5707 24.0667 94.664 24.04C94.7707 24.0133 94.8707 24.0067 94.964 24.02C95.0573 24.02 95.1773 24.02 95.324 24.02L96.404 24.16ZM96.544 26.24C96.5573 26.2 96.5707 26.1733 96.584 26.16C96.6107 26.1467 96.604 26.1467 96.564 26.16C96.524 26.1867 96.4373 26.22 96.304 26.26C96.1707 26.3 95.964 26.34 95.684 26.38L94.224 27.96C94.1973 28.04 94.2107 28.14 94.264 28.26C94.3173 28.3933 94.404 28.5 94.524 28.58C94.5507 28.7 94.6307 28.7933 94.764 28.86C94.8973 28.9267 95.0507 28.9667 95.224 28.98L97.224 28.42C97.304 28.3667 97.3973 28.28 97.504 28.16C97.624 28.04 97.6973 27.9267 97.724 27.82C97.7373 27.7267 97.724 27.6333 97.684 27.54C97.6573 27.4467 97.6173 27.3533 97.564 27.26C97.5107 27.18 97.4573 27.1 97.404 27.02C97.364 26.94 97.344 26.8667 97.344 26.8C97.344 26.7467 97.3107 26.6867 97.244 26.62C97.1773 26.5533 97.0973 26.4933 97.004 26.44C96.9107 26.3867 96.8173 26.34 96.724 26.3C96.644 26.26 96.584 26.24 96.544 26.24ZM89.084 18.86L90.024 18.28C90.144 18.1733 90.224 18.0733 90.264 17.98C90.304 17.8867 90.284 17.7933 90.204 17.7L89.624 17.6L85.944 18.06L85.484 17.06L85.404 15.78L88.304 15.26L91.364 15.16L93.924 15.82L94.124 16.82L93.064 18.1L92.504 18.44C92.2907 18.7733 92.0973 18.9933 91.924 19.1C91.764 19.1933 91.6307 19.26 91.524 19.3C91.364 19.4467 91.224 19.6067 91.104 19.78C90.984 19.94 90.8973 20.1067 90.844 20.28L93.764 20.62C93.884 20.66 94.004 20.7133 94.124 20.78C94.244 20.8467 94.364 20.92 94.484 21C94.604 21.08 94.7173 21.1733 94.824 21.28C94.944 21.3733 95.064 21.46 95.184 21.54L94.224 22.84L93.184 22.82C93.024 22.8333 92.884 22.8733 92.764 22.94C92.6573 23.0067 92.5707 23.08 92.504 23.16L91.384 22.82L91.164 22.5C91.0973 22.4467 91.024 22.3733 90.944 22.28C90.8773 22.1867 90.8107 22.0933 90.744 22C90.6773 21.9067 90.6107 21.8267 90.544 21.76C90.4773 21.68 90.4173 21.6267 90.364 21.6L89.884 21.16L89.204 22.22L88.884 23.26L87.984 24.36L86.704 24.64L85.764 23.94L85.824 22.96L86.864 21.52L87.424 20.44L89.084 18.86ZM116.728 23.9L116.688 24.04C116.661 24.1467 116.661 24.2467 116.688 24.34C116.688 24.46 116.721 24.5733 116.788 24.68C116.855 24.7867 116.968 24.86 117.128 24.9C117.288 24.82 117.508 24.76 117.788 24.72C118.068 24.68 118.348 24.66 118.628 24.66C118.908 24.66 119.161 24.6933 119.388 24.76C119.628 24.8133 119.795 24.88 119.888 24.96L120.448 25.8C120.475 26 120.475 26.22 120.448 26.46C120.421 26.6867 120.388 26.9 120.348 27.1C120.321 27.22 120.301 27.3333 120.288 27.44C120.275 27.5467 120.261 27.64 120.248 27.72C120.248 27.8133 120.241 27.8933 120.228 27.96C120.228 28.0133 120.241 28.06 120.268 28.1C120.228 28.14 120.168 28.1867 120.088 28.24L119.968 28.38C119.928 28.42 119.888 28.46 119.848 28.5C119.821 28.5533 119.788 28.6 119.748 28.64C119.655 28.76 119.535 28.88 119.388 29C119.255 29.1333 119.055 29.28 118.788 29.44L114.828 30.52C114.708 30.52 114.595 30.5067 114.488 30.48C114.395 30.4667 114.288 30.44 114.168 30.4C113.928 30.3467 113.648 30.2667 113.328 30.16C113.155 30.12 113.001 30.06 112.868 29.98C112.748 29.9 112.635 29.8133 112.528 29.72C112.448 29.6667 112.388 29.62 112.348 29.58L112.208 29.44C112.168 29.4133 112.115 29.3667 112.048 29.3L111.908 29.16C111.788 29.08 111.695 29.0067 111.628 28.94C111.561 28.8867 111.528 28.82 111.528 28.74C111.501 28.7133 111.488 28.68 111.488 28.64V28.32C111.488 28.2267 111.495 28.1467 111.508 28.08C111.508 27.76 111.541 27.5067 111.608 27.32C111.688 27.1333 111.848 26.92 112.088 26.68C112.248 26.8 112.415 26.8133 112.588 26.72C112.761 26.6267 112.868 26.5 112.908 26.34L113.048 25.78C113.155 25.7 113.228 25.6133 113.268 25.52C113.321 25.4133 113.355 25.32 113.368 25.24C113.368 25.2 113.368 25.1667 113.368 25.14C113.381 25.1 113.388 25.06 113.388 25.02C113.415 24.9533 113.461 24.8933 113.528 24.84C113.701 24.7067 113.921 24.48 114.188 24.16C114.375 24.0533 114.528 23.9733 114.648 23.92C114.781 23.8667 114.895 23.82 114.988 23.78C115.028 23.7667 115.075 23.76 115.128 23.76H115.648L116.728 23.9ZM109.648 25.22L107.968 24.62L108.048 23.82L109.148 20.1L109.868 18.52L109.928 17.84L109.468 17.34L108.748 17.44L106.888 17.32C106.808 17.28 106.708 17.2533 106.588 17.24C106.468 17.2133 106.348 17.2 106.228 17.2C106.121 17.2 106.021 17.2267 105.928 17.28C105.848 17.32 105.788 17.3867 105.748 17.48L104.988 17.22L104.468 15.4L106.508 15.1C106.828 15.1133 107.121 15.12 107.388 15.12C107.668 15.12 107.921 15.12 108.148 15.12C108.361 15.1333 108.588 15.1467 108.828 15.16C109.068 15.16 109.301 15.16 109.528 15.16C109.768 15.1733 109.988 15.1867 110.188 15.2C110.401 15.2 110.588 15.2067 110.748 15.22L111.508 15.48L112.548 15.9L112.648 16.5L112.368 17L112.248 18.98L111.568 21.54L110.948 22.82L110.908 24.16L110.548 24.94L109.648 25.22ZM117.748 22.08L117.688 21.52L118.088 19.9V18.94L117.928 18.12C117.928 17.84 117.875 17.6133 117.768 17.44C117.675 17.2533 117.508 17.18 117.268 17.22L114.848 17.82C114.528 17.8733 114.275 17.8133 114.088 17.64C113.915 17.4533 113.848 17.24 113.888 17L113.988 15.6L117.108 15.3C117.295 15.5 117.428 15.6067 117.508 15.62C117.601 15.62 117.668 15.58 117.708 15.5C117.721 15.46 117.735 15.42 117.748 15.38C117.761 15.3267 117.768 15.2667 117.768 15.2C117.795 15.0667 117.841 14.9667 117.908 14.9L118.868 14.32C119.028 14.32 119.215 14.3333 119.428 14.36C119.641 14.3733 119.848 14.4 120.048 14.44C120.155 14.4667 120.261 14.4867 120.368 14.5C120.488 14.5133 120.621 14.5267 120.768 14.54L121.088 15.68L120.888 16.64L121.028 19.3L120.808 19.88L120.708 20.5L120.468 21.28L120.368 22.38L120.348 22.98L119.248 23.16L119.108 22.94L118.188 23.16L117.628 22.92L117.748 22.08ZM116.768 21.24L114.448 21.64L113.148 21.02C113.321 20.06 113.461 19.58 113.568 19.58C113.621 19.5667 113.675 19.56 113.728 19.56C113.795 19.56 113.875 19.5533 113.968 19.54C114.128 19.54 114.335 19.5333 114.588 19.52C114.855 19.4933 115.148 19.46 115.468 19.42C115.695 19.42 115.901 19.38 116.088 19.3C116.141 19.3 116.188 19.2933 116.228 19.28C116.281 19.2667 116.335 19.2533 116.388 19.24C116.428 19.24 116.468 19.2333 116.508 19.22C116.561 19.2067 116.615 19.1933 116.668 19.18L117.188 19.54L116.768 21.24ZM116.868 25.98C116.868 25.94 116.881 25.92 116.908 25.92C116.935 25.9067 116.928 25.9 116.888 25.9C116.848 25.94 116.761 25.98 116.628 26.02C116.495 26.0467 116.288 26.08 116.008 26.12L114.548 27.7C114.508 27.78 114.515 27.88 114.568 28C114.635 28.1333 114.728 28.24 114.848 28.32C114.875 28.44 114.955 28.5333 115.088 28.6C115.221 28.68 115.375 28.72 115.548 28.72L117.548 28.16C117.628 28.12 117.721 28.04 117.828 27.92C117.935 27.8 118.008 27.68 118.048 27.56C118.048 27.48 118.028 27.3933 117.988 27.3C117.961 27.1933 117.928 27.0933 117.888 27C117.861 26.96 117.835 26.9267 117.808 26.9C117.781 26.86 117.755 26.82 117.728 26.78L117.688 26.66C117.675 26.6333 117.668 26.5933 117.668 26.54C117.641 26.4467 117.521 26.3267 117.308 26.18C117.095 26.0467 116.948 25.98 116.868 25.98Z" fill="#2B2B2B"/>
</svg>
