<svg width="288" height="163" viewBox="0 0 288 163" fill="none" xmlns="http://www.w3.org/2000/svg">
<path d="M146.918 44.2C145.918 44 145.118 43.9667 144.518 44.1C143.918 44.2333 143.451 44.4 143.118 44.6C142.785 44.8667 142.552 45.1667 142.418 45.5C142.285 45.9 142.218 46.1333 142.218 46.2L140.418 50.9L136.218 54.7L135.218 54.3C134.018 53.8333 133.052 53.9667 132.318 54.7L132.018 55L133.518 57.8L124.818 64.5C124.685 64.5667 124.518 64.7 124.318 64.9L123.918 65.3C123.785 65.4333 123.652 65.6 123.518 65.8C123.385 65.9333 123.285 66.0333 123.218 66.1C122.951 66.5 122.618 66.8333 122.218 67.1C121.885 67.3 121.518 67.5 121.118 67.7L117.818 69.6L118.318 69.9C119.318 70.1667 120.385 70.4333 121.518 70.7C122.651 70.9 123.785 71.1333 124.918 71.4C126.051 71.6 127.185 71.8333 128.318 72.1C129.452 72.3 130.585 72.4667 131.718 72.6C133.851 73 135.751 73.3 137.418 73.5C139.151 73.6333 140.418 73.6 141.218 73.4L145.118 74.3L155.218 79C155.551 79.6 155.718 80.1667 155.718 80.7C155.718 81.2333 155.618 81.7 155.418 82.1L150.918 87.4C148.718 86.4 146.785 85.8667 145.118 85.8C143.518 85.8 142.052 85.9667 140.718 86.3C139.985 86.5 139.285 86.7 138.618 86.9C138.018 87.1 137.418 87.2667 136.818 87.4C135.551 87.7333 134.485 87.7 133.618 87.3L125.418 78.1C124.418 77.9667 123.585 77.7 122.918 77.3C122.318 76.9667 121.751 76.5 121.218 75.9C120.885 75.7 120.585 75.5 120.318 75.3C120.052 75.0333 119.785 74.8 119.518 74.6C119.251 74.4 118.985 74.2333 118.718 74.1C118.518 73.9 118.318 73.7333 118.118 73.6H115.918C115.385 74.1333 115.085 74.6333 115.018 75.1C114.885 75.3667 114.785 75.6333 114.718 75.9C114.718 76.1667 114.685 76.4333 114.618 76.7C114.418 77.3 114.118 77.8667 113.718 78.4C113.385 79 112.818 79.5667 112.018 80.1L111.318 81L109.018 85L107.818 87.4L97.7182 90.4L89.5182 88.4L90.0182 85.9C90.7515 84.9 91.4515 83.9333 92.1182 83C92.8515 82.0667 93.6182 81.1667 94.4182 80.3L96.9182 77.8C97.3182 77.3333 97.7515 76.8667 98.2182 76.4C98.7515 75.9333 99.2848 75.4333 99.8182 74.9C100.218 74.5 100.718 73.9333 101.318 73.2C101.985 72.4 102.651 71.6 103.318 70.8C103.918 70.0667 104.552 69.3667 105.218 68.7C105.951 68.0333 106.651 67.4667 107.318 67L119.118 58.3L126.618 55.2L127.518 52.8L129.118 48.6C129.518 48.4 129.785 48.1 129.918 47.7C130.051 47.3 130.085 46.8667 130.018 46.4C129.951 45.8667 129.851 45.3333 129.718 44.8C129.585 44.2667 129.485 43.8 129.418 43.4L129.318 40.5L129.018 33.9V32.6L128.518 26.4L129.518 24L129.018 19.1L129.918 10.9L133.418 8.3L141.718 8.2L145.918 9.39999L145.218 12.8L144.418 14.8L144.718 18.1L143.018 29.9C142.618 30.9 142.552 31.6667 142.818 32.2C143.152 32.6667 143.552 32.9667 144.018 33.1C144.418 33.3 144.818 33.2333 145.218 32.9C145.685 32.5667 145.852 31.9667 145.718 31.1L149.418 29.6L160.018 28.4L162.018 36L158.718 42L146.918 44.2ZM93.9182 20.2C94.1182 20.4 94.2182 20.2667 94.2182 19.8C94.2848 19.6667 94.3182 19.5 94.3182 19.3C94.3182 19.0333 94.3515 18.7333 94.4182 18.4C94.4182 18 94.4848 17.5333 94.6182 17C94.7515 16.4667 95.0182 16.0667 95.4182 15.8C98.6848 13.8667 101.785 13.9 104.718 15.9L112.418 21.6C113.018 22.2667 113.485 23.4333 113.818 25.1C114.218 26.7667 114.451 28.6667 114.518 30.8C114.651 32.8667 114.651 35.0333 114.518 37.3C114.385 39.5 114.218 41.4667 114.018 43.2C113.818 43.6667 113.418 44.4667 112.818 45.6C112.218 46.6667 111.451 47.5 110.518 48.1L97.2182 56C92.8848 57.2 88.5848 57 84.3182 55.4C82.7182 55.4 81.1515 54.9 79.6182 53.9C78.0848 52.9 77.1182 51.5667 76.7182 49.9C75.9182 48.5667 75.4515 47.2 75.3182 45.8C75.2515 44.3333 75.4182 42.9667 75.8182 41.7L83.3182 24.5C83.5182 24.3 83.7515 24 84.0182 23.6C84.2848 23.2 84.5515 22.7667 84.8182 22.3C85.4848 21.5667 86.4182 20.6333 87.6182 19.5L93.9182 20.2ZM92.4182 34.9L91.9182 35.6C91.7848 35.8667 91.6182 36.1333 91.4182 36.4C91.2182 36.6 91.0182 36.8667 90.8182 37.2C90.4182 37.8 90.0515 38.4333 89.7182 39.1C89.4515 39.7667 89.3515 40.3 89.4182 40.7C89.4182 41.4333 89.4848 42.0667 89.6182 42.6C89.6182 43.0667 90.0515 43.5 90.9182 43.9C91.5848 44.2333 92.4848 44.3667 93.6182 44.3H96.7182C97.0515 44.3667 97.4515 44.4 97.9182 44.4C98.4515 44.3333 99.1182 44.2 99.9182 44C101.518 43.6 102.485 42.8667 102.818 41.8C103.018 41.2 103.085 40.6333 103.018 40.1C103.018 39.5 102.951 39 102.818 38.6C102.551 38.2667 102.418 37.9 102.418 37.5C102.285 37.0333 102.351 36.5333 102.618 36C102.618 34.4 102.785 33.2667 103.118 32.6C103.451 31.7333 103.751 31.1667 104.018 30.9C104.152 30.7 104.218 30.1667 104.218 29.3C104.218 28.4333 104.051 27.7667 103.718 27.3C103.385 26.9 102.951 26.6 102.418 26.4C101.885 26.2 101.318 26.0667 100.718 26C100.118 25.9333 99.5515 25.9333 99.0182 26C98.5515 26 98.2182 26.1 98.0182 26.3L92.4182 34.9ZM180.438 54.7C180.438 54.2333 180.438 53.8667 180.438 53.6C180.438 53.2667 180.371 52.8333 180.238 52.3C179.904 50.6333 179.904 47.2333 180.238 42.1C180.504 37.3 180.338 33.7333 179.738 31.4C180.004 30.3333 180.171 29.6 180.238 29.2C180.304 28.8 180.271 28.7667 180.138 29.1C179.804 29.8333 180.038 28.9 180.838 26.3C180.704 23.1 180.738 20.0333 180.938 17.1C181.138 14.1667 181.471 11.3 181.938 8.49999C182.138 7.16666 182.304 5.9 182.438 4.7C182.638 3.49999 182.771 2.33333 182.838 1.2L185.238 0.299998L197.238 1.49999L199.138 4.1L199.538 10.2C198.471 11.1333 197.738 12.1 197.338 13.1C196.938 14.1 196.704 14.8667 196.638 15.4C196.571 15.9333 196.438 16.7667 196.238 17.9C196.038 18.9667 195.704 19.7667 195.238 20.3L195.038 21.2C195.704 22.6 196.171 23.4 196.438 23.6C196.771 23.8 196.971 23.9667 197.038 24.1C197.171 23.9667 197.138 24.1 196.938 24.5C196.738 24.8333 196.371 25.4667 195.838 26.4C194.838 28.2 194.671 29 195.338 28.8C195.671 29 194.938 32.5333 193.138 39.4C192.671 41.0667 192.304 42.4 192.038 43.4C191.771 44.4 191.538 45.2 191.338 45.8C191.204 46.4 191.104 46.8333 191.038 47.1C190.971 47.3667 190.938 47.6 190.938 47.8C189.738 48.2667 188.704 48.7 187.838 49.1C186.971 49.4333 186.538 49.8 186.538 50.2C186.538 50.4 186.771 50.6333 187.238 50.9C187.704 51.1667 188.204 51.4333 188.738 51.7C189.071 51.8333 189.404 52 189.738 52.2C190.138 52.3333 190.538 52.4667 190.938 52.6L189.138 54.8L180.438 54.7ZM192.438 63.6C192.171 63.8 192.204 64 192.538 64.2C192.871 64.4 192.904 64.5 192.638 64.5L192.438 70.7L191.538 74.2C191.271 74.3333 191.038 74.4333 190.838 74.5C190.571 74.6333 190.271 74.7667 189.938 74.9C189.671 75.0333 189.338 75.1667 188.938 75.3C187.271 76.1667 186.304 76.6 186.038 76.6L182.338 74.9C179.871 73.7667 178.538 73.1 178.338 72.9C178.804 71.5 179.104 69.7 179.238 67.5C179.238 66.9667 179.238 66.5 179.238 66.1C179.304 65.7 179.338 65.3667 179.338 65.1C179.338 64.7667 179.371 64.5 179.438 64.3C179.704 64.2333 180.338 64.1333 181.338 64C182.338 63.8667 182.971 63.6667 183.238 63.4C183.238 63.5333 183.438 63.4333 183.838 63.1L184.438 62.7C184.571 62.7 184.838 62.7333 185.238 62.8C185.704 62.8667 186.404 62.9667 187.338 63.1C188.271 63.2333 188.938 63.3667 189.338 63.5C189.804 63.5667 190.071 63.6 190.138 63.6C190.538 63.6 190.804 63.6 190.938 63.6C191.138 63.5333 191.271 63.5 191.338 63.5C191.471 63.5 191.571 63.5 191.638 63.5C191.771 63.5 192.038 63.5333 192.438 63.6ZM23.3771 153.97L23.7371 147.88C23.7171 147.76 23.6571 147.66 23.5571 147.58C23.4771 147.5 23.3771 147.43 23.2571 147.37L22.8671 148.42L21.1271 149.98L19.5971 155.11C19.3971 155.13 19.2071 155.15 19.0271 155.17C18.8671 155.17 18.7171 155.18 18.5771 155.2C18.3171 155.22 18.0371 155.24 17.7371 155.26C17.4571 155.28 17.2371 155.29 17.0771 155.29C16.8971 155.31 16.7671 155.27 16.6871 155.17C16.6271 155.05 16.5871 154.93 16.5671 154.81C16.5271 154.67 16.5271 154.55 16.5671 154.45C16.5871 154.39 16.6071 153.9 16.6271 152.98C16.6471 152.06 16.6771 150.69 16.7171 148.87L16.5371 146.71L16.9571 144.61L17.0171 140.02L17.4071 139.12L20.9771 139.48L21.2471 140.89C21.2071 141.35 21.1671 141.77 21.1271 142.15C21.0871 142.53 21.0471 142.86 21.0071 143.14C20.9271 143.72 20.8471 144.26 20.7671 144.76C20.7071 145.24 20.6571 145.5 20.6171 145.54C20.5571 145.6 20.4771 145.67 20.3771 145.75C20.2971 145.83 20.2071 145.91 20.1071 145.99C20.0271 146.07 19.9471 146.16 19.8671 146.26C19.8071 146.34 19.7871 146.42 19.8071 146.5C19.8471 146.5 19.8871 146.5 19.9271 146.5C19.9871 146.48 20.0571 146.46 20.1371 146.44L20.6471 146.26C21.0271 146.16 21.3071 146.07 21.4871 145.99L22.5671 144.31L23.0171 143.68L23.1071 142.6L23.6771 141.61L23.7371 140.44L25.1471 139.75L27.3671 140.77L27.2771 142.42C27.2371 142.72 27.2471 143.02 27.3071 143.32C27.3671 143.62 27.5171 143.92 27.7571 144.22L27.1871 153.76L25.9271 155.38L23.8271 154.78L23.3771 153.97ZM4.95707 152.65C4.75707 153.01 4.58707 153.3 4.44707 153.52C4.30707 153.72 4.17707 153.88 4.05707 154C3.93707 154.14 3.82707 154.28 3.72707 154.42C3.62707 154.54 3.51707 154.7 3.39707 154.9C2.79707 155.36 2.19707 155.42 1.59707 155.08L0.00707034 153.79L0.78707 150.91L2.46707 148.3L2.73707 147.31C3.31707 146.33 3.88707 145.42 4.44707 144.58C5.00707 143.72 5.48707 143.03 5.88707 142.51L6.12707 142.03C6.16707 141.87 6.18707 141.71 6.18707 141.55L8.04707 139.42C8.54707 139.54 9.02707 139.76 9.48707 140.08L10.6871 141.43L7.95707 146.23L7.83707 146.95C7.69707 147.39 7.79707 147.78 8.13707 148.12L10.9871 149.08L13.9871 150.67C14.4071 150.85 14.6671 151.09 14.7671 151.39C14.8671 151.69 14.8471 152.01 14.7071 152.35L13.7771 154.36L12.7271 154.15L11.7971 154.27L10.6271 153.31L10.2671 152.8L8.82707 151.99L8.22707 151.24L7.68707 150.55C7.86707 150.41 7.97707 150.26 8.01707 150.1C8.05707 149.92 8.02707 149.79 7.92707 149.71C7.82707 149.63 7.64707 149.62 7.38707 149.68C7.14707 149.72 6.83707 149.88 6.45707 150.16L5.31707 151.27L4.95707 152.65ZM42.7789 137.17L43.9189 138.7L43.1989 140.68L42.9289 142.24C42.8489 142.32 42.7689 142.4 42.6889 142.48C42.6089 142.54 42.5389 142.61 42.4789 142.69C42.3389 142.87 42.2689 143.06 42.2689 143.26L42.3289 143.89L39.6889 145.3L37.0789 146.17L38.9089 147.43L42.1189 146.5L43.5289 146.44L45.7189 145.78C46.0389 145.66 46.3189 145.48 46.5589 145.24H47.6689L47.8789 147.85L47.9989 148.93L47.6389 149.44C47.4389 149.34 47.2289 149.26 47.0089 149.2C46.7889 149.14 46.5589 149.13 46.3189 149.17L45.2089 149.23L42.9589 152.02C42.7989 152.18 42.6489 152.3 42.5089 152.38C42.3889 152.44 42.2689 152.5 42.1489 152.56C42.0289 152.6 41.8989 152.64 41.7589 152.68C41.6189 152.7 41.4589 152.74 41.2789 152.8C41.1389 152.92 40.9889 153.08 40.8289 153.28C40.6689 153.46 40.5889 153.56 40.5889 153.58C40.4489 153.78 40.4989 153.99 40.7389 154.21C40.9589 154.41 41.1189 154.51 41.2189 154.51C41.2989 154.55 41.4189 154.56 41.5789 154.54C41.7389 154.52 41.8889 154.42 42.0289 154.24L46.8889 153.94L50.1889 152.95L51.1789 153.13L51.0589 154.93L50.1289 156.46C50.0289 156.48 49.8289 156.52 49.5289 156.58C49.2289 156.62 48.8689 156.67 48.4489 156.73C48.0089 156.79 47.5389 156.85 47.0389 156.91C46.5589 156.95 46.0889 156.98 45.6289 157L40.1389 157.66C39.2389 157.72 38.3789 157.78 37.5589 157.84C36.7389 157.9 35.9889 157.95 35.3089 157.99C34.6289 158.03 34.0489 158.06 33.5689 158.08C33.0889 158.12 32.7589 158.13 32.5789 158.11L32.2189 156.73L33.4489 155.23L35.1889 154.66L36.9289 153.37L38.6389 151.51L40.1989 151.33C40.3589 151.33 40.4889 151.19 40.5889 150.91C40.6689 150.65 40.6989 150.47 40.6789 150.37L39.8389 150.13L37.6789 150.76L35.6389 150.7L35.0089 150.82L34.4989 150.61L33.3589 146.77L33.7789 145L37.0489 143.44L37.7089 142.78L38.9089 141.73C39.1089 141.79 39.2589 141.78 39.3589 141.7C39.4589 141.6 39.5189 141.49 39.5389 141.37C39.5389 141.23 39.5089 141.1 39.4489 140.98C39.3889 140.86 39.2989 140.8 39.1789 140.8L35.2189 140.35L30.8089 141.01L30.5689 139.48L30.7489 137.83L31.3189 137.08L34.8589 137.38L42.7789 137.17ZM62.3182 147.46L63.0382 146.83L67.8982 146.2L70.9582 145.27L75.7582 145.33L75.7882 147.31L73.7182 148.36L71.2882 148.72L69.5182 149.41C69.3982 149.43 69.3082 149.46 69.2482 149.5C69.1882 149.52 69.1282 149.56 69.0682 149.62C69.0082 149.66 68.9482 149.72 68.8882 149.8C68.8282 149.86 68.7582 149.92 68.6782 149.98V150.85L68.1382 151.93L67.3282 153.13C67.0082 153.39 66.6282 153.57 66.1882 153.67C65.7882 153.77 65.4282 153.83 65.1082 153.85L63.1582 156.76C63.3182 156.88 63.5382 156.94 63.8182 156.94C64.1182 156.94 64.4382 156.92 64.7782 156.88C65.1382 156.84 65.4982 156.79 65.8582 156.73C66.2182 156.67 66.5582 156.62 66.8782 156.58L69.5182 156.31C69.8182 156.29 70.0782 156.22 70.2982 156.1C70.5382 155.96 70.7182 155.75 70.8382 155.47L73.2982 155.29L74.3182 157.12L74.0482 157.96L70.9882 158.92C70.4882 158.98 70.0482 159.06 69.6682 159.16C69.3082 159.26 68.9682 159.36 68.6482 159.46C68.3282 159.56 68.0182 159.67 67.7182 159.79C67.4382 159.91 67.1382 160.01 66.8182 160.09L60.6682 160.54L59.0182 159.82L59.4082 158.05C59.8282 157.61 60.0682 157.29 60.1282 157.09C60.2082 156.91 60.1282 156.76 59.8882 156.64L60.2182 154.24L64.0282 152.68L64.5982 150.61C65.1582 150.65 65.4582 150.57 65.4982 150.37C65.5382 150.15 65.4282 149.95 65.1682 149.77C64.9282 149.57 64.5982 149.46 64.1782 149.44C63.7782 149.42 63.4282 149.61 63.1282 150.01L57.0682 151.12L55.7182 150.58L55.2082 149.68L56.8582 147.07L58.9582 147.4L62.3182 147.46ZM62.0782 145.27C61.5182 145.33 61.0082 145.3 60.5482 145.18C60.0882 145.06 59.6882 144.83 59.3482 144.49C59.2282 144.31 59.0982 144.13 58.9582 143.95C58.8182 143.75 58.6982 143.56 58.5982 143.38C58.4782 143.2 58.3882 143.02 58.3282 142.84C58.2682 142.66 58.2582 142.48 58.2982 142.3C58.3182 142.24 58.3482 142.12 58.3882 141.94C58.4282 141.74 58.4782 141.54 58.5382 141.34C58.6382 140.88 58.7482 140.54 58.8682 140.32C58.9282 140.36 58.9882 140.36 59.0482 140.32L59.2282 140.26C59.2882 140.22 59.3382 140.19 59.3782 140.17C59.4382 140.13 59.4982 140.09 59.5582 140.05C59.6182 140.03 59.6782 140.01 59.7382 139.99C59.8182 139.97 59.8782 139.95 59.9182 139.93C60.0182 139.83 60.0782 139.67 60.0982 139.45L60.0082 138.82C60.1482 138.58 60.3282 138.28 60.5482 137.92C60.7882 137.56 61.0382 137.19 61.2982 136.81C61.5782 136.45 61.8582 136.12 62.1382 135.82C62.4182 135.52 62.6882 135.3 62.9482 135.16C63.0882 135.1 63.2582 135.06 63.4582 135.04C63.6782 135 63.8982 134.98 64.1182 134.98H65.3782C65.6582 135 65.8382 135.07 65.9182 135.19C65.9582 135.35 65.9782 135.53 65.9782 135.73C65.9782 136.11 66.0282 136.38 66.1282 136.54C66.2282 136.68 66.1282 136.92 65.8282 137.26C65.5482 137.6 65.2082 138 64.8082 138.46C64.4282 138.92 64.0382 139.4 63.6382 139.9C63.2582 140.4 62.9782 140.8 62.7982 141.1C62.6782 141.38 62.6282 141.59 62.6482 141.73C62.6882 141.87 62.7682 141.97 62.8882 142.03C62.9882 142.11 63.1182 142.16 63.2782 142.18C63.4582 142.2 63.6282 142.22 63.7882 142.24C63.9482 142.28 64.2082 142.29 64.5682 142.27C64.9282 142.25 65.2982 142.21 65.6782 142.15C66.0782 142.09 66.4582 142.02 66.8182 141.94C67.1782 141.84 67.4582 141.75 67.6582 141.67L68.4982 140.8C68.4382 140.7 68.3382 140.54 68.1982 140.32C68.0782 140.08 67.9282 139.84 67.7482 139.6C67.5682 139.36 67.3682 139.15 67.1482 138.97C66.9482 138.77 66.7282 138.65 66.4882 138.61C66.3682 138.49 66.3082 138.37 66.3082 138.25C66.3082 138.11 66.3382 137.99 66.3982 137.89C66.4582 137.77 66.5182 137.68 66.5782 137.62C66.6582 137.54 66.7982 137.5 66.9982 137.5C67.0982 137.5 67.2582 137.5 67.4782 137.5C67.6982 137.5 67.9782 137.49 68.3182 137.47C68.6582 137.45 68.9682 137.42 69.2482 137.38C69.5282 137.34 69.7782 137.29 69.9982 137.23C70.3782 137.39 70.6882 137.7 70.9282 138.16C71.0882 138.34 71.2582 138.56 71.4382 138.82C71.6382 139.06 71.8182 139.33 71.9782 139.63C72.1182 139.93 72.2282 140.23 72.3082 140.53C72.4082 140.83 72.4382 141.11 72.3982 141.37L71.8882 141.82L71.5582 142.69L71.4982 143.47C71.1782 143.67 70.4982 143.88 69.4582 144.1C68.9382 144.2 68.4182 144.3 67.8982 144.4C67.3782 144.48 66.8382 144.57 66.2782 144.67C65.1582 144.85 64.1882 145 63.3682 145.12L62.0782 145.27ZM104.186 156.64L103.586 157.42L98.4858 158.08C98.1858 158.2 97.9758 158.43 97.8558 158.77C97.7558 159.13 97.7058 159.46 97.7058 159.76L106.676 157.99C106.916 157.99 107.166 157.99 107.426 157.99C107.686 158.01 107.946 158.02 108.206 158.02C108.446 158.08 108.696 158.13 108.956 158.17C109.236 158.21 109.506 158.23 109.766 158.23L109.616 161.44L103.466 161.26C102.746 161.5 102.026 161.68 101.306 161.8L100.226 162.07C100.066 162.11 99.8958 162.15 99.7158 162.19C99.5558 162.25 99.4058 162.29 99.2658 162.31L93.2658 162.55L93.1158 159.85L95.2458 155.83L102.596 154.63L102.476 153.1L101.876 152.83L96.9258 153.46L95.0958 154.3L94.1658 154.18L94.1358 151.75C94.3158 151.57 94.5458 151.42 94.8258 151.3C95.1058 151.18 95.4058 151.08 95.7258 151L101.546 150.01L103.886 150.49L106.826 150.64C106.946 150.94 107.056 151.24 107.156 151.54C107.256 151.82 107.306 152.13 107.306 152.47L107.216 155.29L105.716 156.04L104.186 156.64ZM93.2658 139.06C93.3258 139.12 93.3558 139.08 93.3558 138.94C93.3758 138.9 93.3858 138.85 93.3858 138.79C93.3858 138.71 93.3958 138.62 93.4158 138.52C93.4158 138.4 93.4358 138.26 93.4758 138.1C93.5158 137.94 93.5958 137.82 93.7158 137.74C94.6958 137.16 95.6258 137.17 96.5058 137.77L98.8158 139.48C98.9958 139.68 99.1358 140.03 99.2358 140.53C99.3558 141.03 99.4258 141.6 99.4458 142.24C99.4858 142.86 99.4858 143.51 99.4458 144.19C99.4058 144.85 99.3558 145.44 99.2958 145.96C99.2358 146.1 99.1158 146.34 98.9358 146.68C98.7558 147 98.5258 147.25 98.2458 147.43L94.2558 149.8C92.9558 150.16 91.6658 150.1 90.3858 149.62C89.9058 149.62 89.4358 149.47 88.9758 149.17C88.5158 148.87 88.2258 148.47 88.1058 147.97C87.8658 147.57 87.7258 147.16 87.6858 146.74C87.6658 146.3 87.7158 145.89 87.8358 145.51L90.0858 140.35C90.1458 140.29 90.2158 140.2 90.2958 140.08C90.3758 139.96 90.4558 139.83 90.5358 139.69C90.7358 139.47 91.0158 139.19 91.3758 138.85L93.2658 139.06ZM109.256 145.57C109.056 145.53 108.846 145.5 108.626 145.48C108.406 145.44 108.126 145.41 107.786 145.39L107.516 146.14L107.216 148.24C107.016 148.32 106.856 148.41 106.736 148.51L106.256 148.87C106.116 148.99 105.976 149.09 105.836 149.17C105.696 149.23 105.586 149.24 105.506 149.2L103.676 149.5L103.466 147.79L103.346 145.42L103.076 144.58L103.316 141.4L103.076 139.66L103.166 137.74L104.006 136.48L106.736 136.18C107.196 136.12 107.486 136.3 107.606 136.72C107.746 137.1 107.786 137.5 107.726 137.92L107.366 142.3C107.246 142.48 107.246 142.65 107.366 142.81C107.506 142.95 107.656 143.03 107.816 143.05C107.976 143.09 108.106 143.06 108.206 142.96C108.326 142.84 108.326 142.62 108.206 142.3C108.386 142.18 108.576 142.06 108.776 141.94C108.996 141.82 109.186 141.75 109.346 141.73C109.566 141.71 109.836 141.69 110.156 141.67C110.476 141.63 110.796 141.6 111.116 141.58C111.456 141.54 111.766 141.51 112.046 141.49C112.326 141.47 112.546 141.45 112.706 141.43L113.756 142.09C113.816 142.35 113.836 142.59 113.816 142.81C113.816 143.01 113.796 143.2 113.756 143.38C113.696 143.58 113.636 143.78 113.576 143.98C113.516 144.16 113.466 144.35 113.426 144.55L109.256 145.57ZM92.8158 143.47L92.6658 143.68C92.6258 143.76 92.5758 143.84 92.5158 143.92C92.4558 143.98 92.3958 144.06 92.3358 144.16C92.2158 144.34 92.1058 144.53 92.0058 144.73C91.9258 144.93 91.8958 145.09 91.9158 145.21C91.9158 145.43 91.9358 145.62 91.9758 145.78C91.9758 145.92 92.1058 146.05 92.3658 146.17C92.5658 146.27 92.8358 146.31 93.1758 146.29H94.1058C94.2058 146.31 94.3258 146.32 94.4658 146.32C94.6258 146.3 94.8258 146.26 95.0658 146.2C95.5458 146.08 95.8358 145.86 95.9358 145.54C95.9958 145.36 96.0158 145.19 95.9958 145.03C95.9958 144.85 95.9758 144.7 95.9358 144.58C95.8558 144.48 95.8158 144.37 95.8158 144.25C95.7758 144.11 95.7958 143.96 95.8758 143.8C95.8758 143.32 95.9258 142.98 96.0258 142.78C96.1258 142.52 96.2158 142.35 96.2958 142.27C96.3358 142.21 96.3558 142.05 96.3558 141.79C96.3558 141.53 96.3058 141.33 96.2058 141.19C96.1058 141.07 95.9758 140.98 95.8158 140.92C95.6558 140.86 95.4858 140.82 95.3058 140.8C95.1258 140.78 94.9558 140.78 94.7958 140.8C94.6558 140.8 94.5558 140.83 94.4958 140.89L92.8158 143.47ZM137.702 143.38L138.032 145.99L137.402 146.95L136.772 149.08L135.962 149.38L135.332 149.5L133.682 150.43L133.052 150.07V149.38L133.142 148.84L133.322 148.03L133.472 147.55L133.322 146.74L133.442 146.02L133.352 143.83L129.722 147.58L127.472 149.02L125.342 149.98L119.012 151.09L118.442 150.61L118.142 149.89L118.412 148.84L118.442 146.71L118.652 145.9L117.962 145.21L117.992 143.95L118.622 142.36L121.262 141.37L125.102 140.26L124.682 138.73L121.652 138.43L120.152 138.7L118.082 138.91L116.942 137.92L116.432 135.85L116.852 135.61L119.642 135.34L122.042 135.94H125.642L128.702 136.6L129.182 137.74L129.212 141.1L127.682 142.42L124.562 142.9L123.812 143.74L122.342 144.07L122.162 144.55L122.072 145.15L122.792 146.8L124.172 146.77L126.722 145.66L129.152 144.91L133.322 142.6L133.352 142.15L133.622 141.43L133.382 139.69L133.562 138.76L133.472 138.04L133.532 137.35C133.532 137.05 133.602 136.81 133.742 136.63C133.902 136.45 134.162 136.39 134.522 136.45L137.072 136.93C137.532 137.05 137.822 137.27 137.942 137.59C138.082 137.91 138.122 138.27 138.062 138.67L137.702 143.38ZM139.682 158.47L139.742 159.94L139.112 160.27C138.572 160.33 137.992 160.4 137.372 160.48C136.752 160.58 136.142 160.68 135.542 160.78C135.242 160.84 134.942 160.89 134.642 160.93C134.342 160.99 134.042 161.05 133.742 161.11C133.462 161.15 133.192 161.18 132.932 161.2C132.672 161.24 132.442 161.26 132.242 161.26L131.492 160.72L131.522 160.15L132.602 157.6L132.542 154.78C132.422 154.8 132.272 154.82 132.092 154.84C131.912 154.86 131.732 154.87 131.552 154.87C131.352 154.89 131.152 154.92 130.952 154.96C130.752 154.98 130.592 155.01 130.472 155.05C130.372 155.09 130.262 155.14 130.142 155.2C130.042 155.24 129.932 155.28 129.812 155.32L128.972 155.68C128.272 155.96 127.902 156.18 127.862 156.34C127.842 156.48 127.812 156.71 127.772 157.03C127.712 157.33 127.662 157.64 127.622 157.96C127.582 158.3 127.542 158.64 127.502 158.98C127.462 159.14 127.442 159.22 127.442 159.22C127.422 159.24 127.412 159.26 127.412 159.28V159.34L127.352 159.43V159.61C127.352 159.67 127.312 159.72 127.232 159.76C127.152 159.8 127.062 159.84 126.962 159.88C126.842 159.94 126.722 160.03 126.602 160.15C126.602 160.21 126.622 160.26 126.662 160.3C126.662 160.34 126.712 160.38 126.812 160.42C126.852 160.46 126.892 160.49 126.932 160.51C126.972 160.55 127.012 160.59 127.052 160.63C126.852 161.07 126.572 161.3 126.212 161.32C125.872 161.34 125.492 161.35 125.072 161.35C124.632 161.37 124.192 161.38 123.752 161.38C123.332 161.4 123.062 161.41 122.942 161.41L122.252 160.39L123.032 156.88C123.132 156.72 123.242 156.51 123.362 156.25C123.482 155.99 123.622 155.69 123.782 155.35L124.442 151.36L125.462 150.88L127.052 151.3L127.262 153.7C127.342 153.7 127.442 153.64 127.562 153.52C127.622 153.46 127.682 153.4 127.742 153.34C127.822 153.28 127.912 153.21 128.012 153.13C128.132 153.01 128.272 152.89 128.432 152.77C128.592 152.65 128.762 152.56 128.942 152.5L132.632 151.21C133.412 151.15 134.162 151.13 134.882 151.15C135.622 151.17 136.212 151.21 136.652 151.27L137.252 152.74L136.172 156.58L134.792 158.47L135.422 158.23L136.622 157.48L139.052 156.94L140.012 157.06L139.682 158.47ZM151.019 142.57C151.079 142.63 151.109 142.59 151.109 142.45C151.129 142.41 151.139 142.36 151.139 142.3C151.139 142.22 151.149 142.13 151.169 142.03C151.169 141.91 151.189 141.77 151.229 141.61C151.269 141.45 151.349 141.33 151.469 141.25C152.449 140.67 153.379 140.68 154.259 141.28L156.569 142.99C156.749 143.19 156.889 143.54 156.989 144.04C157.109 144.54 157.179 145.11 157.199 145.75C157.239 146.37 157.239 147.02 157.199 147.7C157.159 148.36 157.109 148.95 157.049 149.47C156.989 149.61 156.869 149.85 156.689 150.19C156.509 150.51 156.279 150.76 155.999 150.94L152.009 153.31C150.709 153.67 149.419 153.61 148.139 153.13C147.659 153.13 147.189 152.98 146.729 152.68C146.269 152.38 145.979 151.98 145.859 151.48C145.619 151.08 145.479 150.67 145.439 150.25C145.419 149.81 145.469 149.4 145.589 149.02L147.839 143.86C147.899 143.8 147.969 143.71 148.049 143.59C148.129 143.47 148.209 143.34 148.289 143.2C148.489 142.98 148.769 142.7 149.129 142.36L151.019 142.57ZM163.319 138.28L164.699 138.16L166.439 138.61C166.619 138.79 166.659 139.14 166.559 139.66L166.649 140.26L166.679 142.84L166.829 148.06L166.229 149.35L166.589 151.72L166.769 155.71L165.869 156.37L162.029 156.55L162.059 155.44L162.299 154.75L162.479 152.95L162.659 149.95C162.559 149.07 162.479 148.39 162.419 147.91C162.379 147.41 162.349 147.11 162.329 147.01C162.309 146.81 162.359 146.5 162.479 146.08V142.24L162.269 139.69L163.319 138.28ZM150.569 146.98L150.419 147.19C150.379 147.27 150.329 147.35 150.269 147.43C150.209 147.49 150.149 147.57 150.089 147.67C149.969 147.85 149.859 148.04 149.759 148.24C149.679 148.44 149.649 148.6 149.669 148.72C149.669 148.94 149.689 149.13 149.729 149.29C149.729 149.43 149.859 149.56 150.119 149.68C150.319 149.78 150.589 149.82 150.929 149.8H151.859C151.959 149.82 152.079 149.83 152.219 149.83C152.379 149.81 152.579 149.77 152.819 149.71C153.299 149.59 153.589 149.37 153.689 149.05C153.749 148.87 153.769 148.7 153.749 148.54C153.749 148.36 153.729 148.21 153.689 148.09C153.609 147.99 153.569 147.88 153.569 147.76C153.529 147.62 153.549 147.47 153.629 147.31C153.629 146.83 153.679 146.49 153.779 146.29C153.879 146.03 153.969 145.86 154.049 145.78C154.089 145.72 154.109 145.56 154.109 145.3C154.109 145.04 154.059 144.84 153.959 144.7C153.859 144.58 153.729 144.49 153.569 144.43C153.409 144.37 153.239 144.33 153.059 144.31C152.879 144.29 152.709 144.29 152.549 144.31C152.409 144.31 152.309 144.34 152.249 144.4L150.569 146.98ZM185.465 138.31C185.525 138.33 185.555 138.29 185.555 138.19C185.575 138.07 185.595 137.93 185.615 137.77C185.615 137.63 185.635 137.49 185.675 137.35C185.715 137.19 185.795 137.07 185.915 136.99C186.915 136.41 187.845 136.42 188.705 137.02L191.015 138.73C191.215 138.95 191.355 139.3 191.435 139.78C191.515 140.18 191.575 140.6 191.615 141.04L194.825 141.07C195.185 140.95 195.425 140.72 195.545 140.38L197.975 140.35L198.125 139.33L198.455 137.5L199.715 136.66L201.935 136.72L202.355 139.45L202.055 142.93C201.935 142.93 201.835 142.96 201.755 143.02C201.675 143.06 201.645 143.19 201.665 143.41V146.2L201.275 146.89L200.195 148.27L198.005 148.03L197.915 144.19C197.895 143.95 197.795 143.76 197.615 143.62C197.455 143.46 197.205 143.37 196.865 143.35L194.825 144.07L191.615 144.28C191.595 144.44 191.575 144.6 191.555 144.76C191.535 144.92 191.515 145.07 191.495 145.21C191.475 145.29 191.435 145.43 191.375 145.63C191.315 145.81 191.235 146 191.135 146.2C191.055 146.42 190.955 146.64 190.835 146.86C190.715 147.06 190.585 147.2 190.445 147.28L186.455 149.05C185.155 149.39 183.865 149.33 182.585 148.87C182.105 148.87 181.635 148.72 181.175 148.42C180.715 148.12 180.425 147.72 180.305 147.22C180.085 146.82 179.955 146.41 179.915 145.99C179.875 145.55 179.915 145.14 180.035 144.76L182.285 139.6C182.365 139.52 182.435 139.43 182.495 139.33C182.575 139.21 182.655 139.08 182.735 138.94C182.835 138.82 182.945 138.69 183.065 138.55C183.205 138.41 183.375 138.26 183.575 138.1L185.465 138.31ZM196.265 152.26L197.915 150.76L199.475 149.05L201.845 148.87L202.415 149.38C202.475 149.8 202.255 150.41 201.755 151.21C201.255 152.01 200.545 152.89 199.625 153.85C199.265 153.95 199.045 154.05 198.965 154.15C198.885 154.23 198.865 154.32 198.905 154.42C198.965 154.54 199.045 154.65 199.145 154.75C199.245 154.85 199.305 154.95 199.325 155.05L200.765 155.17L201.965 155.44L204.545 156.61L205.745 157.36V158.89C205.465 158.87 205.185 158.85 204.905 158.83C204.645 158.83 204.385 158.89 204.125 159.01L202.655 159.85L201.875 159.58L199.445 157.69L199.295 157.24L199.385 156.82C199.545 156.76 199.595 156.69 199.535 156.61C199.495 156.53 199.385 156.39 199.205 156.19C198.805 156.11 198.455 156.11 198.155 156.19C198.055 156.23 197.925 156.29 197.765 156.37L197.405 156.55L195.185 159.01L192.365 161.05L190.685 161.23L190.265 160.87L190.805 159.79L189.305 160L184.355 161.26H183.245L183.065 160.6L182.345 157.51L182.675 154.24L182.885 153.61L183.215 152.74L183.425 150.07L186.065 150.34L186.365 150.73L186.245 152.35L186.575 152.74L188.705 151.9L190.295 152.05C190.355 151.91 190.405 151.79 190.445 151.69C190.505 151.59 190.545 151.5 190.565 151.42C190.605 151.3 190.625 151.22 190.625 151.18V150.82L190.445 149.65L190.625 148.9L193.475 148.21L194.195 148.54C194.055 148.74 193.925 148.95 193.805 149.17C193.705 149.39 193.635 149.7 193.595 150.1L193.955 151.6L193.685 154.24L193.655 155.26C193.695 155.18 193.735 155.11 193.775 155.05C193.835 154.99 193.885 154.92 193.925 154.84C194.025 154.72 194.175 154.58 194.375 154.42C194.595 154.26 194.925 154.09 195.365 153.91L196.265 152.26ZM185.015 142.72C184.915 142.86 184.825 142.99 184.745 143.11C184.665 143.21 184.595 143.31 184.535 143.41C184.415 143.59 184.305 143.78 184.205 143.98C184.125 144.18 184.095 144.34 184.115 144.46C184.115 144.58 184.115 144.69 184.115 144.79C184.135 144.87 184.155 144.95 184.175 145.03C184.195 145.17 184.325 145.3 184.565 145.42C184.765 145.54 185.035 145.58 185.375 145.54C185.515 145.54 185.665 145.54 185.825 145.54C185.985 145.52 186.145 145.52 186.305 145.54C186.505 145.58 186.775 145.55 187.115 145.45C187.475 145.33 187.715 145.11 187.835 144.79C187.895 144.59 187.935 144.41 187.955 144.25C187.975 144.09 187.985 143.95 187.985 143.83V143.47C187.985 143.35 188.015 143.21 188.075 143.05L188.135 142.21C188.155 142.19 188.175 142.16 188.195 142.12C188.235 142.06 188.275 142 188.315 141.94C188.335 141.88 188.355 141.81 188.375 141.73C188.415 141.65 188.455 141.58 188.495 141.52C188.535 141.46 188.555 141.3 188.555 141.04C188.555 140.78 188.505 140.58 188.405 140.44C188.305 140.32 188.175 140.23 188.015 140.17C187.855 140.11 187.685 140.07 187.505 140.05C187.325 140.03 187.155 140.03 186.995 140.05C186.855 140.05 186.755 140.08 186.695 140.14L185.015 142.72ZM188.195 154.99L186.245 155.59L186.455 157.81L186.725 158.8C187.025 158.74 187.185 158.66 187.205 158.56C187.245 158.46 187.215 158.35 187.115 158.23L188.795 157.75L189.875 157.54L190.205 156.04C190.625 155.94 190.865 155.77 190.925 155.53C190.985 155.27 190.955 155.11 190.835 155.05L188.195 154.99ZM215.343 149.74L216.123 151.54V153.37L219.723 152.29L222.483 151.96L222.813 150.85L222.753 150.28L222.783 148.93L226.143 149.02L226.713 150.19L225.753 155.68L226.383 156.61L226.323 158.32L224.943 159.82L224.013 160.15L222.603 159.4L216.873 160.78L212.673 160.75L211.923 158.8L212.223 156.7L211.743 152.44L212.133 150.31L215.343 149.74ZM215.553 133.9L218.613 133.72C218.853 133.74 219.013 133.85 219.093 134.05C219.173 134.25 219.173 134.47 219.093 134.71L218.673 135.7C218.593 135.84 218.523 135.95 218.463 136.03C218.423 136.09 218.353 136.17 218.253 136.27C218.173 136.33 218.103 136.39 218.043 136.45C217.983 136.51 217.913 136.59 217.833 136.69C217.773 136.77 217.703 136.86 217.623 136.96C217.543 137.04 217.473 137.14 217.413 137.26L215.523 138.37L215.553 138.73C216.093 138.69 216.653 138.65 217.233 138.61C217.813 138.55 218.383 138.48 218.943 138.4C219.503 138.34 220.023 138.29 220.503 138.25C221.003 138.21 221.433 138.18 221.793 138.16L228.483 140.86L227.523 142.66C227.043 142.68 226.653 142.72 226.353 142.78C226.073 142.84 225.823 142.89 225.603 142.93C225.363 142.99 225.133 143.04 224.913 143.08C224.693 143.1 224.463 143.09 224.223 143.05L222.393 142.84L221.943 142.33L219.483 141.58C219.383 141.58 219.283 141.56 219.183 141.52C219.103 141.48 219.023 141.45 218.943 141.43C218.843 141.39 218.753 141.35 218.673 141.31C218.593 141.25 218.513 141.2 218.433 141.16C218.253 141.08 218.073 141 217.893 140.92C217.733 140.84 217.563 140.79 217.383 140.77C217.083 140.81 216.793 140.79 216.513 140.71C216.413 140.71 216.313 140.71 216.213 140.71C216.133 140.69 216.053 140.68 215.973 140.68C215.873 140.66 215.783 140.65 215.703 140.65C215.623 140.63 215.543 140.61 215.463 140.59C215.403 140.59 215.293 140.67 215.133 140.83C214.973 140.97 214.793 141.14 214.593 141.34C214.333 141.58 214.053 141.81 213.753 142.03C213.473 142.23 213.213 142.38 212.973 142.48L212.823 142.78L212.133 142.96L211.623 143.62L210.063 145.21L207.783 144.58L210.183 140.35L214.323 135.28L215.553 133.9ZM225.843 144.58L227.763 144.85L228.393 146.29V147.07C228.393 147.29 228.113 147.47 227.553 147.61C227.453 147.63 227.263 147.65 226.983 147.67C226.703 147.67 226.383 147.68 226.023 147.7C225.663 147.74 225.283 147.78 224.883 147.82C224.483 147.84 224.113 147.86 223.773 147.88L217.263 148.72L217.293 148.24L215.883 148.63L211.293 149.38L209.883 149.71L208.863 149.59L207.843 148.36L207.483 146.68L208.143 145.96L209.883 145.75L212.223 145.9L214.083 145.51L215.613 145.6L220.743 145.06L225.843 144.58ZM216.153 157.27L216.873 157.84L221.613 157L222.003 154.96L221.133 154.48L217.773 155.44L216.153 155.35V157.27ZM236.082 140.86L237.612 145.36L236.712 149.89C236.672 150.11 236.662 150.27 236.682 150.37C236.702 150.45 236.762 150.52 236.862 150.58C236.982 150.68 237.142 150.74 237.342 150.76C237.542 150.76 237.712 150.73 237.852 150.67L240.042 149.95L241.932 149.77L247.212 147.28C247.212 146.96 247.262 146.62 247.362 146.26V142.42L248.352 138.52L249.582 138.34L251.322 138.79C251.502 138.97 251.562 139.19 251.502 139.45C251.462 139.71 251.472 140.04 251.532 140.44L251.562 143.02L251.712 148.24L251.112 149.53L251.472 151.9L251.652 155.89L250.752 156.55L246.912 156.73L246.942 155.62L247.182 154.93L247.362 153.13L247.542 150.13L247.392 148.87L245.052 151.27L242.262 153.31L235.992 153.85L232.902 152.65C232.682 152.11 232.532 151.62 232.452 151.18C232.372 150.72 232.312 150.27 232.272 149.83C232.252 149.37 232.252 148.89 232.272 148.39C232.292 147.89 232.302 147.32 232.302 146.68L232.362 143.29L232.932 142.6L233.202 140.53L236.082 140.86ZM273.601 138.94L274.831 139.39C275.011 139.57 275.111 139.79 275.131 140.05C275.151 140.31 275.191 140.74 275.251 141.34L275.281 143.92L274.891 145.36L275.371 145.99C275.651 146.03 276.031 146.03 276.511 145.99C276.731 145.97 276.941 145.95 277.141 145.93C277.361 145.91 277.561 145.89 277.741 145.87C278.181 145.85 278.651 145.77 279.151 145.63C279.371 145.59 279.581 145.55 279.781 145.51C280.001 145.47 280.201 145.45 280.381 145.45L281.551 146.23L281.191 148.18L280.711 148.99C280.671 149.39 280.481 149.58 280.141 149.56L277.951 149.44C277.891 149.44 277.781 149.43 277.621 149.41C277.481 149.37 277.311 149.34 277.111 149.32C276.911 149.28 276.701 149.26 276.481 149.26C276.261 149.24 276.051 149.24 275.851 149.26L275.431 149.14C275.291 149.12 275.181 149.16 275.101 149.26C275.021 149.36 274.951 149.48 274.891 149.62C274.851 149.78 274.821 149.94 274.801 150.1C274.801 150.26 274.811 150.37 274.831 150.43L274.741 151.75L275.191 152.8L275.011 153.94L275.071 155.89L271.501 156.7L270.871 156.19L271.141 153.52L270.961 151.51L271.051 150.76L270.061 151.6L268.351 152.95L266.731 153.7L263.041 155.29L258.601 155.71L257.191 154.75C256.951 153.99 256.751 153.26 256.591 152.56C256.451 151.86 256.411 151.18 256.471 150.52L257.791 144.79L256.711 144.19C256.831 144.17 256.901 144.09 256.921 143.95C256.941 143.81 256.911 143.68 256.831 143.56C256.771 143.44 256.651 143.35 256.471 143.29C256.311 143.23 256.121 143.24 255.901 143.32C255.561 143.16 255.281 143.03 255.061 142.93C254.841 142.81 254.681 142.72 254.581 142.66C254.261 142.46 254.071 142.28 254.011 142.12C253.951 141.94 253.961 141.7 254.041 141.4L254.341 140.05L257.491 140.59L259.951 139.84L265.141 140.2L266.491 139.99L267.991 140.53L267.961 141.31L267.241 142.06L266.461 144.07L261.811 144.34L260.371 145.03L261.031 149.71L259.981 150.7L261.121 151.51C261.501 151.81 261.831 151.97 262.111 151.99C262.411 151.99 262.691 151.96 262.951 151.9L264.331 151.3L267.271 151.15L271.201 149.08L271.081 142.21L271.741 139.33L273.601 138.94ZM287.047 151.9C287.007 151.94 286.987 151.98 286.987 152.02C287.007 152.04 287.027 152.07 287.047 152.11L287.137 152.17V152.2L287.047 154.48L286.777 155.53C286.757 155.55 286.707 155.58 286.627 155.62L286.267 155.98C286.107 156.08 285.977 156.17 285.877 156.25C285.777 156.31 285.717 156.34 285.697 156.34C285.657 156.3 285.127 156.12 284.107 155.8C283.567 155.6 283.167 155.46 282.907 155.38C282.647 155.28 282.487 155.21 282.427 155.17C282.527 154.91 282.597 154.63 282.637 154.33C282.697 154.01 282.737 153.66 282.757 153.28C282.757 153.1 282.757 152.94 282.757 152.8C282.777 152.64 282.797 152.51 282.817 152.41C282.837 152.33 282.847 152.23 282.847 152.11C282.907 152.07 283.157 152.04 283.597 152.02C284.077 151.98 284.347 151.93 284.407 151.87C284.407 151.89 284.527 151.85 284.767 151.75L285.127 151.63C285.167 151.63 285.247 151.65 285.367 151.69C285.487 151.71 285.607 151.74 285.727 151.78C285.867 151.8 285.987 151.83 286.087 151.87C286.207 151.89 286.287 151.9 286.327 151.9C286.467 151.9 286.557 151.9 286.597 151.9C286.637 151.88 286.667 151.87 286.687 151.87C286.727 151.87 286.767 151.87 286.807 151.87C286.847 151.87 286.927 151.88 287.047 151.9Z" fill="black"/>
</svg>
