<svg width="432" height="163" viewBox="0 0 432 163" fill="none" xmlns="http://www.w3.org/2000/svg">
<path d="M218.918 44.2C217.918 44 217.118 43.9667 216.518 44.1C215.918 44.2333 215.451 44.4 215.118 44.6C214.785 44.8667 214.552 45.1667 214.418 45.5C214.285 45.9 214.218 46.1333 214.218 46.2L212.418 50.9L208.218 54.7L207.218 54.3C206.018 53.8333 205.052 53.9667 204.318 54.7L204.018 55L205.518 57.8L196.818 64.5C196.685 64.5667 196.518 64.7 196.318 64.9L195.918 65.3C195.785 65.4333 195.652 65.6 195.518 65.8C195.385 65.9333 195.285 66.0333 195.218 66.1C194.951 66.5 194.618 66.8333 194.218 67.1C193.885 67.3 193.518 67.5 193.118 67.7L189.818 69.6L190.318 69.9C191.318 70.1667 192.385 70.4333 193.518 70.7C194.651 70.9 195.785 71.1333 196.918 71.4C198.051 71.6 199.185 71.8333 200.318 72.1C201.452 72.3 202.585 72.4667 203.718 72.6C205.851 73 207.751 73.3 209.418 73.5C211.151 73.6333 212.418 73.6 213.218 73.4L217.118 74.3L227.218 79C227.551 79.6 227.718 80.1667 227.718 80.7C227.718 81.2333 227.618 81.7 227.418 82.1L222.918 87.4C220.718 86.4 218.785 85.8667 217.118 85.8C215.518 85.8 214.052 85.9667 212.718 86.3C211.985 86.5 211.285 86.7 210.618 86.9C210.018 87.1 209.418 87.2667 208.818 87.4C207.551 87.7333 206.485 87.7 205.618 87.3L197.418 78.1C196.418 77.9667 195.585 77.7 194.918 77.3C194.318 76.9667 193.751 76.5 193.218 75.9C192.885 75.7 192.585 75.5 192.318 75.3C192.052 75.0333 191.785 74.8 191.518 74.6C191.251 74.4 190.985 74.2333 190.718 74.1C190.518 73.9 190.318 73.7333 190.118 73.6H187.918C187.385 74.1333 187.085 74.6333 187.018 75.1C186.885 75.3667 186.785 75.6333 186.718 75.9C186.718 76.1667 186.685 76.4333 186.618 76.7C186.418 77.3 186.118 77.8667 185.718 78.4C185.385 79 184.818 79.5667 184.018 80.1L183.318 81L181.018 85L179.818 87.4L169.718 90.4L161.518 88.4L162.018 85.9C162.751 84.9 163.451 83.9333 164.118 83C164.851 82.0667 165.618 81.1667 166.418 80.3L168.918 77.8C169.318 77.3333 169.751 76.8667 170.218 76.4C170.751 75.9333 171.285 75.4333 171.818 74.9C172.218 74.5 172.718 73.9333 173.318 73.2C173.985 72.4 174.651 71.6 175.318 70.8C175.918 70.0667 176.552 69.3667 177.218 68.7C177.951 68.0333 178.651 67.4667 179.318 67L191.118 58.3L198.618 55.2L199.518 52.8L201.118 48.6C201.518 48.4 201.785 48.1 201.918 47.7C202.051 47.3 202.085 46.8667 202.018 46.4C201.951 45.8667 201.851 45.3333 201.718 44.8C201.585 44.2667 201.485 43.8 201.418 43.4L201.318 40.5L201.018 33.9V32.6L200.518 26.4L201.518 24L201.018 19.1L201.918 10.9L205.418 8.3L213.718 8.2L217.918 9.39999L217.218 12.8L216.418 14.8L216.718 18.1L215.018 29.9C214.618 30.9 214.552 31.6667 214.818 32.2C215.152 32.6667 215.552 32.9667 216.018 33.1C216.418 33.3 216.818 33.2333 217.218 32.9C217.685 32.5667 217.852 31.9667 217.718 31.1L221.418 29.6L232.018 28.4L234.018 36L230.718 42L218.918 44.2ZM165.918 20.2C166.118 20.4 166.218 20.2667 166.218 19.8C166.285 19.6667 166.318 19.5 166.318 19.3C166.318 19.0333 166.351 18.7333 166.418 18.4C166.418 18 166.485 17.5333 166.618 17C166.751 16.4667 167.018 16.0667 167.418 15.8C170.685 13.8667 173.785 13.9 176.718 15.9L184.418 21.6C185.018 22.2667 185.485 23.4333 185.818 25.1C186.218 26.7667 186.451 28.6667 186.518 30.8C186.651 32.8667 186.651 35.0333 186.518 37.3C186.385 39.5 186.218 41.4667 186.018 43.2C185.818 43.6667 185.418 44.4667 184.818 45.6C184.218 46.6667 183.451 47.5 182.518 48.1L169.218 56C164.885 57.2 160.585 57 156.318 55.4C154.718 55.4 153.151 54.9 151.618 53.9C150.085 52.9 149.118 51.5667 148.718 49.9C147.918 48.5667 147.451 47.2 147.318 45.8C147.251 44.3333 147.418 42.9667 147.818 41.7L155.318 24.5C155.518 24.3 155.751 24 156.018 23.6C156.285 23.2 156.551 22.7667 156.818 22.3C157.485 21.5667 158.418 20.6333 159.618 19.5L165.918 20.2ZM164.418 34.9L163.918 35.6C163.785 35.8667 163.618 36.1333 163.418 36.4C163.218 36.6 163.018 36.8667 162.818 37.2C162.418 37.8 162.051 38.4333 161.718 39.1C161.451 39.7667 161.351 40.3 161.418 40.7C161.418 41.4333 161.485 42.0667 161.618 42.6C161.618 43.0667 162.051 43.5 162.918 43.9C163.585 44.2333 164.485 44.3667 165.618 44.3H168.718C169.051 44.3667 169.451 44.4 169.918 44.4C170.451 44.3333 171.118 44.2 171.918 44C173.518 43.6 174.485 42.8667 174.818 41.8C175.018 41.2 175.085 40.6333 175.018 40.1C175.018 39.5 174.951 39 174.818 38.6C174.551 38.2667 174.418 37.9 174.418 37.5C174.285 37.0333 174.351 36.5333 174.618 36C174.618 34.4 174.785 33.2667 175.118 32.6C175.451 31.7333 175.751 31.1667 176.018 30.9C176.152 30.7 176.218 30.1667 176.218 29.3C176.218 28.4333 176.051 27.7667 175.718 27.3C175.385 26.9 174.951 26.6 174.418 26.4C173.885 26.2 173.318 26.0667 172.718 26C172.118 25.9333 171.551 25.9333 171.018 26C170.551 26 170.218 26.1 170.018 26.3L164.418 34.9ZM252.438 54.7C252.438 54.2333 252.438 53.8667 252.438 53.6C252.438 53.2667 252.371 52.8333 252.238 52.3C251.904 50.6333 251.904 47.2333 252.238 42.1C252.504 37.3 252.338 33.7333 251.738 31.4C252.004 30.3333 252.171 29.6 252.238 29.2C252.304 28.8 252.271 28.7667 252.138 29.1C251.804 29.8333 252.038 28.9 252.838 26.3C252.704 23.1 252.738 20.0333 252.938 17.1C253.138 14.1667 253.471 11.3 253.938 8.49999C254.138 7.16666 254.304 5.9 254.438 4.7C254.638 3.49999 254.771 2.33333 254.838 1.2L257.238 0.299998L269.238 1.49999L271.138 4.1L271.538 10.2C270.471 11.1333 269.738 12.1 269.338 13.1C268.938 14.1 268.704 14.8667 268.638 15.4C268.571 15.9333 268.438 16.7667 268.238 17.9C268.038 18.9667 267.704 19.7667 267.238 20.3L267.038 21.2C267.704 22.6 268.171 23.4 268.438 23.6C268.771 23.8 268.971 23.9667 269.038 24.1C269.171 23.9667 269.138 24.1 268.938 24.5C268.738 24.8333 268.371 25.4667 267.838 26.4C266.838 28.2 266.671 29 267.338 28.8C267.671 29 266.938 32.5333 265.138 39.4C264.671 41.0667 264.304 42.4 264.038 43.4C263.771 44.4 263.538 45.2 263.338 45.8C263.204 46.4 263.104 46.8333 263.038 47.1C262.971 47.3667 262.938 47.6 262.938 47.8C261.738 48.2667 260.704 48.7 259.838 49.1C258.971 49.4333 258.538 49.8 258.538 50.2C258.538 50.4 258.771 50.6333 259.238 50.9C259.704 51.1667 260.204 51.4333 260.738 51.7C261.071 51.8333 261.404 52 261.738 52.2C262.138 52.3333 262.538 52.4667 262.938 52.6L261.138 54.8L252.438 54.7ZM264.438 63.6C264.171 63.8 264.204 64 264.538 64.2C264.871 64.4 264.904 64.5 264.638 64.5L264.438 70.7L263.538 74.2C263.271 74.3333 263.038 74.4333 262.838 74.5C262.571 74.6333 262.271 74.7667 261.938 74.9C261.671 75.0333 261.338 75.1667 260.938 75.3C259.271 76.1667 258.304 76.6 258.038 76.6L254.338 74.9C251.871 73.7667 250.538 73.1 250.338 72.9C250.804 71.5 251.104 69.7 251.238 67.5C251.238 66.9667 251.238 66.5 251.238 66.1C251.304 65.7 251.338 65.3667 251.338 65.1C251.338 64.7667 251.371 64.5 251.438 64.3C251.704 64.2333 252.338 64.1333 253.338 64C254.338 63.8667 254.971 63.6667 255.238 63.4C255.238 63.5333 255.438 63.4333 255.838 63.1L256.438 62.7C256.571 62.7 256.838 62.7333 257.238 62.8C257.704 62.8667 258.404 62.9667 259.338 63.1C260.271 63.2333 260.938 63.3667 261.338 63.5C261.804 63.5667 262.071 63.6 262.138 63.6C262.538 63.6 262.804 63.6 262.938 63.6C263.138 63.5333 263.271 63.5 263.338 63.5C263.471 63.5 263.571 63.5 263.638 63.5C263.771 63.5 264.038 63.5333 264.438 63.6ZM10.9157 152.83C11.0557 152.59 11.1857 152.32 11.3057 152.02C11.4257 151.7 11.5457 151.39 11.6657 151.09L11.9357 149.59L12.5057 147.88L15.6557 147.91L16.3157 148.87L15.4457 151.51L13.6757 152.83L11.7557 153.4L10.9157 152.83ZM7.1057 150.31L8.0957 151.6L7.1657 153.25L8.2757 154.15L11.8757 154.03L15.0257 153.22L17.0057 152.83L18.1157 153.37L19.4057 153.46L19.6457 154.93L18.3857 156.22L13.6457 157.06L12.0857 157.09L11.1257 157.03L9.8657 157.42L5.5157 157.39L2.0957 157.75L0.445703 157.51L0.145703 154.9L0.865703 153.88L4.7357 154.39L4.8857 153.82L3.9257 152.71L3.5657 151.78L3.2357 150.01L6.4457 149.38L7.1057 150.31ZM9.5957 141.31L8.8157 141.34C8.5957 141.56 8.3657 141.82 8.1257 142.12C7.9057 142.42 7.6557 142.74 7.3757 143.08C6.8557 143.78 6.5357 144.47 6.4157 145.15L8.0657 146.05C8.2057 145.87 8.4257 145.7 8.7257 145.54C9.0457 145.38 9.3757 145.23 9.7157 145.09C10.0357 144.95 10.3357 144.83 10.6157 144.73C10.9157 144.63 11.1357 144.56 11.2757 144.52C11.4357 144.52 11.5357 144.43 11.5757 144.25C11.6157 144.05 11.6157 143.83 11.5757 143.59C11.5357 143.35 11.4657 143.12 11.3657 142.9C11.2857 142.66 11.1857 142.49 11.0657 142.39C10.9857 142.37 10.8857 142.35 10.7657 142.33C10.6657 142.29 10.5657 142.25 10.4657 142.21C10.3457 142.19 10.2357 142.17 10.1357 142.15C10.0357 142.13 9.9657 142.11 9.9257 142.09L9.5957 141.31ZM12.3257 147.25C11.8457 147.33 11.3557 147.48 10.8557 147.7C10.3757 147.9 9.8857 148.21 9.3857 148.63C9.2257 148.71 8.9857 148.76 8.6657 148.78C8.3457 148.8 7.9557 148.8 7.4957 148.78C7.0557 148.76 6.5657 148.72 6.0257 148.66C5.4857 148.6 4.9157 148.54 4.3157 148.48C3.9757 148.48 3.6357 148.31 3.2957 147.97C3.2357 147.91 3.1057 147.77 2.9057 147.55C2.7257 147.31 2.5257 146.93 2.3057 146.41C2.1657 146.15 2.0657 145.9 2.0057 145.66C1.9457 145.42 1.9457 145.25 2.0057 145.15C2.3657 144.57 2.7157 143.97 3.0557 143.35C3.4157 142.73 3.7457 142.13 4.0457 141.55C4.3457 140.97 4.6157 140.44 4.8557 139.96C5.0957 139.46 5.2957 139.05 5.4557 138.73L6.8657 137.77L9.0557 137.83L10.1357 138.25C10.0957 138.41 10.0457 138.59 9.9857 138.79C9.9457 138.99 9.8957 139.17 9.8357 139.33C9.7757 139.51 9.7257 139.66 9.6857 139.78C9.6457 139.9 9.6457 139.96 9.6857 139.96C9.7457 139.96 9.8257 139.91 9.9257 139.81C10.0457 139.71 10.1757 139.61 10.3157 139.51C10.4557 139.41 10.5957 139.32 10.7357 139.24C10.8957 139.16 11.0457 139.13 11.1857 139.15C11.7457 139.39 12.2657 139.57 12.7457 139.69C13.2457 139.81 13.7757 139.84 14.3357 139.78C14.4957 139.98 14.6657 140.26 14.8457 140.62C15.0457 140.96 15.2157 141.32 15.3557 141.7C15.5157 142.1 15.6357 142.49 15.7157 142.87C15.7957 143.25 15.8257 143.57 15.8057 143.83L14.9357 145.33C14.8357 145.53 14.7257 145.7 14.6057 145.84C14.4857 145.98 14.3357 146.09 14.1557 146.17L13.8257 146.35L13.3757 146.32L12.1157 146.62L12.3257 147.25ZM29.3151 143.95L30.7251 143.08C30.9051 142.92 31.0251 142.77 31.0851 142.63C31.1451 142.49 31.1151 142.35 30.9951 142.21L30.1251 142.06L24.6051 142.75L23.9151 141.25L23.7951 139.33L28.1451 138.55L32.7351 138.4L36.5751 139.39L36.8751 140.89L35.2851 142.81L34.4451 143.32C34.1251 143.82 33.8351 144.15 33.5751 144.31C33.3351 144.45 33.1351 144.55 32.9751 144.61C32.7351 144.83 32.5251 145.07 32.3451 145.33C32.1651 145.57 32.0351 145.82 31.9551 146.08L36.3351 146.59C36.5151 146.65 36.6951 146.73 36.8751 146.83C37.0551 146.93 37.2351 147.04 37.4151 147.16C37.5951 147.28 37.7651 147.42 37.9251 147.58C38.1051 147.72 38.2851 147.85 38.4651 147.97L37.0251 149.92L35.4651 149.89C35.2251 149.91 35.0151 149.97 34.8351 150.07C34.6751 150.17 34.5451 150.28 34.4451 150.4L32.7651 149.89L32.4351 149.41C32.3351 149.33 32.2251 149.22 32.1051 149.08C32.0051 148.94 31.9051 148.8 31.8051 148.66C31.7051 148.52 31.6051 148.4 31.5051 148.3C31.4051 148.18 31.3151 148.1 31.2351 148.06L30.5151 147.4L29.4951 148.99L29.0151 150.55L27.6651 152.2L25.7451 152.62L24.3351 151.57L24.4251 150.1L25.9851 147.94L26.8251 146.32L29.3151 143.95ZM43.1151 151.15L43.0551 151.36C43.0151 151.52 43.0151 151.67 43.0551 151.81C43.0551 151.99 43.1051 152.16 43.2051 152.32C43.3051 152.48 43.4751 152.59 43.7151 152.65C43.9551 152.53 44.2851 152.44 44.7051 152.38C45.1251 152.32 45.5451 152.29 45.9651 152.29C46.3851 152.29 46.7651 152.34 47.1051 152.44C47.4651 152.52 47.7151 152.62 47.8551 152.74L48.6951 154C48.7351 154.3 48.7351 154.63 48.6951 154.99C48.6551 155.33 48.6051 155.65 48.5451 155.95C48.5051 156.13 48.4751 156.3 48.4551 156.46C48.4351 156.62 48.4151 156.76 48.3951 156.88C48.3951 157.02 48.3851 157.13 48.3651 157.21C48.3651 157.31 48.3851 157.39 48.4251 157.45C48.3651 157.51 48.2751 157.58 48.1551 157.66L47.9751 157.87C47.9151 157.93 47.8551 157.99 47.7951 158.05C47.7551 158.13 47.7051 158.2 47.6451 158.26C47.5051 158.44 47.3251 158.62 47.1051 158.8C46.9051 159 46.6051 159.22 46.2051 159.46L40.2651 161.08C40.0851 161.08 39.9151 161.06 39.7551 161.02C39.6151 161 39.4551 160.96 39.2751 160.9C38.9151 160.82 38.4951 160.7 38.0151 160.54C37.7551 160.48 37.5251 160.39 37.3251 160.27C37.1451 160.15 36.9751 160.02 36.8151 159.88C36.6951 159.8 36.6051 159.73 36.5451 159.67L36.3351 159.46C36.2751 159.42 36.1951 159.35 36.0951 159.25L35.8851 159.04C35.7051 158.92 35.5651 158.81 35.4651 158.71C35.3651 158.63 35.3151 158.53 35.3151 158.41C35.2751 158.37 35.2551 158.32 35.2551 158.26V157.78C35.2551 157.64 35.2651 157.52 35.2851 157.42C35.2851 156.94 35.3351 156.56 35.4351 156.28C35.5551 156 35.7951 155.68 36.1551 155.32C36.3951 155.5 36.6451 155.52 36.9051 155.38C37.1651 155.24 37.3251 155.05 37.3851 154.81L37.5951 153.97C37.7551 153.85 37.8651 153.72 37.9251 153.58C38.0051 153.42 38.0551 153.28 38.0751 153.16C38.0751 153.1 38.0751 153.05 38.0751 153.01C38.0951 152.95 38.1051 152.89 38.1051 152.83C38.1451 152.73 38.2151 152.64 38.3151 152.56C38.5751 152.36 38.9051 152.02 39.3051 151.54C39.5851 151.38 39.8151 151.26 39.9951 151.18C40.1951 151.1 40.3651 151.03 40.5051 150.97C40.5651 150.95 40.6351 150.94 40.7151 150.94H41.4951L43.1151 151.15ZM47.4951 145.69L47.1051 147.43L46.3851 150.07L43.2351 149.11L42.7851 147.04L43.2951 145.39L42.6651 144.61L40.5951 144.82L39.7251 145.39L37.3551 145.87L35.9151 143.74L36.4851 142.72L40.5351 141.73L43.1151 141.34L43.2951 136.24L44.0751 135.46L47.3751 135.7L46.9851 138.22L47.3151 139.84L47.4951 145.69ZM31.9551 135.07L32.7051 135.97C32.7251 137.01 32.6351 137.54 32.4351 137.56C32.3351 137.56 32.2251 137.57 32.1051 137.59C32.0051 137.59 31.8851 137.6 31.7451 137.62C31.4651 137.64 31.1651 137.69 30.8451 137.77C30.5451 137.85 30.2651 137.95 30.0051 138.07L29.1951 137.17L26.7651 135.28L27.1851 134.59L30.3951 133.57L31.4151 133.75L31.9551 135.07ZM43.3251 154.27C43.3251 154.21 43.3451 154.18 43.3851 154.18C43.4251 154.16 43.4151 154.15 43.3551 154.15C43.2951 154.21 43.1651 154.27 42.9651 154.33C42.7651 154.37 42.4551 154.42 42.0351 154.48L39.8451 156.85C39.7851 156.97 39.7951 157.12 39.8751 157.3C39.9751 157.5 40.1151 157.66 40.2951 157.78C40.3351 157.96 40.4551 158.1 40.6551 158.2C40.8551 158.32 41.0851 158.38 41.3451 158.38L44.3451 157.54C44.4651 157.48 44.6051 157.36 44.7651 157.18C44.9251 157 45.0351 156.82 45.0951 156.64C45.0951 156.52 45.0651 156.39 45.0051 156.25C44.9651 156.09 44.9151 155.94 44.8551 155.8C44.8151 155.74 44.7751 155.69 44.7351 155.65C44.6951 155.59 44.6551 155.53 44.6151 155.47L44.5551 155.29C44.5351 155.25 44.5251 155.19 44.5251 155.11C44.4851 154.97 44.3051 154.79 43.9851 154.57C43.6651 154.37 43.4451 154.27 43.3251 154.27ZM51.0927 142.48L53.6727 142.3L58.5927 141.58C58.7927 141.56 59.0427 141.58 59.3427 141.64C59.6427 141.68 59.9327 141.73 60.2127 141.79C60.3527 141.83 60.4727 141.87 60.5727 141.91C60.6727 141.93 60.7627 141.96 60.8427 142C60.9227 142.04 60.9627 142.06 60.9627 142.06C61.0627 142.06 61.1527 142.05 61.2327 142.03C61.3727 141.99 61.5127 141.95 61.6527 141.91C61.8127 141.87 61.9927 141.83 62.1927 141.79C62.5927 141.71 62.9927 141.62 63.3927 141.52C63.8127 141.42 64.1327 141.33 64.3527 141.25L66.3027 142.24L66.0327 142.84C65.0127 143.6 64.1027 144.32 63.3027 145C62.5027 145.66 61.9327 146.18 61.5927 146.56C61.5127 146.68 61.4827 146.85 61.5027 147.07C61.5227 147.29 61.5927 147.42 61.7127 147.46C61.9527 147.58 62.2027 147.65 62.4627 147.67C62.7427 147.69 63.0127 147.72 63.2727 147.76C63.5527 147.8 63.8327 147.89 64.1127 148.03C64.3927 148.17 64.6827 148.4 64.9827 148.72C65.0227 148.88 65.0327 149.01 65.0127 149.11C65.0127 149.19 65.0027 149.26 64.9827 149.32C64.9027 149.46 64.8727 149.6 64.8927 149.74C64.8927 149.84 64.9027 149.91 64.9227 149.95L64.9827 150.13C65.0027 150.19 65.0227 150.25 65.0427 150.31C65.0627 150.35 65.0827 150.4 65.1027 150.46C65.1227 150.72 65.1227 150.97 65.1027 151.21C65.1027 151.45 65.0627 151.66 64.9827 151.84C64.8627 152.06 64.6227 152.3 64.2627 152.56C63.9227 152.8 63.5527 153.03 63.1527 153.25C62.7527 153.47 62.3527 153.67 61.9527 153.85C61.5727 154.03 61.2827 154.16 61.0827 154.24C60.8427 154.34 60.5827 154.47 60.3027 154.63C60.0427 154.79 59.7627 154.94 59.4627 155.08C59.1427 155.24 58.8027 155.38 58.4427 155.5C58.0827 155.6 57.7027 155.65 57.3027 155.65C56.9627 155.67 56.5727 155.67 56.1327 155.65C55.6927 155.61 55.2527 155.55 54.8127 155.47C54.3527 155.37 53.9327 155.24 53.5527 155.08C53.1727 154.92 52.8927 154.71 52.7127 154.45L52.4427 153.43C52.4227 153.25 52.4427 153.12 52.5027 153.04C52.5427 153 52.5927 152.94 52.6527 152.86C52.7327 152.78 52.8227 152.65 52.9227 152.47L55.8327 147.49C55.9727 147.37 56.1327 147.25 56.3127 147.13C56.5127 147.01 56.7027 146.89 56.8827 146.77C57.0627 146.65 57.2227 146.54 57.3627 146.44C57.5227 146.32 57.6427 146.21 57.7227 146.11C57.8827 145.93 58.0727 145.79 58.2927 145.69C58.5327 145.57 58.7627 145.46 58.9827 145.36C59.2027 145.28 59.4127 145.18 59.6127 145.06C59.8127 144.94 59.9827 144.79 60.1227 144.61C59.3227 144.57 58.8227 144.54 58.6227 144.52C58.5227 144.5 58.4127 144.49 58.2927 144.49C58.1727 144.49 58.0427 144.49 57.9027 144.49C57.6027 144.49 57.3027 144.52 57.0027 144.58C56.7227 144.62 56.5027 144.72 56.3427 144.88C56.0427 144.88 55.6627 144.93 55.2027 145.03C54.7427 145.11 54.2927 145.21 53.8527 145.33C53.3927 145.45 52.9727 145.56 52.5927 145.66C52.2327 145.76 51.9927 145.82 51.8727 145.84C51.3527 145.96 50.9427 145.99 50.6427 145.93C50.3627 145.85 50.2427 145.67 50.2827 145.39L50.5527 143.08L51.0927 142.48ZM70.5327 138.34L71.7627 138.79C71.9427 138.99 72.0527 139.34 72.0927 139.84L72.1827 140.74L72.2127 143.32L71.8227 144.76L72.3027 145.39C72.5827 145.43 72.9627 145.43 73.4427 145.39C73.6627 145.37 73.8727 145.35 74.0727 145.33C74.2927 145.31 74.4927 145.29 74.6727 145.27C74.9127 145.25 75.1127 145.22 75.2727 145.18C75.4527 145.14 75.6227 145.09 75.7827 145.03C75.9227 144.99 76.0627 144.95 76.2027 144.91C76.3627 144.87 76.5327 144.85 76.7127 144.85L77.8827 145.63L77.5227 147.58L77.0427 148.39C77.0027 148.79 76.8127 148.98 76.4727 148.96L74.8827 148.84C74.8227 148.84 74.7127 148.83 74.5527 148.81C74.4127 148.77 74.2427 148.74 74.0427 148.72C73.8427 148.68 73.6327 148.66 73.4127 148.66C73.1927 148.64 72.9827 148.64 72.7827 148.66L72.3627 148.54C72.2227 148.52 72.1127 148.56 72.0327 148.66C71.9527 148.76 71.8827 148.88 71.8227 149.02C71.7827 149.18 71.7527 149.34 71.7327 149.5C71.7327 149.66 71.7427 149.77 71.7627 149.83L71.6727 151.15L72.1227 152.2L71.9427 153.34L72.0027 155.29L68.4327 156.1L67.8027 155.59L68.0727 152.92L67.8927 150.91L68.1627 149.05L68.0127 141.61L68.6727 138.73L70.5327 138.34ZM59.5527 138.49C60.5727 139.61 60.9727 140.19 60.7527 140.23C60.6527 140.23 60.5327 140.24 60.3927 140.26C60.2527 140.26 60.1027 140.27 59.9427 140.29C59.6227 140.31 59.2927 140.36 58.9527 140.44C58.6127 140.52 58.3127 140.62 58.0527 140.74L56.7927 140.32L54.5127 137.65L54.6327 136.66L56.4927 135.79L58.8627 135.82L59.5527 138.49ZM59.4327 149.02C59.2127 149.18 58.9827 149.4 58.7427 149.68C58.5027 149.96 58.2727 150.24 58.0527 150.52C57.8127 150.82 57.6127 151.1 57.4527 151.36C57.3127 151.62 57.2327 151.81 57.2127 151.93C57.0727 152.19 57.1027 152.42 57.3027 152.62C57.4827 152.8 57.7827 152.9 58.2027 152.92C58.6227 152.92 58.9727 152.91 59.2527 152.89C59.4527 152.75 59.6827 152.6 59.9427 152.44C60.2227 152.28 60.4827 152.13 60.7227 151.99C60.9627 151.83 61.1627 151.69 61.3227 151.57C61.5027 151.43 61.6127 151.31 61.6527 151.21C61.7127 150.91 61.7327 150.68 61.7127 150.52C61.6927 150.34 61.6027 150.13 61.4427 149.89C61.3227 149.71 61.1227 149.51 60.8427 149.29C60.5627 149.07 60.3527 148.96 60.2127 148.96L59.4327 149.02ZM85.2986 148.39C85.0986 148.75 84.9286 149.04 84.7886 149.26C84.6686 149.46 84.5586 149.64 84.4586 149.8C84.3586 149.94 84.2586 150.08 84.1586 150.22C84.0786 150.36 83.9786 150.53 83.8586 150.73C83.6786 151.05 83.3986 151.27 83.0186 151.39C82.6386 151.49 82.3586 151.48 82.1786 151.36L80.0486 149.98C80.2286 149 80.5886 147.84 81.1286 146.5C81.4086 145.8 81.6986 145.13 81.9986 144.49C82.2986 143.83 82.6186 143.18 82.9586 142.54C83.0386 142.38 83.1686 142.2 83.3486 142C83.5286 141.8 83.7086 141.6 83.8886 141.4C84.0686 141.2 84.2386 141 84.3986 140.8C84.5786 140.6 84.6986 140.42 84.7586 140.26C84.8386 140.02 84.8986 139.82 84.9386 139.66C84.9986 139.5 85.0586 139.35 85.1186 139.21C85.1586 139.09 85.2086 138.98 85.2686 138.88C85.3286 138.78 85.4186 138.67 85.5386 138.55L86.8886 137.26L88.7786 136.9C88.9186 136.88 89.0786 136.93 89.2586 137.05C89.4386 137.15 89.6086 137.28 89.7686 137.44C89.9086 137.6 90.0186 137.78 90.0986 137.98C90.1786 138.16 90.1886 138.32 90.1286 138.46L88.7186 141.1L88.4186 142.21L88.7186 143.38L93.6986 145.57C94.1186 145.75 94.3786 145.99 94.4786 146.29C94.5786 146.59 94.5586 146.91 94.4186 147.25L93.4886 149.26L92.4386 149.05L91.5086 149.17L89.7386 147.91L89.3786 147.4L87.9386 146.59L87.4886 146.11L88.0286 145.48C88.0686 145.42 88.0686 145.33 88.0286 145.21C88.0086 145.07 87.9386 144.96 87.8186 144.88C87.6986 144.8 87.5286 144.78 87.3086 144.82C87.1086 144.84 86.8686 144.99 86.5886 145.27L86.3186 146.47L85.2986 148.06V148.39ZM101.739 144.13C101.679 144.57 101.659 145.07 101.679 145.63C101.699 146.19 101.769 146.68 101.889 147.1L101.259 148.06L100.629 150.19L100.119 150.49L99.4886 150.61L97.8386 151.54L97.0286 151.21L97.2086 150.49L97.4786 149.14L97.6286 148.66L97.4786 147.85L97.5986 147.13L97.4786 143.86L97.5086 143.26L97.7786 142.54L97.5386 140.8L97.7186 138.67L97.6286 137.95L97.7786 136.69L98.7086 136.27L100.629 136.84C100.869 136.86 101.069 136.86 101.229 136.84C101.409 136.82 101.579 136.79 101.739 136.75L101.799 138.7L101.739 144.13ZM96.4886 152.38C96.7286 152.42 96.8086 152.57 96.7286 152.83C96.6486 153.07 96.4986 153.26 96.2786 153.4L94.4786 154.72L93.0686 156.13C93.1286 156.29 93.2086 156.47 93.3086 156.67C93.4286 156.85 93.5386 156.94 93.6386 156.94L95.2586 157.03L96.5186 156.67H97.2086L99.1886 155.8L100.149 155.83L101.949 155.26C102.209 155.18 102.439 155.15 102.639 155.17C102.859 155.19 103.039 155.24 103.179 155.32C103.319 155.4 103.429 155.5 103.509 155.62C103.589 155.72 103.649 155.81 103.689 155.89C103.869 156.63 103.989 157.22 104.049 157.66C104.109 158.1 104.139 158.4 104.139 158.56C104.099 158.64 104.029 158.73 103.929 158.83C103.829 158.93 103.709 159.03 103.569 159.13C103.449 159.23 103.329 159.32 103.209 159.4C103.089 159.48 102.999 159.54 102.939 159.58L96.3686 159.88L92.5286 160.57L89.9786 160.72L88.3886 160.48C88.2086 160.22 88.0686 159.9 87.9686 159.52C87.8886 159.14 87.8786 158.62 87.9386 157.96L88.8986 156.43L89.1386 155.65C89.2586 155.63 89.3886 155.61 89.5286 155.59C89.6686 155.57 89.8086 155.54 89.9486 155.5C90.2686 155.46 90.5486 155.35 90.7886 155.17C90.8686 155.11 90.8686 155.04 90.7886 154.96C90.7086 154.86 90.5986 154.75 90.4586 154.63L92.6786 152.95L94.8986 152.02L96.4886 152.38ZM141.194 158.05L141.254 159.52L140.624 159.85C140.084 159.91 139.504 159.98 138.884 160.06C138.264 160.16 137.654 160.26 137.054 160.36C136.754 160.42 136.454 160.47 136.154 160.51C135.854 160.57 135.554 160.63 135.254 160.69C134.974 160.73 134.704 160.76 134.444 160.78C134.184 160.82 133.954 160.84 133.754 160.84L133.004 160.3L133.034 159.73L134.114 157.18L134.054 154.36C133.934 154.38 133.784 154.4 133.604 154.42C133.424 154.44 133.244 154.45 133.064 154.45C132.864 154.47 132.664 154.5 132.464 154.54C132.264 154.56 132.104 154.59 131.984 154.63C131.884 154.67 131.774 154.72 131.654 154.78C131.554 154.82 131.444 154.86 131.324 154.9L130.484 155.26C129.784 155.54 129.414 155.76 129.374 155.92C129.354 156.06 129.324 156.29 129.284 156.61C129.224 156.91 129.174 157.22 129.134 157.54C129.094 157.88 129.054 158.22 129.014 158.56C128.974 158.72 128.954 158.8 128.954 158.8C128.934 158.82 128.924 158.84 128.924 158.86V158.92L128.864 159.01V159.19C128.864 159.25 128.824 159.3 128.744 159.34C128.664 159.38 128.574 159.42 128.474 159.46C128.354 159.52 128.234 159.61 128.114 159.73C128.114 159.79 128.134 159.84 128.174 159.88C128.174 159.92 128.224 159.96 128.324 160C128.364 160.04 128.404 160.07 128.444 160.09C128.484 160.13 128.524 160.17 128.564 160.21C128.364 160.65 128.084 160.88 127.724 160.9C127.384 160.92 127.004 160.93 126.584 160.93C126.144 160.95 125.704 160.96 125.264 160.96C124.844 160.98 124.574 160.99 124.454 160.99L123.764 159.97L124.544 156.46C124.644 156.3 124.754 156.09 124.874 155.83C124.994 155.57 125.134 155.27 125.294 154.93L125.954 150.94L126.974 150.46L128.564 150.88L128.774 153.28C128.854 153.28 128.954 153.22 129.074 153.1C129.134 153.04 129.194 152.98 129.254 152.92C129.334 152.86 129.424 152.79 129.524 152.71C129.644 152.59 129.784 152.47 129.944 152.35C130.104 152.23 130.274 152.14 130.454 152.08L134.144 150.79C134.924 150.73 135.674 150.71 136.394 150.73C137.134 150.75 137.724 150.79 138.164 150.85L138.764 152.32L137.684 156.16L136.304 158.05L136.934 157.81L138.134 157.06L140.564 156.52L141.524 156.64L141.194 158.05ZM122.444 152.83L119.924 151.93L120.044 150.73L121.694 145.15L122.774 142.78L122.864 141.76L122.174 141.01L121.094 141.16L118.304 140.98C118.184 140.92 118.034 140.88 117.854 140.86C117.674 140.82 117.494 140.8 117.314 140.8C117.154 140.8 117.004 140.84 116.864 140.92C116.744 140.98 116.654 141.08 116.594 141.22L115.454 140.83L114.674 138.1L117.734 137.65C118.214 137.67 118.654 137.68 119.054 137.68C119.474 137.68 119.854 137.68 120.194 137.68C120.514 137.7 120.854 137.72 121.214 137.74C121.574 137.74 121.924 137.74 122.264 137.74C122.624 137.76 122.954 137.78 123.254 137.8C123.574 137.8 123.854 137.81 124.094 137.83L125.234 138.22L126.794 138.85L126.944 139.75L126.524 140.5L126.344 143.47L125.324 147.31L124.394 149.23L124.334 151.24L123.794 152.41L122.444 152.83ZM138.014 149.83L136.034 149.68L135.704 148.96L135.104 148.09L135.224 146.8L135.104 145.18L134.354 144.34L132.314 144.31L127.874 145.09L127.634 143.29L128.864 141.76L130.664 141.91L132.674 141.13L133.964 140.68C134.184 140.8 134.414 140.85 134.654 140.83C134.914 140.79 135.114 140.71 135.254 140.59C135.374 140.53 135.414 140.43 135.374 140.29C135.334 140.13 135.134 139.99 134.774 139.87L134.984 138.34L135.464 136.66L136.934 135.7L139.334 135.88L139.514 137.44L139.244 140.05L139.154 142.9C139.114 143.06 139.084 143.19 139.064 143.29C139.064 143.37 139.054 143.44 139.034 143.5C139.034 143.58 139.024 143.65 139.004 143.71C139.004 143.75 139.004 143.79 139.004 143.83C138.984 143.95 138.984 144.1 139.004 144.28C139.024 144.46 139.074 144.73 139.154 145.09L138.494 147.52L138.524 149.05L138.014 149.83ZM159.132 135.25L162.222 135.4L162.672 137.02L162.372 138.43C162.352 138.65 162.342 138.87 162.342 139.09C162.342 139.31 162.342 139.53 162.342 139.75V140.98C162.342 141.36 162.332 141.68 162.312 141.94C162.312 142.2 162.302 142.34 162.282 142.36C162.222 142.42 162.142 142.48 162.042 142.54C161.962 142.6 161.882 142.66 161.802 142.72C161.582 142.86 161.482 143 161.502 143.14C161.542 143.24 161.622 143.29 161.742 143.29C161.882 143.27 162.032 143.23 162.192 143.17C162.332 143.11 162.482 143.05 162.642 142.99C162.802 142.93 162.932 142.88 163.032 142.84L165.972 140.38L165.852 137.89L166.632 136.3L169.692 136.72L170.142 137.35L170.022 138.52L169.572 140.8L169.812 144.67L169.572 148.39C169.212 148.33 168.962 148.38 168.822 148.54C168.702 148.7 168.612 148.87 168.552 149.05V149.98L166.932 150.25L165.792 149.62L165.462 147.97L165.912 144.31L165.072 144.58L162.822 146.35L161.832 147.37L161.172 149.53L158.772 149.2L158.442 146.02L158.112 143.74L158.532 141.64L158.742 136.15L159.132 135.25ZM148.002 148.54C147.802 148.9 147.632 149.19 147.492 149.41C147.372 149.61 147.262 149.79 147.162 149.95C147.062 150.09 146.962 150.23 146.862 150.37C146.782 150.51 146.682 150.68 146.562 150.88C146.382 151.2 146.102 151.42 145.722 151.54C145.342 151.64 145.062 151.63 144.882 151.51L142.752 150.13C142.932 149.15 143.292 147.99 143.832 146.65C144.112 145.95 144.402 145.28 144.702 144.64C145.002 143.98 145.322 143.33 145.662 142.69C145.782 142.51 145.912 142.33 146.052 142.15L146.592 141.55C146.772 141.35 146.942 141.15 147.102 140.95C147.282 140.75 147.402 140.57 147.462 140.41C147.542 140.17 147.602 139.97 147.642 139.81C147.702 139.65 147.762 139.5 147.822 139.36C147.862 139.24 147.912 139.13 147.972 139.03C148.032 138.93 148.122 138.82 148.242 138.7L150.192 136.81L152.082 136.45C152.222 136.43 152.382 136.48 152.562 136.6C152.742 136.7 152.912 136.83 153.072 136.99C153.212 137.15 153.322 137.33 153.402 137.53C153.482 137.71 153.492 137.87 153.432 138.01L151.422 141.25L151.122 142.36L151.422 143.53L156.402 145.72C156.822 145.9 157.082 146.14 157.182 146.44C157.282 146.74 157.262 147.06 157.122 147.4L156.192 149.41L155.142 149.2L154.212 149.32L152.442 148.06L152.082 147.55L150.642 146.74L150.192 146.26L150.732 145.63C150.772 145.57 150.772 145.48 150.732 145.36C150.712 145.22 150.642 145.11 150.522 145.03C150.402 144.95 150.232 144.93 150.012 144.97C149.812 144.99 149.572 145.14 149.292 145.42L149.022 146.62L148.002 148.21V148.54ZM168.132 156.43C167.832 159.45 167.562 160.97 167.322 160.99C167.062 161.03 166.782 161.06 166.482 161.08C166.162 161.12 165.842 161.15 165.522 161.17C165.202 161.21 164.952 161.23 164.772 161.23C164.132 161.19 163.732 160.95 163.572 160.51C163.432 160.09 163.402 159.62 163.482 159.1C163.502 158.74 163.522 158.37 163.542 157.99C163.562 157.63 163.592 157.37 163.632 157.21C163.652 157.07 163.662 156.93 163.662 156.79C163.682 156.63 163.712 156.48 163.752 156.34C163.792 156.18 163.842 156.04 163.902 155.92C163.962 155.78 164.052 155.65 164.172 155.53C164.412 155.29 164.562 155.05 164.622 154.81C164.702 154.57 164.412 154.45 163.752 154.45L159.942 155.23L159.402 154.87L158.232 155.56L156.102 155.95L154.842 155.2C154.622 153.54 154.642 152.68 154.902 152.62C155.042 152.58 155.172 152.55 155.292 152.53C155.432 152.49 155.582 152.45 155.742 152.41C156.062 152.35 156.352 152.29 156.612 152.23C156.872 152.15 157.012 152.11 157.032 152.11L159.072 151.69C159.232 151.67 159.472 151.63 159.792 151.57C160.112 151.49 160.432 151.42 160.752 151.36C160.912 151.32 161.092 151.28 161.292 151.24C161.492 151.2 161.712 151.16 161.952 151.12L163.662 151.36L167.952 151.06L168.702 151.84C168.582 152.24 168.522 152.7 168.522 153.22C168.562 153.74 168.632 154.04 168.732 154.12C168.712 154.18 168.672 154.27 168.612 154.39C168.572 154.49 168.512 154.61 168.432 154.75C168.372 154.89 168.302 155.03 168.222 155.17C168.142 155.31 168.082 155.45 168.042 155.59L168.132 156.43ZM186.012 148.15L188.052 142.99L187.662 141.22L186.282 141.46L183.492 141.28C183.232 141.18 182.922 141.15 182.562 141.19C182.222 141.23 181.962 141.34 181.782 141.52L180.642 141.13L179.952 138.76L184.002 138.04H186.222C186.822 138.04 187.462 138.05 188.142 138.07C188.822 138.07 189.402 138.09 189.882 138.13L191.022 138.52L192.372 139.72L191.322 143.56L190.662 147.58L189.732 149.47L189.522 151.54L188.982 152.71L187.632 153.13L185.142 151.81L186.012 148.15ZM199.812 146.92L199.722 146.08L200.322 143.65V142.21L200.082 140.98C200.082 140.56 200.002 140.22 199.842 139.96C199.702 139.68 199.452 139.57 199.092 139.63L195.462 140.53C194.982 140.61 194.602 140.52 194.322 140.26C194.062 139.98 193.962 139.66 194.022 139.3L194.172 137.2L198.852 136.75C199.132 137.05 199.332 137.21 199.452 137.23C199.592 137.23 199.692 137.17 199.752 137.05C199.772 136.99 199.792 136.93 199.812 136.87C199.832 136.79 199.842 136.7 199.842 136.6C199.882 136.4 199.952 136.25 200.052 136.15L201.492 135.28C201.732 135.28 202.012 135.3 202.332 135.34C202.652 135.36 202.962 135.4 203.262 135.46C203.422 135.5 203.582 135.53 203.742 135.55C203.922 135.57 204.122 135.59 204.342 135.61L204.822 137.32L204.522 138.76L204.732 142.75L204.402 143.62L204.252 144.55L203.892 145.72L203.742 147.37L203.712 148.27L202.062 148.54L201.852 148.21L200.472 148.54L199.632 148.18L199.812 146.92ZM198.342 145.66L194.862 146.26L192.912 145.33C193.172 143.89 193.382 143.17 193.542 143.17C193.622 143.15 193.702 143.14 193.782 143.14C193.882 143.14 194.002 143.13 194.142 143.11C194.382 143.11 194.692 143.1 195.072 143.08C195.472 143.04 195.912 142.99 196.392 142.93C196.732 142.93 197.042 142.87 197.322 142.75C197.402 142.75 197.472 142.74 197.532 142.72C197.612 142.7 197.692 142.68 197.772 142.66C197.832 142.66 197.892 142.65 197.952 142.63C198.032 142.61 198.112 142.59 198.192 142.57L198.972 143.11L198.342 145.66ZM200.802 156.22L200.202 157L195.102 157.66C194.802 157.78 194.592 158.01 194.472 158.35C194.372 158.71 194.322 159.04 194.322 159.34L203.292 157.57C203.532 157.57 203.782 157.57 204.042 157.57C204.302 157.59 204.562 157.6 204.822 157.6C205.062 157.66 205.312 157.71 205.572 157.75C205.852 157.79 206.122 157.81 206.382 157.81L206.232 161.02L200.082 160.84C199.362 161.08 198.642 161.26 197.922 161.38L196.842 161.65C196.682 161.69 196.512 161.73 196.332 161.77C196.172 161.83 196.022 161.87 195.882 161.89L189.882 162.13L189.732 159.43L191.862 155.41L199.212 154.21L199.092 152.68L198.492 152.41L193.542 153.04L191.712 153.88L190.782 153.76L190.752 151.33C190.932 151.15 191.162 151 191.442 150.88C191.722 150.76 192.022 150.66 192.342 150.58L198.162 149.59L200.502 150.07L203.442 150.22C203.562 150.52 203.672 150.82 203.772 151.12C203.872 151.4 203.922 151.71 203.922 152.05L203.832 154.87L202.332 155.62L200.802 156.22ZM224.98 138.73L228.94 138.22L229.09 140.65L228.85 142.51L228.55 142.87L228.73 145.3L228.85 145.39L232.93 145.12C233.05 145.18 233.14 145.21 233.2 145.21C233.28 145.21 233.35 145.2 233.41 145.18C233.43 145.16 233.45 145.14 233.47 145.12C233.51 145.1 233.54 145.07 233.56 145.03L233.83 144.76L234.76 145.24L235 146.23C234.76 146.47 234.64 146.71 234.64 146.95L234.7 148.27L232.27 148.87C232.01 148.71 231.74 148.61 231.46 148.57C231.2 148.51 230.95 148.48 230.71 148.48C230.57 148.48 230.43 148.49 230.29 148.51C230.17 148.51 230.05 148.51 229.93 148.51C229.79 148.51 229.66 148.51 229.54 148.51C229.42 148.49 229.3 148.46 229.18 148.42L228.61 147.55L228.22 148.66L228.31 150.46L227.98 152.89L228.34 155.92L226.9 156.19C226.74 156.21 226.58 156.23 226.42 156.25C226.26 156.25 226.11 156.26 225.97 156.28C225.81 156.28 225.66 156.29 225.52 156.31C225.38 156.31 225.25 156.3 225.13 156.28C224.83 156.28 224.59 156.26 224.41 156.22C224.25 156.18 224.17 156.07 224.17 155.89L223.93 153.22C223.95 153.08 223.98 152.95 224.02 152.83C224.06 152.69 224.1 152.56 224.14 152.44C224.16 152.3 224.19 152.17 224.23 152.05C224.27 151.93 224.31 151.8 224.35 151.66C224.43 151.36 224.47 151.01 224.47 150.61L222.76 151.24L219.16 152.2L216.25 153.67L213.43 154.12C213.19 154 212.88 153.92 212.5 153.88C212.14 153.82 211.81 153.85 211.51 153.97L211.09 154.63L208.48 154.84L207.79 151.63L209.71 151.45L211.15 151.15L211.33 150.25L211.84 148.42L211.72 145.57L211.87 144.49L213.64 144.19H215.17V145.51L214.84 146.86C214.78 147.34 214.76 147.81 214.78 148.27C214.8 148.71 214.9 149.19 215.08 149.71L215.71 150.04L217.87 149.23L217.9 145.87V145.54L217.84 143.11L217.12 142.21H210.67L208.36 142.84L207.91 140.35L208.99 139.21L211.09 138.64H215.8L221.26 139.9L221.95 142.21C221.85 142.35 221.77 142.43 221.71 142.45C221.61 142.55 221.55 142.63 221.53 142.69C221.41 142.85 221.53 143.1 221.89 143.44L222.04 144.79L221.2 147.01L220.24 148.45V148.6L220.81 148.48C220.95 148.62 221.13 148.64 221.35 148.54L224.41 147.88L224.14 140.65L224.98 138.73ZM256.659 139.42C256.839 139.62 256.949 139.97 256.989 140.47L257.079 141.37L257.109 143.95L256.719 145.39L257.199 146.02C257.459 146.06 257.839 146.06 258.339 146.02C258.439 146.02 258.539 146.02 258.639 146.02C258.759 146 258.869 145.98 258.969 145.96C259.069 145.96 259.169 145.96 259.269 145.96C259.369 145.94 259.469 145.92 259.569 145.9C259.809 145.9 260.039 145.88 260.259 145.84C260.499 145.78 260.739 145.72 260.979 145.66C261.079 145.64 261.179 145.62 261.279 145.6C261.399 145.58 261.509 145.56 261.609 145.54C261.709 145.54 261.809 145.53 261.909 145.51C262.009 145.49 262.109 145.48 262.209 145.48L263.379 146.26L263.019 148.21L262.539 149.02C262.499 149.42 262.309 149.61 261.969 149.59L259.779 149.47C259.659 149.47 259.549 149.46 259.449 149.44C259.369 149.42 259.279 149.41 259.179 149.41C259.099 149.39 259.019 149.37 258.939 149.35C258.739 149.31 258.519 149.29 258.279 149.29C258.059 149.29 257.859 149.29 257.679 149.29L257.259 149.17C257.119 149.17 257.009 149.22 256.929 149.32C256.849 149.42 256.779 149.53 256.719 149.65C256.659 149.83 256.629 150 256.629 150.16C256.629 150.3 256.639 150.4 256.659 150.46L256.569 151.78L257.019 152.83L256.839 153.97L256.899 155.92L253.329 156.73L252.699 156.22L252.969 153.55L252.789 151.54L253.059 149.68L252.909 142.24L253.569 139.36L255.429 138.97L256.659 139.42ZM240.579 153.43L243.159 149.74L244.479 147.04L245.049 145.45C245.449 145.35 245.639 145.13 245.619 144.79C245.519 144.43 245.159 144.24 244.539 144.22L243.159 144.46L240.369 144.28C240.109 144.18 239.799 144.15 239.439 144.19C239.099 144.23 238.839 144.34 238.659 144.52L237.519 144.13L236.739 141.4L240.249 141.01H242.799C243.499 141.01 244.209 141.02 244.929 141.04C245.669 141.06 246.279 141.09 246.759 141.13L247.809 141.73L249.459 142.15L249.819 143.26L249.399 143.8L248.199 147.16L247.059 150.25L245.709 152.47L245.139 154.03L244.659 155.11C244.399 155.37 244.169 155.5 243.969 155.5C243.909 155.54 243.849 155.56 243.789 155.56C243.729 155.56 243.669 155.56 243.609 155.56C243.549 155.56 243.489 155.56 243.429 155.56C243.389 155.54 243.349 155.53 243.309 155.53L240.669 154.87L240.579 153.43ZM279.863 138.31C279.923 138.33 279.953 138.29 279.953 138.19C279.973 138.07 279.993 137.93 280.013 137.77C280.013 137.63 280.033 137.49 280.073 137.35C280.113 137.19 280.193 137.07 280.313 136.99C281.313 136.41 282.243 136.42 283.103 137.02L285.413 138.73C285.613 138.95 285.753 139.3 285.833 139.78C285.913 140.18 285.973 140.6 286.013 141.04L289.223 141.07C289.583 140.95 289.823 140.72 289.943 140.38L292.373 140.35L292.523 139.33L292.853 137.5L294.113 136.66L296.333 136.72L296.753 139.45L296.453 142.93C296.333 142.93 296.233 142.96 296.153 143.02C296.073 143.06 296.043 143.19 296.063 143.41V146.2L295.673 146.89L294.593 148.27L292.403 148.03L292.313 144.19C292.293 143.95 292.193 143.76 292.013 143.62C291.853 143.46 291.603 143.37 291.263 143.35L289.223 144.07L286.013 144.28C285.993 144.44 285.973 144.6 285.953 144.76C285.933 144.92 285.913 145.07 285.893 145.21C285.873 145.29 285.833 145.43 285.773 145.63C285.713 145.81 285.633 146 285.533 146.2C285.453 146.42 285.353 146.64 285.233 146.86C285.113 147.06 284.983 147.2 284.843 147.28L280.853 149.05C279.553 149.39 278.263 149.33 276.983 148.87C276.503 148.87 276.033 148.72 275.573 148.42C275.113 148.12 274.823 147.72 274.703 147.22C274.483 146.82 274.353 146.41 274.313 145.99C274.273 145.55 274.313 145.14 274.433 144.76L276.683 139.6C276.763 139.52 276.833 139.43 276.893 139.33C276.973 139.21 277.053 139.08 277.133 138.94C277.233 138.82 277.343 138.69 277.463 138.55C277.603 138.41 277.773 138.26 277.973 138.1L279.863 138.31ZM290.663 152.26L292.313 150.76L293.873 149.05L296.243 148.87L296.813 149.38C296.873 149.8 296.653 150.41 296.153 151.21C295.653 152.01 294.943 152.89 294.023 153.85C293.663 153.95 293.443 154.05 293.363 154.15C293.283 154.23 293.263 154.32 293.303 154.42C293.363 154.54 293.443 154.65 293.543 154.75C293.643 154.85 293.703 154.95 293.723 155.05L295.163 155.17L296.363 155.44L298.943 156.61L300.143 157.36V158.89C299.863 158.87 299.583 158.85 299.303 158.83C299.043 158.83 298.783 158.89 298.523 159.01L297.053 159.85L296.273 159.58L293.843 157.69L293.693 157.24L293.783 156.82C293.943 156.76 293.993 156.69 293.933 156.61C293.893 156.53 293.783 156.39 293.603 156.19C293.203 156.11 292.853 156.11 292.553 156.19C292.453 156.23 292.323 156.29 292.163 156.37L291.803 156.55L289.583 159.01L286.763 161.05L285.083 161.23L284.663 160.87L285.203 159.79L283.703 160L278.753 161.26H277.643L277.463 160.6L276.743 157.51L277.073 154.24L277.283 153.61L277.613 152.74L277.823 150.07L280.463 150.34L280.763 150.73L280.643 152.35L280.973 152.74L283.103 151.9L284.693 152.05C284.753 151.91 284.803 151.79 284.843 151.69C284.903 151.59 284.943 151.5 284.963 151.42C285.003 151.3 285.023 151.22 285.023 151.18V150.82L284.843 149.65L285.023 148.9L287.873 148.21L288.593 148.54C288.453 148.74 288.323 148.95 288.203 149.17C288.103 149.39 288.033 149.7 287.993 150.1L288.353 151.6L288.083 154.24L288.053 155.26C288.093 155.18 288.133 155.11 288.173 155.05C288.233 154.99 288.283 154.92 288.323 154.84C288.423 154.72 288.573 154.58 288.773 154.42C288.993 154.26 289.323 154.09 289.763 153.91L290.663 152.26ZM279.413 142.72C279.313 142.86 279.223 142.99 279.143 143.11C279.063 143.21 278.993 143.31 278.933 143.41C278.813 143.59 278.703 143.78 278.603 143.98C278.523 144.18 278.493 144.34 278.513 144.46C278.513 144.58 278.513 144.69 278.513 144.79C278.533 144.87 278.553 144.95 278.573 145.03C278.593 145.17 278.723 145.3 278.963 145.42C279.163 145.54 279.433 145.58 279.773 145.54C279.913 145.54 280.063 145.54 280.223 145.54C280.383 145.52 280.543 145.52 280.703 145.54C280.903 145.58 281.173 145.55 281.513 145.45C281.873 145.33 282.113 145.11 282.233 144.79C282.293 144.59 282.333 144.41 282.353 144.25C282.373 144.09 282.383 143.95 282.383 143.83V143.47C282.383 143.35 282.413 143.21 282.473 143.05L282.533 142.21C282.553 142.19 282.573 142.16 282.593 142.12C282.633 142.06 282.673 142 282.713 141.94C282.733 141.88 282.753 141.81 282.773 141.73C282.813 141.65 282.853 141.58 282.893 141.52C282.933 141.46 282.953 141.3 282.953 141.04C282.953 140.78 282.903 140.58 282.803 140.44C282.703 140.32 282.573 140.23 282.413 140.17C282.253 140.11 282.083 140.07 281.903 140.05C281.723 140.03 281.553 140.03 281.393 140.05C281.253 140.05 281.153 140.08 281.093 140.14L279.413 142.72ZM282.593 154.99L280.643 155.59L280.853 157.81L281.123 158.8C281.423 158.74 281.583 158.66 281.603 158.56C281.643 158.46 281.613 158.35 281.513 158.23L283.193 157.75L284.273 157.54L284.603 156.04C285.023 155.94 285.263 155.77 285.323 155.53C285.383 155.27 285.353 155.11 285.233 155.05L282.593 154.99ZM309.74 149.74L310.52 151.54V153.37L314.12 152.29L316.88 151.96L317.21 150.85L317.15 150.28L317.18 148.93L320.54 149.02L321.11 150.19L320.15 155.68L320.78 156.61L320.72 158.32L319.34 159.82L318.41 160.15L317 159.4L311.27 160.78L307.07 160.75L306.32 158.8L306.62 156.7L306.14 152.44L306.53 150.31L309.74 149.74ZM309.95 133.9L313.01 133.72C313.25 133.74 313.41 133.85 313.49 134.05C313.57 134.25 313.57 134.47 313.49 134.71L313.07 135.7C312.99 135.84 312.92 135.95 312.86 136.03C312.82 136.09 312.75 136.17 312.65 136.27C312.57 136.33 312.5 136.39 312.44 136.45C312.38 136.51 312.31 136.59 312.23 136.69C312.17 136.77 312.1 136.86 312.02 136.96C311.94 137.04 311.87 137.14 311.81 137.26L309.92 138.37L309.95 138.73C310.49 138.69 311.05 138.65 311.63 138.61C312.21 138.55 312.78 138.48 313.34 138.4C313.9 138.34 314.42 138.29 314.9 138.25C315.4 138.21 315.83 138.18 316.19 138.16L322.88 140.86L321.92 142.66C321.44 142.68 321.05 142.72 320.75 142.78C320.47 142.84 320.22 142.89 320 142.93C319.76 142.99 319.53 143.04 319.31 143.08C319.09 143.1 318.86 143.09 318.62 143.05L316.79 142.84L316.34 142.33L313.88 141.58C313.78 141.58 313.68 141.56 313.58 141.52C313.5 141.48 313.42 141.45 313.34 141.43C313.24 141.39 313.15 141.35 313.07 141.31C312.99 141.25 312.91 141.2 312.83 141.16C312.65 141.08 312.47 141 312.29 140.92C312.13 140.84 311.96 140.79 311.78 140.77C311.48 140.81 311.19 140.79 310.91 140.71C310.81 140.71 310.71 140.71 310.61 140.71C310.53 140.69 310.45 140.68 310.37 140.68C310.27 140.66 310.18 140.65 310.1 140.65C310.02 140.63 309.94 140.61 309.86 140.59C309.8 140.59 309.69 140.67 309.53 140.83C309.37 140.97 309.19 141.14 308.99 141.34C308.73 141.58 308.45 141.81 308.15 142.03C307.87 142.23 307.61 142.38 307.37 142.48L307.22 142.78L306.53 142.96L306.02 143.62L304.46 145.21L302.18 144.58L304.58 140.35L308.72 135.28L309.95 133.9ZM320.24 144.58L322.16 144.85L322.79 146.29V147.07C322.79 147.29 322.51 147.47 321.95 147.61C321.85 147.63 321.66 147.65 321.38 147.67C321.1 147.67 320.78 147.68 320.42 147.7C320.06 147.74 319.68 147.78 319.28 147.82C318.88 147.84 318.51 147.86 318.17 147.88L311.66 148.72L311.69 148.24L310.28 148.63L305.69 149.38L304.28 149.71L303.26 149.59L302.24 148.36L301.88 146.68L302.54 145.96L304.28 145.75L306.62 145.9L308.48 145.51L310.01 145.6L315.14 145.06L320.24 144.58ZM310.55 157.27L311.27 157.84L316.01 157L316.4 154.96L315.53 154.48L312.17 155.44L310.55 155.35V157.27ZM330.48 140.86L332.01 145.36L331.11 149.89C331.07 150.11 331.06 150.27 331.08 150.37C331.1 150.45 331.16 150.52 331.26 150.58C331.38 150.68 331.54 150.74 331.74 150.76C331.94 150.76 332.11 150.73 332.25 150.67L334.44 149.95L336.33 149.77L341.61 147.28C341.61 146.96 341.66 146.62 341.76 146.26V142.42L342.75 138.52L343.98 138.34L345.72 138.79C345.9 138.97 345.96 139.19 345.9 139.45C345.86 139.71 345.87 140.04 345.93 140.44L345.96 143.02L346.11 148.24L345.51 149.53L345.87 151.9L346.05 155.89L345.15 156.55L341.31 156.73L341.34 155.62L341.58 154.93L341.76 153.13L341.94 150.13L341.79 148.87L339.45 151.27L336.66 153.31L330.39 153.85L327.3 152.65C327.08 152.11 326.93 151.62 326.85 151.18C326.77 150.72 326.71 150.27 326.67 149.83C326.65 149.37 326.65 148.89 326.67 148.39C326.69 147.89 326.7 147.32 326.7 146.68L326.76 143.29L327.33 142.6L327.6 140.53L330.48 140.86ZM367.998 138.94L369.228 139.39C369.408 139.57 369.508 139.79 369.528 140.05C369.548 140.31 369.588 140.74 369.648 141.34L369.678 143.92L369.288 145.36L369.768 145.99C370.048 146.03 370.428 146.03 370.908 145.99C371.128 145.97 371.338 145.95 371.538 145.93C371.758 145.91 371.958 145.89 372.138 145.87C372.578 145.85 373.048 145.77 373.548 145.63C373.768 145.59 373.978 145.55 374.178 145.51C374.398 145.47 374.598 145.45 374.778 145.45L375.948 146.23L375.588 148.18L375.108 148.99C375.068 149.39 374.878 149.58 374.538 149.56L372.348 149.44C372.288 149.44 372.178 149.43 372.018 149.41C371.878 149.37 371.708 149.34 371.508 149.32C371.308 149.28 371.098 149.26 370.878 149.26C370.658 149.24 370.448 149.24 370.248 149.26L369.828 149.14C369.688 149.12 369.578 149.16 369.498 149.26C369.418 149.36 369.348 149.48 369.288 149.62C369.248 149.78 369.218 149.94 369.198 150.1C369.198 150.26 369.208 150.37 369.228 150.43L369.138 151.75L369.588 152.8L369.408 153.94L369.468 155.89L365.898 156.7L365.268 156.19L365.538 153.52L365.358 151.51L365.448 150.76L364.458 151.6L362.748 152.95L361.128 153.7L357.438 155.29L352.998 155.71L351.588 154.75C351.348 153.99 351.148 153.26 350.988 152.56C350.848 151.86 350.808 151.18 350.868 150.52L352.188 144.79L351.108 144.19C351.228 144.17 351.298 144.09 351.318 143.95C351.338 143.81 351.308 143.68 351.228 143.56C351.168 143.44 351.048 143.35 350.868 143.29C350.708 143.23 350.518 143.24 350.298 143.32C349.958 143.16 349.678 143.03 349.458 142.93C349.238 142.81 349.078 142.72 348.978 142.66C348.658 142.46 348.468 142.28 348.408 142.12C348.348 141.94 348.358 141.7 348.438 141.4L348.738 140.05L351.888 140.59L354.348 139.84L359.538 140.2L360.888 139.99L362.388 140.53L362.358 141.31L361.638 142.06L360.858 144.07L356.208 144.34L354.768 145.03L355.428 149.71L354.378 150.7L355.518 151.51C355.898 151.81 356.228 151.97 356.508 151.99C356.808 151.99 357.088 151.96 357.348 151.9L358.728 151.3L361.668 151.15L365.598 149.08L365.478 142.21L366.138 139.33L367.998 138.94ZM389.034 140.5L394.494 139.51L401.814 139.72L401.454 142.12L399.084 143.44L397.254 143.41L397.014 143.74L397.194 144.31C397.214 144.81 397.254 145.34 397.314 145.9C397.374 146.44 397.434 147 397.494 147.58C397.574 148.14 397.634 148.7 397.674 149.26C397.734 149.82 397.764 150.35 397.764 150.85L397.164 151.66H393.534L392.904 151.3L393.114 147.79L393.564 145.6L394.674 143.74L394.404 143.62L390.624 144.28L389.664 144.67L386.544 144.7L383.124 145.33L381.534 145.12L380.964 142.9L381.684 142.12L381.894 140.71L389.034 140.5ZM386.214 145.99L388.374 145.66L389.514 146.5L389.004 148.18L389.424 149.71L388.644 152.02L384.744 152.2L384.504 151.72L385.044 150.88L386.214 145.99ZM419.034 140.5L424.494 139.51L431.814 139.72L431.454 142.12L429.084 143.44L427.254 143.41L427.014 143.74L427.194 144.31C427.214 144.81 427.254 145.34 427.314 145.9C427.374 146.44 427.434 147 427.494 147.58C427.574 148.14 427.634 148.7 427.674 149.26C427.734 149.82 427.764 150.35 427.764 150.85L427.164 151.66H423.534L422.904 151.3L423.114 147.79L423.564 145.6L424.674 143.74L424.404 143.62L420.624 144.28L419.664 144.67L416.544 144.7L413.124 145.33L411.534 145.12L410.964 142.9L411.684 142.12L411.894 140.71L419.034 140.5ZM416.214 145.99L418.374 145.66L419.514 146.5L419.004 148.18L419.424 149.71L418.644 152.02L414.744 152.2L414.504 151.72L415.044 150.88L416.214 145.99Z" fill="black"/>
</svg>
