<svg width="634" height="227" viewBox="0 0 634 227" fill="none" xmlns="http://www.w3.org/2000/svg">
<path d="M318.918 78.2C317.918 78 317.118 77.9667 316.518 78.1C315.918 78.2333 315.451 78.4 315.118 78.6C314.785 78.8667 314.552 79.1667 314.418 79.5C314.285 79.9 314.218 80.1333 314.218 80.2L312.418 84.9L308.218 88.7L307.218 88.3C306.018 87.8333 305.052 87.9667 304.318 88.7L304.018 89L305.518 91.8L296.818 98.5C296.685 98.5667 296.518 98.7 296.318 98.9L295.918 99.3C295.785 99.4333 295.652 99.6 295.518 99.8C295.385 99.9333 295.285 100.033 295.218 100.1C294.951 100.5 294.618 100.833 294.218 101.1C293.885 101.3 293.518 101.5 293.118 101.7L289.818 103.6L290.318 103.9C291.318 104.167 292.385 104.433 293.518 104.7C294.651 104.9 295.785 105.133 296.918 105.4C298.051 105.6 299.185 105.833 300.318 106.1C301.452 106.3 302.585 106.467 303.718 106.6C305.851 107 307.751 107.3 309.418 107.5C311.151 107.633 312.418 107.6 313.218 107.4L317.118 108.3L327.218 113C327.551 113.6 327.718 114.167 327.718 114.7C327.718 115.233 327.618 115.7 327.418 116.1L322.918 121.4C320.718 120.4 318.785 119.867 317.118 119.8C315.518 119.8 314.052 119.967 312.718 120.3C311.985 120.5 311.285 120.7 310.618 120.9C310.018 121.1 309.418 121.267 308.818 121.4C307.551 121.733 306.485 121.7 305.618 121.3L297.418 112.1C296.418 111.967 295.585 111.7 294.918 111.3C294.318 110.967 293.751 110.5 293.218 109.9C292.885 109.7 292.585 109.5 292.318 109.3C292.052 109.033 291.785 108.8 291.518 108.6C291.251 108.4 290.985 108.233 290.718 108.1C290.518 107.9 290.318 107.733 290.118 107.6H287.918C287.385 108.133 287.085 108.633 287.018 109.1C286.885 109.367 286.785 109.633 286.718 109.9C286.718 110.167 286.685 110.433 286.618 110.7C286.418 111.3 286.118 111.867 285.718 112.4C285.385 113 284.818 113.567 284.018 114.1L283.318 115L281.018 119L279.818 121.4L269.718 124.4L261.518 122.4L262.018 119.9C262.751 118.9 263.451 117.933 264.118 117C264.851 116.067 265.618 115.167 266.418 114.3L268.918 111.8C269.318 111.333 269.751 110.867 270.218 110.4C270.751 109.933 271.285 109.433 271.818 108.9C272.218 108.5 272.718 107.933 273.318 107.2C273.985 106.4 274.651 105.6 275.318 104.8C275.918 104.067 276.552 103.367 277.218 102.7C277.951 102.033 278.651 101.467 279.318 101L291.118 92.3L298.618 89.2L299.518 86.8L301.118 82.6C301.518 82.4 301.785 82.1 301.918 81.7C302.051 81.3 302.085 80.8667 302.018 80.4C301.951 79.8667 301.851 79.3333 301.718 78.8C301.585 78.2667 301.485 77.8 301.418 77.4L301.318 74.5L301.018 67.9V66.6L300.518 60.4L301.518 58L301.018 53.1L301.918 44.9L305.418 42.3L313.718 42.2L317.918 43.4L317.218 46.8L316.418 48.8L316.718 52.1L315.018 63.9C314.618 64.9 314.552 65.6667 314.818 66.2C315.152 66.6667 315.552 66.9667 316.018 67.1C316.418 67.3 316.818 67.2333 317.218 66.9C317.685 66.5667 317.852 65.9667 317.718 65.1L321.418 63.6L332.018 62.4L334.018 70L330.718 76L318.918 78.2ZM265.918 54.2C266.118 54.4 266.218 54.2667 266.218 53.8C266.285 53.6667 266.318 53.5 266.318 53.3C266.318 53.0333 266.351 52.7333 266.418 52.4C266.418 52 266.485 51.5333 266.618 51C266.751 50.4667 267.018 50.0667 267.418 49.8C270.685 47.8667 273.785 47.9 276.718 49.9L284.418 55.6C285.018 56.2667 285.485 57.4333 285.818 59.1C286.218 60.7667 286.451 62.6667 286.518 64.8C286.651 66.8667 286.651 69.0333 286.518 71.3C286.385 73.5 286.218 75.4667 286.018 77.2C285.818 77.6667 285.418 78.4667 284.818 79.6C284.218 80.6667 283.451 81.5 282.518 82.1L269.218 90C264.885 91.2 260.585 91 256.318 89.4C254.718 89.4 253.151 88.9 251.618 87.9C250.085 86.9 249.118 85.5667 248.718 83.9C247.918 82.5667 247.451 81.2 247.318 79.8C247.251 78.3333 247.418 76.9667 247.818 75.7L255.318 58.5C255.518 58.3 255.751 58 256.018 57.6C256.285 57.2 256.551 56.7667 256.818 56.3C257.485 55.5667 258.418 54.6333 259.618 53.5L265.918 54.2ZM264.418 68.9L263.918 69.6C263.785 69.8667 263.618 70.1333 263.418 70.4C263.218 70.6 263.018 70.8667 262.818 71.2C262.418 71.8 262.051 72.4333 261.718 73.1C261.451 73.7667 261.351 74.3 261.418 74.7C261.418 75.4333 261.485 76.0667 261.618 76.6C261.618 77.0667 262.051 77.5 262.918 77.9C263.585 78.2333 264.485 78.3667 265.618 78.3H268.718C269.051 78.3667 269.451 78.4 269.918 78.4C270.451 78.3333 271.118 78.2 271.918 78C273.518 77.6 274.485 76.8667 274.818 75.8C275.018 75.2 275.085 74.6333 275.018 74.1C275.018 73.5 274.951 73 274.818 72.6C274.551 72.2667 274.418 71.9 274.418 71.5C274.285 71.0333 274.351 70.5333 274.618 70C274.618 68.4 274.785 67.2667 275.118 66.6C275.451 65.7333 275.751 65.1667 276.018 64.9C276.152 64.7 276.218 64.1667 276.218 63.3C276.218 62.4333 276.051 61.7667 275.718 61.3C275.385 60.9 274.951 60.6 274.418 60.4C273.885 60.2 273.318 60.0667 272.718 60C272.118 59.9333 271.551 59.9333 271.018 60C270.551 60 270.218 60.1 270.018 60.3L264.418 68.9ZM352.438 88.7C352.438 88.2333 352.438 87.8667 352.438 87.6C352.438 87.2667 352.371 86.8333 352.238 86.3C351.904 84.6333 351.904 81.2333 352.238 76.1C352.504 71.3 352.338 67.7333 351.738 65.4C352.004 64.3333 352.171 63.6 352.238 63.2C352.304 62.8 352.271 62.7667 352.138 63.1C351.804 63.8333 352.038 62.9 352.838 60.3C352.704 57.1 352.738 54.0333 352.938 51.1C353.138 48.1667 353.471 45.3 353.938 42.5C354.138 41.1667 354.304 39.9 354.438 38.7C354.638 37.5 354.771 36.3333 354.838 35.2L357.238 34.3L369.238 35.5L371.138 38.1L371.538 44.2C370.471 45.1333 369.738 46.1 369.338 47.1C368.938 48.1 368.704 48.8667 368.638 49.4C368.571 49.9333 368.438 50.7667 368.238 51.9C368.038 52.9667 367.704 53.7667 367.238 54.3L367.038 55.2C367.704 56.6 368.171 57.4 368.438 57.6C368.771 57.8 368.971 57.9667 369.038 58.1C369.171 57.9667 369.138 58.1 368.938 58.5C368.738 58.8333 368.371 59.4667 367.838 60.4C366.838 62.2 366.671 63 367.338 62.8C367.671 63 366.938 66.5333 365.138 73.4C364.671 75.0667 364.304 76.4 364.038 77.4C363.771 78.4 363.538 79.2 363.338 79.8C363.204 80.4 363.104 80.8333 363.038 81.1C362.971 81.3667 362.938 81.6 362.938 81.8C361.738 82.2667 360.704 82.7 359.838 83.1C358.971 83.4333 358.538 83.8 358.538 84.2C358.538 84.4 358.771 84.6333 359.238 84.9C359.704 85.1667 360.204 85.4333 360.738 85.7C361.071 85.8333 361.404 86 361.738 86.2C362.138 86.3333 362.538 86.4667 362.938 86.6L361.138 88.8L352.438 88.7ZM364.438 97.6C364.171 97.8 364.204 98 364.538 98.2C364.871 98.4 364.904 98.5 364.638 98.5L364.438 104.7L363.538 108.2C363.271 108.333 363.038 108.433 362.838 108.5C362.571 108.633 362.271 108.767 361.938 108.9C361.671 109.033 361.338 109.167 360.938 109.3C359.271 110.167 358.304 110.6 358.038 110.6L354.338 108.9C351.871 107.767 350.538 107.1 350.338 106.9C350.804 105.5 351.104 103.7 351.238 101.5C351.238 100.967 351.238 100.5 351.238 100.1C351.304 99.7 351.338 99.3667 351.338 99.1C351.338 98.7667 351.371 98.5 351.438 98.3C351.704 98.2333 352.338 98.1333 353.338 98C354.338 97.8667 354.971 97.6667 355.238 97.4C355.238 97.5333 355.438 97.4333 355.838 97.1L356.438 96.7C356.571 96.7 356.838 96.7333 357.238 96.8C357.704 96.8667 358.404 96.9667 359.338 97.1C360.271 97.2333 360.938 97.3667 361.338 97.5C361.804 97.5667 362.071 97.6 362.138 97.6C362.538 97.6 362.804 97.6 362.938 97.6C363.138 97.5333 363.271 97.5 363.338 97.5C363.471 97.5 363.571 97.5 363.638 97.5C363.771 97.5 364.038 97.5333 364.438 97.6ZM19.9929 186.83C20.1329 186.59 20.2629 186.32 20.3829 186.02C20.5029 185.7 20.6229 185.39 20.7429 185.09L21.0129 183.59L21.5829 181.88L24.7329 181.91L25.3929 182.87L24.5229 185.51L22.7529 186.83L20.8329 187.4L19.9929 186.83ZM16.1829 184.31L17.1729 185.6L16.2429 187.25L17.3529 188.15L20.9529 188.03L24.1029 187.22L26.0829 186.83L27.1929 187.37L28.4829 187.46L28.7229 188.93L27.4629 190.22L22.7229 191.06L21.1629 191.09L20.2029 191.03L18.9429 191.42L14.5929 191.39L11.1729 191.75L9.52285 191.51L9.22285 188.9L9.94285 187.88L13.8129 188.39L13.9629 187.82L13.0029 186.71L12.6429 185.78L12.3129 184.01L15.5229 183.38L16.1829 184.31ZM18.6729 175.31L17.8929 175.34C17.6729 175.56 17.4429 175.82 17.2029 176.12C16.9829 176.42 16.7329 176.74 16.4529 177.08C15.9329 177.78 15.6129 178.47 15.4929 179.15L17.1429 180.05C17.2829 179.87 17.5029 179.7 17.8029 179.54C18.1229 179.38 18.4529 179.23 18.7929 179.09C19.1129 178.95 19.4129 178.83 19.6929 178.73C19.9929 178.63 20.2129 178.56 20.3529 178.52C20.5129 178.52 20.6129 178.43 20.6529 178.25C20.6929 178.05 20.6929 177.83 20.6529 177.59C20.6129 177.35 20.5429 177.12 20.4429 176.9C20.3629 176.66 20.2629 176.49 20.1429 176.39C20.0629 176.37 19.9629 176.35 19.8429 176.33C19.7429 176.29 19.6429 176.25 19.5429 176.21C19.4229 176.19 19.3129 176.17 19.2129 176.15C19.1129 176.13 19.0429 176.11 19.0029 176.09L18.6729 175.31ZM21.4029 181.25C20.9229 181.33 20.4329 181.48 19.9329 181.7C19.4529 181.9 18.9629 182.21 18.4629 182.63C18.3029 182.71 18.0629 182.76 17.7429 182.78C17.4229 182.8 17.0329 182.8 16.5729 182.78C16.1329 182.76 15.6429 182.72 15.1029 182.66C14.5629 182.6 13.9929 182.54 13.3929 182.48C13.0529 182.48 12.7129 182.31 12.3729 181.97C12.3129 181.91 12.1829 181.77 11.9829 181.55C11.8029 181.31 11.6029 180.93 11.3829 180.41C11.2429 180.15 11.1429 179.9 11.0829 179.66C11.0229 179.42 11.0229 179.25 11.0829 179.15C11.4429 178.57 11.7929 177.97 12.1329 177.35C12.4929 176.73 12.8229 176.13 13.1229 175.55C13.4229 174.97 13.6929 174.44 13.9329 173.96C14.1729 173.46 14.3729 173.05 14.5329 172.73L15.9429 171.77L18.1329 171.83L19.2129 172.25C19.1729 172.41 19.1229 172.59 19.0629 172.79C19.0229 172.99 18.9729 173.17 18.9129 173.33C18.8529 173.51 18.8029 173.66 18.7629 173.78C18.7229 173.9 18.7229 173.96 18.7629 173.96C18.8229 173.96 18.9029 173.91 19.0029 173.81C19.1229 173.71 19.2529 173.61 19.3929 173.51C19.5329 173.41 19.6729 173.32 19.8129 173.24C19.9729 173.16 20.1229 173.13 20.2629 173.15C20.8229 173.39 21.3429 173.57 21.8229 173.69C22.3229 173.81 22.8529 173.84 23.4129 173.78C23.5729 173.98 23.7429 174.26 23.9229 174.62C24.1229 174.96 24.2929 175.32 24.4329 175.7C24.5929 176.1 24.7129 176.49 24.7929 176.87C24.8729 177.25 24.9029 177.57 24.8829 177.83L24.0129 179.33C23.9129 179.53 23.8029 179.7 23.6829 179.84C23.5629 179.98 23.4129 180.09 23.2329 180.17L22.9029 180.35L22.4529 180.32L21.1929 180.62L21.4029 181.25ZM38.3922 177.95L39.8022 177.08C39.9822 176.92 40.1022 176.77 40.1622 176.63C40.2222 176.49 40.1922 176.35 40.0722 176.21L39.2022 176.06L33.6822 176.75L32.9922 175.25L32.8722 173.33L37.2222 172.55L41.8122 172.4L45.6522 173.39L45.9522 174.89L44.3622 176.81L43.5222 177.32C43.2022 177.82 42.9122 178.15 42.6522 178.31C42.4122 178.45 42.2122 178.55 42.0522 178.61C41.8122 178.83 41.6022 179.07 41.4222 179.33C41.2422 179.57 41.1122 179.82 41.0322 180.08L45.4122 180.59C45.5922 180.65 45.7722 180.73 45.9522 180.83C46.1322 180.93 46.3122 181.04 46.4922 181.16C46.6722 181.28 46.8422 181.42 47.0022 181.58C47.1822 181.72 47.3622 181.85 47.5422 181.97L46.1022 183.92L44.5422 183.89C44.3022 183.91 44.0922 183.97 43.9122 184.07C43.7522 184.17 43.6222 184.28 43.5222 184.4L41.8422 183.89L41.5122 183.41C41.4122 183.33 41.3022 183.22 41.1822 183.08C41.0822 182.94 40.9822 182.8 40.8822 182.66C40.7822 182.52 40.6822 182.4 40.5822 182.3C40.4822 182.18 40.3922 182.1 40.3122 182.06L39.5922 181.4L38.5722 182.99L38.0922 184.55L36.7422 186.2L34.8222 186.62L33.4122 185.57L33.5022 184.1L35.0622 181.94L35.9022 180.32L38.3922 177.95ZM52.1922 185.15L52.1322 185.36C52.0922 185.52 52.0922 185.67 52.1322 185.81C52.1322 185.99 52.1822 186.16 52.2822 186.32C52.3822 186.48 52.5522 186.59 52.7922 186.65C53.0322 186.53 53.3622 186.44 53.7822 186.38C54.2022 186.32 54.6222 186.29 55.0422 186.29C55.4622 186.29 55.8422 186.34 56.1822 186.44C56.5422 186.52 56.7922 186.62 56.9322 186.74L57.7722 188C57.8122 188.3 57.8122 188.63 57.7722 188.99C57.7322 189.33 57.6822 189.65 57.6222 189.95C57.5822 190.13 57.5522 190.3 57.5322 190.46C57.5122 190.62 57.4922 190.76 57.4722 190.88C57.4722 191.02 57.4622 191.13 57.4422 191.21C57.4422 191.31 57.4622 191.39 57.5022 191.45C57.4422 191.51 57.3522 191.58 57.2322 191.66L57.0522 191.87C56.9922 191.93 56.9322 191.99 56.8722 192.05C56.8322 192.13 56.7822 192.2 56.7222 192.26C56.5822 192.44 56.4022 192.62 56.1822 192.8C55.9822 193 55.6822 193.22 55.2822 193.46L49.3422 195.08C49.1622 195.08 48.9922 195.06 48.8322 195.02C48.6922 195 48.5322 194.96 48.3522 194.9C47.9922 194.82 47.5722 194.7 47.0922 194.54C46.8322 194.48 46.6022 194.39 46.4022 194.27C46.2222 194.15 46.0522 194.02 45.8922 193.88C45.7722 193.8 45.6822 193.73 45.6222 193.67L45.4122 193.46C45.3522 193.42 45.2722 193.35 45.1722 193.25L44.9622 193.04C44.7822 192.92 44.6422 192.81 44.5422 192.71C44.4422 192.63 44.3922 192.53 44.3922 192.41C44.3522 192.37 44.3322 192.32 44.3322 192.26V191.78C44.3322 191.64 44.3422 191.52 44.3622 191.42C44.3622 190.94 44.4122 190.56 44.5122 190.28C44.6322 190 44.8722 189.68 45.2322 189.32C45.4722 189.5 45.7222 189.52 45.9822 189.38C46.2422 189.24 46.4022 189.05 46.4622 188.81L46.6722 187.97C46.8322 187.85 46.9422 187.72 47.0022 187.58C47.0822 187.42 47.1322 187.28 47.1522 187.16C47.1522 187.1 47.1522 187.05 47.1522 187.01C47.1722 186.95 47.1822 186.89 47.1822 186.83C47.2222 186.73 47.2922 186.64 47.3922 186.56C47.6522 186.36 47.9822 186.02 48.3822 185.54C48.6622 185.38 48.8922 185.26 49.0722 185.18C49.2722 185.1 49.4422 185.03 49.5822 184.97C49.6422 184.95 49.7122 184.94 49.7922 184.94H50.5722L52.1922 185.15ZM56.5722 179.69L56.1822 181.43L55.4622 184.07L52.3122 183.11L51.8622 181.04L52.3722 179.39L51.7422 178.61L49.6722 178.82L48.8022 179.39L46.4322 179.87L44.9922 177.74L45.5622 176.72L49.6122 175.73L52.1922 175.34L52.3722 170.24L53.1522 169.46L56.4522 169.7L56.0622 172.22L56.3922 173.84L56.5722 179.69ZM41.0322 169.07L41.7822 169.97C41.8022 171.01 41.7122 171.54 41.5122 171.56C41.4122 171.56 41.3022 171.57 41.1822 171.59C41.0822 171.59 40.9622 171.6 40.8222 171.62C40.5422 171.64 40.2422 171.69 39.9222 171.77C39.6222 171.85 39.3422 171.95 39.0822 172.07L38.2722 171.17L35.8422 169.28L36.2622 168.59L39.4722 167.57L40.4922 167.75L41.0322 169.07ZM52.4022 188.27C52.4022 188.21 52.4222 188.18 52.4622 188.18C52.5022 188.16 52.4922 188.15 52.4322 188.15C52.3722 188.21 52.2422 188.27 52.0422 188.33C51.8422 188.37 51.5322 188.42 51.1122 188.48L48.9222 190.85C48.8622 190.97 48.8722 191.12 48.9522 191.3C49.0522 191.5 49.1922 191.66 49.3722 191.78C49.4122 191.96 49.5322 192.1 49.7322 192.2C49.9322 192.32 50.1622 192.38 50.4222 192.38L53.4222 191.54C53.5422 191.48 53.6822 191.36 53.8422 191.18C54.0022 191 54.1122 190.82 54.1722 190.64C54.1722 190.52 54.1422 190.39 54.0822 190.25C54.0422 190.09 53.9922 189.94 53.9322 189.8C53.8922 189.74 53.8522 189.69 53.8122 189.65C53.7722 189.59 53.7322 189.53 53.6922 189.47L53.6322 189.29C53.6122 189.25 53.6022 189.19 53.6022 189.11C53.5622 188.97 53.3822 188.79 53.0622 188.57C52.7422 188.37 52.5222 188.27 52.4022 188.27ZM60.1699 176.48L62.7499 176.3L67.6699 175.58C67.8699 175.56 68.1199 175.58 68.4199 175.64C68.7199 175.68 69.0099 175.73 69.2899 175.79C69.4299 175.83 69.5499 175.87 69.6499 175.91C69.7499 175.93 69.8399 175.96 69.9199 176C69.9999 176.04 70.0399 176.06 70.0399 176.06C70.1399 176.06 70.2299 176.05 70.3099 176.03C70.4499 175.99 70.5899 175.95 70.7299 175.91C70.8899 175.87 71.0699 175.83 71.2699 175.79C71.6699 175.71 72.0699 175.62 72.4699 175.52C72.8899 175.42 73.2099 175.33 73.4299 175.25L75.3799 176.24L75.1099 176.84C74.0899 177.6 73.1799 178.32 72.3799 179C71.5799 179.66 71.0099 180.18 70.6699 180.56C70.5899 180.68 70.5599 180.85 70.5799 181.07C70.5999 181.29 70.6699 181.42 70.7899 181.46C71.0299 181.58 71.2799 181.65 71.5399 181.67C71.8199 181.69 72.0899 181.72 72.3499 181.76C72.6299 181.8 72.9099 181.89 73.1899 182.03C73.4699 182.17 73.7599 182.4 74.0599 182.72C74.0999 182.88 74.1099 183.01 74.0899 183.11C74.0899 183.19 74.0799 183.26 74.0599 183.32C73.9799 183.46 73.9499 183.6 73.9699 183.74C73.9699 183.84 73.9799 183.91 73.9999 183.95L74.0599 184.13C74.0799 184.19 74.0999 184.25 74.1199 184.31C74.1399 184.35 74.1599 184.4 74.1799 184.46C74.1999 184.72 74.1999 184.97 74.1799 185.21C74.1799 185.45 74.1399 185.66 74.0599 185.84C73.9399 186.06 73.6999 186.3 73.3399 186.56C72.9999 186.8 72.6299 187.03 72.2299 187.25C71.8299 187.47 71.4299 187.67 71.0299 187.85C70.6499 188.03 70.3599 188.16 70.1599 188.24C69.9199 188.34 69.6599 188.47 69.3799 188.63C69.1199 188.79 68.8399 188.94 68.5399 189.08C68.2199 189.24 67.8799 189.38 67.5199 189.5C67.1599 189.6 66.7799 189.65 66.3799 189.65C66.0399 189.67 65.6499 189.67 65.2099 189.65C64.7699 189.61 64.3299 189.55 63.8899 189.47C63.4299 189.37 63.0099 189.24 62.6299 189.08C62.2499 188.92 61.9699 188.71 61.7899 188.45L61.5199 187.43C61.4999 187.25 61.5199 187.12 61.5799 187.04C61.6199 187 61.6699 186.94 61.7299 186.86C61.8099 186.78 61.8999 186.65 61.9999 186.47L64.9099 181.49C65.0499 181.37 65.2099 181.25 65.3899 181.13C65.5899 181.01 65.7799 180.89 65.9599 180.77C66.1399 180.65 66.2999 180.54 66.4399 180.44C66.5999 180.32 66.7199 180.21 66.7999 180.11C66.9599 179.93 67.1499 179.79 67.3699 179.69C67.6099 179.57 67.8399 179.46 68.0599 179.36C68.2799 179.28 68.4899 179.18 68.6899 179.06C68.8899 178.94 69.0599 178.79 69.1999 178.61C68.3999 178.57 67.8999 178.54 67.6999 178.52C67.5999 178.5 67.4899 178.49 67.3699 178.49C67.2499 178.49 67.1199 178.49 66.9799 178.49C66.6799 178.49 66.3799 178.52 66.0799 178.58C65.7999 178.62 65.5799 178.72 65.4199 178.88C65.1199 178.88 64.7399 178.93 64.2799 179.03C63.8199 179.11 63.3699 179.21 62.9299 179.33C62.4699 179.45 62.0499 179.56 61.6699 179.66C61.3099 179.76 61.0699 179.82 60.9499 179.84C60.4299 179.96 60.0199 179.99 59.7199 179.93C59.4399 179.85 59.3199 179.67 59.3599 179.39L59.6299 177.08L60.1699 176.48ZM79.6099 172.34L80.8399 172.79C81.0199 172.99 81.1299 173.34 81.1699 173.84L81.2599 174.74L81.2899 177.32L80.8999 178.76L81.3799 179.39C81.6599 179.43 82.0399 179.43 82.5199 179.39C82.7399 179.37 82.9499 179.35 83.1499 179.33C83.3699 179.31 83.5699 179.29 83.7499 179.27C83.9899 179.25 84.1899 179.22 84.3499 179.18C84.5299 179.14 84.6999 179.09 84.8599 179.03C84.9999 178.99 85.1399 178.95 85.2799 178.91C85.4399 178.87 85.6099 178.85 85.7899 178.85L86.9599 179.63L86.5999 181.58L86.1199 182.39C86.0799 182.79 85.8899 182.98 85.5499 182.96L83.9599 182.84C83.8999 182.84 83.7899 182.83 83.6299 182.81C83.4899 182.77 83.3199 182.74 83.1199 182.72C82.9199 182.68 82.7099 182.66 82.4899 182.66C82.2699 182.64 82.0599 182.64 81.8599 182.66L81.4399 182.54C81.2999 182.52 81.1899 182.56 81.1099 182.66C81.0299 182.76 80.9599 182.88 80.8999 183.02C80.8599 183.18 80.8299 183.34 80.8099 183.5C80.8099 183.66 80.8199 183.77 80.8399 183.83L80.7499 185.15L81.1999 186.2L81.0199 187.34L81.0799 189.29L77.5099 190.1L76.8799 189.59L77.1499 186.92L76.9699 184.91L77.2399 183.05L77.0899 175.61L77.7499 172.73L79.6099 172.34ZM68.6299 172.49C69.6499 173.61 70.0499 174.19 69.8299 174.23C69.7299 174.23 69.6099 174.24 69.4699 174.26C69.3299 174.26 69.1799 174.27 69.0199 174.29C68.6999 174.31 68.3699 174.36 68.0299 174.44C67.6899 174.52 67.3899 174.62 67.1299 174.74L65.8699 174.32L63.5899 171.65L63.7099 170.66L65.5699 169.79L67.9399 169.82L68.6299 172.49ZM68.5099 183.02C68.2899 183.18 68.0599 183.4 67.8199 183.68C67.5799 183.96 67.3499 184.24 67.1299 184.52C66.8899 184.82 66.6899 185.1 66.5299 185.36C66.3899 185.62 66.3099 185.81 66.2899 185.93C66.1499 186.19 66.1799 186.42 66.3799 186.62C66.5599 186.8 66.8599 186.9 67.2799 186.92C67.6999 186.92 68.0499 186.91 68.3299 186.89C68.5299 186.75 68.7599 186.6 69.0199 186.44C69.2999 186.28 69.5599 186.13 69.7999 185.99C70.0399 185.83 70.2399 185.69 70.3999 185.57C70.5799 185.43 70.6899 185.31 70.7299 185.21C70.7899 184.91 70.8099 184.68 70.7899 184.52C70.7699 184.34 70.6799 184.13 70.5199 183.89C70.3999 183.71 70.1999 183.51 69.9199 183.29C69.6399 183.07 69.4299 182.96 69.2899 182.96L68.5099 183.02ZM94.3757 182.39C94.1757 182.75 94.0057 183.04 93.8657 183.26C93.7457 183.46 93.6357 183.64 93.5357 183.8C93.4357 183.94 93.3357 184.08 93.2357 184.22C93.1557 184.36 93.0557 184.53 92.9357 184.73C92.7557 185.05 92.4757 185.27 92.0957 185.39C91.7157 185.49 91.4357 185.48 91.2557 185.36L89.1257 183.98C89.3057 183 89.6657 181.84 90.2057 180.5C90.4857 179.8 90.7757 179.13 91.0757 178.49C91.3757 177.83 91.6957 177.18 92.0357 176.54C92.1157 176.38 92.2457 176.2 92.4257 176C92.6057 175.8 92.7857 175.6 92.9657 175.4C93.1457 175.2 93.3157 175 93.4757 174.8C93.6557 174.6 93.7757 174.42 93.8357 174.26C93.9157 174.02 93.9757 173.82 94.0157 173.66C94.0757 173.5 94.1357 173.35 94.1957 173.21C94.2357 173.09 94.2857 172.98 94.3457 172.88C94.4057 172.78 94.4957 172.67 94.6157 172.55L95.9657 171.26L97.8557 170.9C97.9957 170.88 98.1557 170.93 98.3357 171.05C98.5157 171.15 98.6857 171.28 98.8457 171.44C98.9857 171.6 99.0957 171.78 99.1757 171.98C99.2557 172.16 99.2657 172.32 99.2057 172.46L97.7957 175.1L97.4957 176.21L97.7957 177.38L102.776 179.57C103.196 179.75 103.456 179.99 103.556 180.29C103.656 180.59 103.636 180.91 103.496 181.25L102.566 183.26L101.516 183.05L100.586 183.17L98.8157 181.91L98.4557 181.4L97.0157 180.59L96.5657 180.11L97.1057 179.48C97.1457 179.42 97.1457 179.33 97.1057 179.21C97.0857 179.07 97.0157 178.96 96.8957 178.88C96.7757 178.8 96.6057 178.78 96.3857 178.82C96.1857 178.84 95.9457 178.99 95.6657 179.27L95.3957 180.47L94.3757 182.06V182.39ZM110.816 178.13C110.756 178.57 110.736 179.07 110.756 179.63C110.776 180.19 110.846 180.68 110.966 181.1L110.336 182.06L109.706 184.19L109.196 184.49L108.566 184.61L106.916 185.54L106.106 185.21L106.286 184.49L106.556 183.14L106.706 182.66L106.556 181.85L106.676 181.13L106.556 177.86L106.586 177.26L106.856 176.54L106.616 174.8L106.796 172.67L106.706 171.95L106.856 170.69L107.786 170.27L109.706 170.84C109.946 170.86 110.146 170.86 110.306 170.84C110.486 170.82 110.656 170.79 110.816 170.75L110.876 172.7L110.816 178.13ZM105.566 186.38C105.806 186.42 105.886 186.57 105.806 186.83C105.726 187.07 105.576 187.26 105.356 187.4L103.556 188.72L102.146 190.13C102.206 190.29 102.286 190.47 102.386 190.67C102.506 190.85 102.616 190.94 102.716 190.94L104.336 191.03L105.596 190.67H106.286L108.266 189.8L109.226 189.83L111.026 189.26C111.286 189.18 111.516 189.15 111.716 189.17C111.936 189.19 112.116 189.24 112.256 189.32C112.396 189.4 112.506 189.5 112.586 189.62C112.666 189.72 112.726 189.81 112.766 189.89C112.946 190.63 113.066 191.22 113.126 191.66C113.186 192.1 113.216 192.4 113.216 192.56C113.176 192.64 113.106 192.73 113.006 192.83C112.906 192.93 112.786 193.03 112.646 193.13C112.526 193.23 112.406 193.32 112.286 193.4C112.166 193.48 112.076 193.54 112.016 193.58L105.446 193.88L101.606 194.57L99.0557 194.72L97.4657 194.48C97.2857 194.22 97.1457 193.9 97.0457 193.52C96.9657 193.14 96.9557 192.62 97.0157 191.96L97.9757 190.43L98.2157 189.65C98.3357 189.63 98.4657 189.61 98.6057 189.59C98.7457 189.57 98.8857 189.54 99.0257 189.5C99.3457 189.46 99.6257 189.35 99.8657 189.17C99.9457 189.11 99.9457 189.04 99.8657 188.96C99.7857 188.86 99.6757 188.75 99.5357 188.63L101.756 186.95L103.976 186.02L105.566 186.38ZM150.272 192.05L150.332 193.52L149.702 193.85C149.162 193.91 148.582 193.98 147.962 194.06C147.342 194.16 146.732 194.26 146.132 194.36C145.832 194.42 145.532 194.47 145.232 194.51C144.932 194.57 144.632 194.63 144.332 194.69C144.052 194.73 143.782 194.76 143.522 194.78C143.262 194.82 143.032 194.84 142.832 194.84L142.082 194.3L142.112 193.73L143.192 191.18L143.132 188.36C143.012 188.38 142.862 188.4 142.682 188.42C142.502 188.44 142.322 188.45 142.142 188.45C141.942 188.47 141.742 188.5 141.542 188.54C141.342 188.56 141.182 188.59 141.062 188.63C140.962 188.67 140.852 188.72 140.732 188.78C140.632 188.82 140.522 188.86 140.402 188.9L139.562 189.26C138.862 189.54 138.492 189.76 138.452 189.92C138.432 190.06 138.402 190.29 138.362 190.61C138.302 190.91 138.252 191.22 138.212 191.54C138.172 191.88 138.132 192.22 138.092 192.56C138.052 192.72 138.032 192.8 138.032 192.8C138.012 192.82 138.002 192.84 138.002 192.86V192.92L137.942 193.01V193.19C137.942 193.25 137.902 193.3 137.822 193.34C137.742 193.38 137.652 193.42 137.552 193.46C137.432 193.52 137.312 193.61 137.192 193.73C137.192 193.79 137.212 193.84 137.252 193.88C137.252 193.92 137.302 193.96 137.402 194C137.442 194.04 137.482 194.07 137.522 194.09C137.562 194.13 137.602 194.17 137.642 194.21C137.442 194.65 137.162 194.88 136.802 194.9C136.462 194.92 136.082 194.93 135.662 194.93C135.222 194.95 134.782 194.96 134.342 194.96C133.922 194.98 133.652 194.99 133.532 194.99L132.842 193.97L133.622 190.46C133.722 190.3 133.832 190.09 133.952 189.83C134.072 189.57 134.212 189.27 134.372 188.93L135.032 184.94L136.052 184.46L137.642 184.88L137.852 187.28C137.932 187.28 138.032 187.22 138.152 187.1C138.212 187.04 138.272 186.98 138.332 186.92C138.412 186.86 138.502 186.79 138.602 186.71C138.722 186.59 138.862 186.47 139.022 186.35C139.182 186.23 139.352 186.14 139.532 186.08L143.222 184.79C144.002 184.73 144.752 184.71 145.472 184.73C146.212 184.75 146.802 184.79 147.242 184.85L147.842 186.32L146.762 190.16L145.382 192.05L146.012 191.81L147.212 191.06L149.642 190.52L150.602 190.64L150.272 192.05ZM131.522 186.83L129.002 185.93L129.122 184.73L130.772 179.15L131.852 176.78L131.942 175.76L131.252 175.01L130.172 175.16L127.382 174.98C127.262 174.92 127.112 174.88 126.932 174.86C126.752 174.82 126.572 174.8 126.392 174.8C126.232 174.8 126.082 174.84 125.942 174.92C125.822 174.98 125.732 175.08 125.672 175.22L124.532 174.83L123.752 172.1L126.812 171.65C127.292 171.67 127.732 171.68 128.132 171.68C128.552 171.68 128.932 171.68 129.272 171.68C129.592 171.7 129.932 171.72 130.292 171.74C130.652 171.74 131.002 171.74 131.342 171.74C131.702 171.76 132.032 171.78 132.332 171.8C132.652 171.8 132.932 171.81 133.172 171.83L134.312 172.22L135.872 172.85L136.022 173.75L135.602 174.5L135.422 177.47L134.402 181.31L133.472 183.23L133.412 185.24L132.872 186.41L131.522 186.83ZM147.092 183.83L145.112 183.68L144.782 182.96L144.182 182.09L144.302 180.8L144.182 179.18L143.432 178.34L141.392 178.31L136.952 179.09L136.712 177.29L137.942 175.76L139.742 175.91L141.752 175.13L143.042 174.68C143.262 174.8 143.492 174.85 143.732 174.83C143.992 174.79 144.192 174.71 144.332 174.59C144.452 174.53 144.492 174.43 144.452 174.29C144.412 174.13 144.212 173.99 143.852 173.87L144.062 172.34L144.542 170.66L146.012 169.7L148.412 169.88L148.592 171.44L148.322 174.05L148.232 176.9C148.192 177.06 148.162 177.19 148.142 177.29C148.142 177.37 148.132 177.44 148.112 177.5C148.112 177.58 148.102 177.65 148.082 177.71C148.082 177.75 148.082 177.79 148.082 177.83C148.062 177.95 148.062 178.1 148.082 178.28C148.102 178.46 148.152 178.73 148.232 179.09L147.572 181.52L147.602 183.05L147.092 183.83ZM168.209 169.25L171.299 169.4L171.749 171.02L171.449 172.43C171.429 172.65 171.419 172.87 171.419 173.09C171.419 173.31 171.419 173.53 171.419 173.75V174.98C171.419 175.36 171.409 175.68 171.389 175.94C171.389 176.2 171.379 176.34 171.359 176.36C171.299 176.42 171.219 176.48 171.119 176.54C171.039 176.6 170.959 176.66 170.879 176.72C170.659 176.86 170.559 177 170.579 177.14C170.619 177.24 170.699 177.29 170.819 177.29C170.959 177.27 171.109 177.23 171.269 177.17C171.409 177.11 171.559 177.05 171.719 176.99C171.879 176.93 172.009 176.88 172.109 176.84L175.049 174.38L174.929 171.89L175.709 170.3L178.769 170.72L179.219 171.35L179.099 172.52L178.649 174.8L178.889 178.67L178.649 182.39C178.289 182.33 178.039 182.38 177.899 182.54C177.779 182.7 177.689 182.87 177.629 183.05V183.98L176.009 184.25L174.869 183.62L174.539 181.97L174.989 178.31L174.149 178.58L171.899 180.35L170.909 181.37L170.249 183.53L167.849 183.2L167.519 180.02L167.189 177.74L167.609 175.64L167.819 170.15L168.209 169.25ZM157.079 182.54C156.879 182.9 156.709 183.19 156.569 183.41C156.449 183.61 156.339 183.79 156.239 183.95C156.139 184.09 156.039 184.23 155.939 184.37C155.859 184.51 155.759 184.68 155.639 184.88C155.459 185.2 155.179 185.42 154.799 185.54C154.419 185.64 154.139 185.63 153.959 185.51L151.829 184.13C152.009 183.15 152.369 181.99 152.909 180.65C153.189 179.95 153.479 179.28 153.779 178.64C154.079 177.98 154.399 177.33 154.739 176.69C154.859 176.51 154.989 176.33 155.129 176.15L155.669 175.55C155.849 175.35 156.019 175.15 156.179 174.95C156.359 174.75 156.479 174.57 156.539 174.41C156.619 174.17 156.679 173.97 156.719 173.81C156.779 173.65 156.839 173.5 156.899 173.36C156.939 173.24 156.989 173.13 157.049 173.03C157.109 172.93 157.199 172.82 157.319 172.7L159.269 170.81L161.159 170.45C161.299 170.43 161.459 170.48 161.639 170.6C161.819 170.7 161.989 170.83 162.149 170.99C162.289 171.15 162.399 171.33 162.479 171.53C162.559 171.71 162.569 171.87 162.509 172.01L160.499 175.25L160.199 176.36L160.499 177.53L165.479 179.72C165.899 179.9 166.159 180.14 166.259 180.44C166.359 180.74 166.339 181.06 166.199 181.4L165.269 183.41L164.219 183.2L163.289 183.32L161.519 182.06L161.159 181.55L159.719 180.74L159.269 180.26L159.809 179.63C159.849 179.57 159.849 179.48 159.809 179.36C159.789 179.22 159.719 179.11 159.599 179.03C159.479 178.95 159.309 178.93 159.089 178.97C158.889 178.99 158.649 179.14 158.369 179.42L158.099 180.62L157.079 182.21V182.54ZM177.209 190.43C176.909 193.45 176.639 194.97 176.399 194.99C176.139 195.03 175.859 195.06 175.559 195.08C175.239 195.12 174.919 195.15 174.599 195.17C174.279 195.21 174.029 195.23 173.849 195.23C173.209 195.19 172.809 194.95 172.649 194.51C172.509 194.09 172.479 193.62 172.559 193.1C172.579 192.74 172.599 192.37 172.619 191.99C172.639 191.63 172.669 191.37 172.709 191.21C172.729 191.07 172.739 190.93 172.739 190.79C172.759 190.63 172.789 190.48 172.829 190.34C172.869 190.18 172.919 190.04 172.979 189.92C173.039 189.78 173.129 189.65 173.249 189.53C173.489 189.29 173.639 189.05 173.699 188.81C173.779 188.57 173.489 188.45 172.829 188.45L169.019 189.23L168.479 188.87L167.309 189.56L165.179 189.95L163.919 189.2C163.699 187.54 163.719 186.68 163.979 186.62C164.119 186.58 164.249 186.55 164.369 186.53C164.509 186.49 164.659 186.45 164.819 186.41C165.139 186.35 165.429 186.29 165.689 186.23C165.949 186.15 166.089 186.11 166.109 186.11L168.149 185.69C168.309 185.67 168.549 185.63 168.869 185.57C169.189 185.49 169.509 185.42 169.829 185.36C169.989 185.32 170.169 185.28 170.369 185.24C170.569 185.2 170.789 185.16 171.029 185.12L172.739 185.36L177.029 185.06L177.779 185.84C177.659 186.24 177.599 186.7 177.599 187.22C177.639 187.74 177.709 188.04 177.809 188.12C177.789 188.18 177.749 188.27 177.689 188.39C177.649 188.49 177.589 188.61 177.509 188.75C177.449 188.89 177.379 189.03 177.299 189.17C177.219 189.31 177.159 189.45 177.119 189.59L177.209 190.43ZM195.089 182.15L197.129 176.99L196.739 175.22L195.359 175.46L192.569 175.28C192.309 175.18 191.999 175.15 191.639 175.19C191.299 175.23 191.039 175.34 190.859 175.52L189.719 175.13L189.029 172.76L193.079 172.04H195.299C195.899 172.04 196.539 172.05 197.219 172.07C197.899 172.07 198.479 172.09 198.959 172.13L200.099 172.52L201.449 173.72L200.399 177.56L199.739 181.58L198.809 183.47L198.599 185.54L198.059 186.71L196.709 187.13L194.219 185.81L195.089 182.15ZM208.889 180.92L208.799 180.08L209.399 177.65V176.21L209.159 174.98C209.159 174.56 209.079 174.22 208.919 173.96C208.779 173.68 208.529 173.57 208.169 173.63L204.539 174.53C204.059 174.61 203.679 174.52 203.399 174.26C203.139 173.98 203.039 173.66 203.099 173.3L203.249 171.2L207.929 170.75C208.209 171.05 208.409 171.21 208.529 171.23C208.669 171.23 208.769 171.17 208.829 171.05C208.849 170.99 208.869 170.93 208.889 170.87C208.909 170.79 208.919 170.7 208.919 170.6C208.959 170.4 209.029 170.25 209.129 170.15L210.569 169.28C210.809 169.28 211.089 169.3 211.409 169.34C211.729 169.36 212.039 169.4 212.339 169.46C212.499 169.5 212.659 169.53 212.819 169.55C212.999 169.57 213.199 169.59 213.419 169.61L213.899 171.32L213.599 172.76L213.809 176.75L213.479 177.62L213.329 178.55L212.969 179.72L212.819 181.37L212.789 182.27L211.139 182.54L210.929 182.21L209.549 182.54L208.709 182.18L208.889 180.92ZM207.419 179.66L203.939 180.26L201.989 179.33C202.249 177.89 202.459 177.17 202.619 177.17C202.699 177.15 202.779 177.14 202.859 177.14C202.959 177.14 203.079 177.13 203.219 177.11C203.459 177.11 203.769 177.1 204.149 177.08C204.549 177.04 204.989 176.99 205.469 176.93C205.809 176.93 206.119 176.87 206.399 176.75C206.479 176.75 206.549 176.74 206.609 176.72C206.689 176.7 206.769 176.68 206.849 176.66C206.909 176.66 206.969 176.65 207.029 176.63C207.109 176.61 207.189 176.59 207.269 176.57L208.049 177.11L207.419 179.66ZM209.879 190.22L209.279 191L204.179 191.66C203.879 191.78 203.669 192.01 203.549 192.35C203.449 192.71 203.399 193.04 203.399 193.34L212.369 191.57C212.609 191.57 212.859 191.57 213.119 191.57C213.379 191.59 213.639 191.6 213.899 191.6C214.139 191.66 214.389 191.71 214.649 191.75C214.929 191.79 215.199 191.81 215.459 191.81L215.309 195.02L209.159 194.84C208.439 195.08 207.719 195.26 206.999 195.38L205.919 195.65C205.759 195.69 205.589 195.73 205.409 195.77C205.249 195.83 205.099 195.87 204.959 195.89L198.959 196.13L198.809 193.43L200.939 189.41L208.289 188.21L208.169 186.68L207.569 186.41L202.619 187.04L200.789 187.88L199.859 187.76L199.829 185.33C200.009 185.15 200.239 185 200.519 184.88C200.799 184.76 201.099 184.66 201.419 184.58L207.239 183.59L209.579 184.07L212.519 184.22C212.639 184.52 212.749 184.82 212.849 185.12C212.949 185.4 212.999 185.71 212.999 186.05L212.909 188.87L211.409 189.62L209.879 190.22ZM234.057 172.73L238.017 172.22L238.167 174.65L237.927 176.51L237.627 176.87L237.807 179.3L237.927 179.39L242.007 179.12C242.127 179.18 242.217 179.21 242.277 179.21C242.357 179.21 242.427 179.2 242.487 179.18C242.507 179.16 242.527 179.14 242.547 179.12C242.587 179.1 242.617 179.07 242.637 179.03L242.907 178.76L243.837 179.24L244.077 180.23C243.837 180.47 243.717 180.71 243.717 180.95L243.777 182.27L241.347 182.87C241.087 182.71 240.817 182.61 240.537 182.57C240.277 182.51 240.027 182.48 239.787 182.48C239.647 182.48 239.507 182.49 239.367 182.51C239.247 182.51 239.127 182.51 239.007 182.51C238.867 182.51 238.737 182.51 238.617 182.51C238.497 182.49 238.377 182.46 238.257 182.42L237.687 181.55L237.297 182.66L237.387 184.46L237.057 186.89L237.417 189.92L235.977 190.19C235.817 190.21 235.657 190.23 235.497 190.25C235.337 190.25 235.187 190.26 235.047 190.28C234.887 190.28 234.737 190.29 234.597 190.31C234.457 190.31 234.327 190.3 234.207 190.28C233.907 190.28 233.667 190.26 233.487 190.22C233.327 190.18 233.247 190.07 233.247 189.89L233.007 187.22C233.027 187.08 233.057 186.95 233.097 186.83C233.137 186.69 233.177 186.56 233.217 186.44C233.237 186.3 233.267 186.17 233.307 186.05C233.347 185.93 233.387 185.8 233.427 185.66C233.507 185.36 233.547 185.01 233.547 184.61L231.837 185.24L228.237 186.2L225.327 187.67L222.507 188.12C222.267 188 221.957 187.92 221.577 187.88C221.217 187.82 220.887 187.85 220.587 187.97L220.167 188.63L217.557 188.84L216.867 185.63L218.787 185.45L220.227 185.15L220.407 184.25L220.917 182.42L220.797 179.57L220.947 178.49L222.717 178.19H224.247V179.51L223.917 180.86C223.857 181.34 223.837 181.81 223.857 182.27C223.877 182.71 223.977 183.19 224.157 183.71L224.787 184.04L226.947 183.23L226.977 179.87V179.54L226.917 177.11L226.197 176.21H219.747L217.437 176.84L216.987 174.35L218.067 173.21L220.167 172.64H224.877L230.337 173.9L231.027 176.21C230.927 176.35 230.847 176.43 230.787 176.45C230.687 176.55 230.627 176.63 230.607 176.69C230.487 176.85 230.607 177.1 230.967 177.44L231.117 178.79L230.277 181.01L229.317 182.45V182.6L229.887 182.48C230.027 182.62 230.207 182.64 230.427 182.54L233.487 181.88L233.217 174.65L234.057 172.73ZM252.146 176.48C252.206 176.54 252.236 176.5 252.236 176.36C252.256 176.32 252.266 176.27 252.266 176.21C252.266 176.13 252.276 176.04 252.296 175.94C252.296 175.82 252.316 175.68 252.356 175.52C252.396 175.36 252.476 175.24 252.596 175.16C253.576 174.58 254.506 174.59 255.386 175.19L257.696 176.9C257.896 177.12 258.036 177.47 258.116 177.95C258.156 178.09 258.186 178.24 258.206 178.4C258.226 178.54 258.246 178.69 258.266 178.85L258.896 178.76C259.096 178.72 259.296 178.69 259.496 178.67C259.696 178.63 259.896 178.59 260.096 178.55L261.506 178.82C261.746 178.74 261.926 178.66 262.046 178.58C262.186 178.48 262.236 178.36 262.196 178.22L261.386 177.71L261.206 176.27L261.476 175.16C261.656 174.94 261.766 174.7 261.806 174.44C261.846 174.16 261.866 173.88 261.866 173.6L263.876 172.91L264.896 173.45C265.036 173.51 265.126 173.6 265.166 173.72C265.226 173.84 265.256 174.14 265.256 174.62C265.256 175.96 265.246 177.38 265.226 178.88C265.206 180.36 265.176 181.76 265.136 183.08L264.986 183.77L265.106 185.27L264.836 186.65C264.816 186.73 264.806 186.81 264.806 186.89C264.826 186.97 264.846 187.04 264.866 187.1C264.906 187.3 264.926 187.45 264.926 187.55C264.846 187.87 264.766 188.11 264.686 188.27C264.646 188.35 264.586 188.45 264.506 188.57C264.486 188.61 263.566 188.68 261.746 188.78C261.566 188.78 261.476 188.66 261.476 188.42C261.476 188.18 261.536 187.95 261.656 187.73L261.596 186.68L261.866 185.9L261.686 184.22L261.566 183.65V182.3C261.566 182.16 261.506 182.03 261.386 181.91C261.266 181.77 261.076 181.73 260.816 181.79C260.576 181.85 260.336 181.88 260.096 181.88C259.876 181.86 259.656 181.84 259.436 181.82C259.336 181.8 259.226 181.79 259.106 181.79C259.006 181.79 258.906 181.79 258.806 181.79C258.666 181.77 258.496 181.78 258.296 181.82C258.276 182.1 258.256 182.38 258.236 182.66C258.216 182.92 258.196 183.16 258.176 183.38C258.116 183.52 257.996 183.76 257.816 184.1C257.636 184.42 257.406 184.67 257.126 184.85L253.136 187.22C251.836 187.58 250.546 187.52 249.266 187.04C248.786 187.04 248.316 186.89 247.856 186.59C247.396 186.29 247.106 185.89 246.986 185.39C246.746 184.99 246.606 184.58 246.566 184.16C246.546 183.72 246.596 183.31 246.716 182.93L248.966 177.77C249.026 177.71 249.096 177.62 249.176 177.5C249.256 177.38 249.336 177.25 249.416 177.11C249.616 176.89 249.896 176.61 250.256 176.27L252.146 176.48ZM267.206 184.79V184.22L267.236 182.78L267.446 181.88L267.236 180.53L267.476 179.63L267.236 178.37L267.416 175.46L267.266 174.62L267.296 172.46C267.296 172.24 267.546 172.11 268.046 172.07C268.306 172.05 268.606 172.05 268.946 172.07C269.306 172.09 269.716 172.11 270.176 172.13C270.496 172.15 270.726 172.24 270.866 172.4C271.006 172.56 271.116 172.76 271.196 173V174.74L271.406 177.92L271.376 181.64L270.866 183.8L270.926 186.14L270.446 187.82L270.536 188.15C270.336 189.33 270.116 189.94 269.876 189.98C269.776 190 269.666 190.01 269.546 190.01C269.426 190.01 269.296 190.02 269.156 190.04C268.856 190.08 268.566 190.11 268.286 190.13C268.006 190.13 267.796 190.13 267.656 190.13C267.496 190.13 267.376 190.09 267.296 190.01C267.236 189.91 267.196 189.8 267.176 189.68C267.156 189.56 267.156 189.4 267.176 189.2L267.206 184.79ZM251.696 180.89C251.596 181.03 251.506 181.16 251.426 181.28C251.346 181.38 251.276 181.48 251.216 181.58C251.096 181.76 250.986 181.95 250.886 182.15C250.806 182.35 250.776 182.51 250.796 182.63C250.796 182.85 250.816 183.04 250.856 183.2C250.856 183.34 250.986 183.47 251.246 183.59C251.446 183.69 251.716 183.73 252.056 183.71H252.986C253.086 183.73 253.206 183.74 253.346 183.74C253.506 183.72 253.706 183.68 253.946 183.62C254.426 183.5 254.716 183.28 254.816 182.96C254.876 182.78 254.896 182.61 254.876 182.45C254.876 182.27 254.856 182.12 254.816 182C254.736 181.9 254.696 181.79 254.696 181.67C254.656 181.53 254.676 181.38 254.756 181.22C254.756 180.74 254.806 180.4 254.906 180.2C255.006 179.94 255.096 179.77 255.176 179.69C255.216 179.63 255.236 179.47 255.236 179.21C255.236 178.95 255.186 178.75 255.086 178.61C254.986 178.49 254.856 178.4 254.696 178.34C254.536 178.28 254.366 178.24 254.186 178.22C254.006 178.2 253.836 178.2 253.676 178.22C253.536 178.22 253.436 178.25 253.376 178.31L251.696 180.89ZM304.757 181.25C304.457 181.19 304.217 181.18 304.037 181.22C303.857 181.26 303.717 181.31 303.617 181.37C303.517 181.45 303.447 181.54 303.407 181.64C303.367 181.76 303.347 181.83 303.347 181.85L302.807 183.26L301.547 184.4L301.247 184.28C300.887 184.14 300.597 184.18 300.377 184.4C300.097 184.66 299.997 184.86 300.077 185L299.237 185.48L298.487 185.06L298.937 183.83L299.417 182.57C299.657 182.47 299.747 182.25 299.687 181.91L299.627 181.55L298.697 182.51L294.257 185.36L290.327 186.26L287.777 186.74C287.517 186.56 287.247 186.48 286.967 186.5C286.687 186.52 286.427 186.56 286.187 186.62C285.947 186.74 285.737 186.87 285.557 187.01C285.397 187.13 285.317 187.24 285.317 187.34L284.117 187.13L282.977 186.41L282.497 184.28L283.277 183.62L285.917 183.02L286.547 182.39L286.757 181.31L286.637 179.9L286.967 178.04L289.547 177.59L289.937 178.37L290.087 180.2L290.147 181.94L289.307 182.87L290.177 182.84L291.887 182.81L292.547 182.6L295.547 182.15L296.597 181.52L299.477 180.32V180.14L299.387 178.16V177.77L299.237 175.91L299.537 175.19L299.387 173.72L299.657 171.26L300.707 170.48L303.197 170.45L304.457 170.81L304.247 171.83L304.007 172.43L304.097 173.42L303.587 176.96C303.467 177.26 303.447 177.49 303.527 177.65C303.627 177.79 303.747 177.88 303.887 177.92C304.007 177.98 304.127 177.96 304.247 177.86C304.387 177.76 304.437 177.58 304.397 177.32L305.507 176.87L308.687 176.51L309.287 178.79L308.297 180.59L304.757 181.25ZM298.487 186.29C298.727 186.35 298.807 186.51 298.727 186.77C298.647 187.01 298.497 187.19 298.277 187.31L296.777 188.93L295.667 190.37C295.667 190.43 295.687 190.52 295.727 190.64C295.727 190.76 295.747 190.84 295.787 190.88C295.787 191.06 295.837 191.15 295.937 191.15L297.557 191.24L298.817 190.88H299.507L301.487 190.01L302.447 190.04L304.247 189.47C304.507 189.39 304.737 189.36 304.937 189.38C305.157 189.4 305.337 189.45 305.477 189.53C305.617 189.61 305.727 189.71 305.807 189.83C305.887 189.93 305.947 190.02 305.987 190.1C306.167 190.84 306.287 191.43 306.347 191.87C306.407 192.31 306.437 192.61 306.437 192.77C306.397 192.87 306.327 192.97 306.227 193.07C306.127 193.17 306.007 193.27 305.867 193.37C305.747 193.47 305.627 193.56 305.507 193.64C305.387 193.72 305.297 193.77 305.237 193.79L298.667 194.09L294.827 194.78L292.277 194.93L290.687 194.69C290.507 194.45 290.367 194.13 290.267 193.73C290.187 193.35 290.177 192.83 290.237 192.17L291.197 190.64L291.557 190.28L292.877 189.47L293.687 188.66L294.977 187.16L297.197 186.23L298.487 186.29ZM292.247 178.16L292.667 175.94L292.787 175.22L291.887 174.95L287.327 174.92L285.527 175.22C285.247 175.36 284.847 175.43 284.327 175.43C284.087 175.43 283.867 175.4 283.667 175.34C283.487 175.28 283.367 175.16 283.307 174.98L282.587 172.43C284.707 172.11 286.337 171.88 287.477 171.74C288.617 171.6 289.297 171.54 289.517 171.56C289.737 171.58 289.977 171.6 290.237 171.62C290.517 171.62 290.827 171.62 291.167 171.62C291.767 171.68 292.417 171.7 293.117 171.68C293.837 171.66 294.447 171.62 294.947 171.56L297.017 172.55L296.657 174.86L295.967 176.42L296.417 177.86L295.697 180.2C295.617 180.3 295.547 180.39 295.487 180.47C295.447 180.53 295.397 180.59 295.337 180.65C295.217 180.81 295.127 180.92 295.067 180.98C294.947 181.1 294.827 181.19 294.707 181.25C294.587 181.31 294.437 181.37 294.257 181.43L292.547 181.16L292.247 178.16ZM312.286 173.84L319.096 173.18C319.296 173.16 319.546 173.17 319.846 173.21C320.166 173.25 320.466 173.3 320.746 173.36C321.006 173.42 321.216 173.48 321.376 173.54C321.456 173.58 321.506 173.6 321.526 173.6C321.586 173.6 321.666 173.59 321.766 173.57C321.906 173.55 322.056 173.54 322.216 173.54C322.396 173.52 322.596 173.49 322.816 173.45C323.216 173.39 323.626 173.32 324.046 173.24C324.486 173.14 324.816 173.01 325.036 172.85L327.046 173.87L326.776 174.5C325.736 175.28 324.796 176.02 323.956 176.72C323.136 177.42 322.546 177.97 322.186 178.37C322.106 178.49 322.076 178.67 322.096 178.91C322.116 179.13 322.186 179.27 322.306 179.33C322.606 179.47 322.876 179.55 323.116 179.57L323.956 179.69C324.236 179.73 324.506 179.81 324.766 179.93C325.046 180.03 325.306 180.2 325.546 180.44C325.566 180.76 325.606 181.08 325.666 181.4C325.726 181.7 325.766 182 325.786 182.3C325.886 182.9 325.856 183.43 325.696 183.89C325.576 184.11 325.336 184.35 324.976 184.61C324.616 184.87 324.226 185.12 323.806 185.36C323.386 185.6 322.976 185.81 322.576 185.99C322.176 186.17 321.876 186.3 321.676 186.38C321.436 186.5 321.176 186.64 320.896 186.8C320.616 186.96 320.316 187.12 319.996 187.28C319.676 187.44 319.326 187.58 318.946 187.7C318.586 187.8 318.196 187.85 317.776 187.85C317.436 187.87 317.036 187.87 316.576 187.85C316.116 187.81 315.656 187.75 315.196 187.67C314.736 187.57 314.306 187.44 313.906 187.28C313.526 187.1 313.236 186.87 313.036 186.59L312.766 185.54C312.746 185.34 312.766 185.2 312.826 185.12C312.866 185.08 312.916 185.02 312.976 184.94C313.056 184.86 313.156 184.73 313.276 184.55L316.276 179.36C316.416 179.24 316.576 179.11 316.756 178.97C316.956 178.83 317.146 178.7 317.326 178.58C317.526 178.46 317.696 178.35 317.836 178.25C317.996 178.13 318.116 178.02 318.196 177.92C318.376 177.74 318.536 177.6 318.676 177.5C318.816 177.4 318.946 177.31 319.066 177.23C319.186 177.15 319.306 177.06 319.426 176.96C319.546 176.86 319.676 176.71 319.816 176.51C319.536 176.13 319.286 175.95 319.066 175.97C318.866 175.97 318.626 175.99 318.346 176.03C318.066 176.09 317.776 176.17 317.476 176.27C317.196 176.35 316.966 176.47 316.786 176.63C316.626 176.63 316.446 176.65 316.246 176.69C316.066 176.71 315.856 176.74 315.616 176.78C315.396 176.82 315.156 176.87 314.896 176.93C314.636 176.97 314.366 177.03 314.086 177.11C313.806 177.17 313.586 177.22 313.426 177.26C313.266 177.28 313.156 177.3 313.096 177.32C312.556 177.44 312.136 177.47 311.836 177.41C311.536 177.33 311.406 177.15 311.446 176.87L311.716 174.47L312.286 173.84ZM337.606 180.56L334.066 181.22C333.766 181.16 333.526 181.15 333.346 181.19C333.166 181.21 333.026 181.26 332.926 181.34C332.826 181.42 332.756 181.51 332.716 181.61C332.696 181.71 332.676 181.78 332.656 181.82L332.116 183.23L330.856 184.37L330.556 184.25C330.236 184.09 329.946 184.13 329.686 184.37C329.426 184.57 329.326 184.77 329.386 184.97L328.546 185.45L327.796 185.03L328.246 183.8L328.726 182.54C328.846 182.48 328.926 182.39 328.966 182.27C329.006 182.15 329.016 182.02 328.996 181.88C328.996 181.72 328.976 181.56 328.936 181.4C328.896 181.24 328.856 181.1 328.816 180.98L328.786 180.11L328.696 178.13V177.74L328.546 175.88L328.846 175.16L328.696 173.69L328.966 171.23L330.016 170.45L332.506 170.42L333.766 170.78L333.556 171.8L333.316 172.4L333.406 173.39L332.896 176.93C332.776 177.21 332.756 177.43 332.836 177.59C332.936 177.75 333.056 177.85 333.196 177.89C333.336 177.93 333.466 177.91 333.586 177.83C333.706 177.73 333.746 177.55 333.706 177.29L334.816 176.84L337.996 176.48L338.596 178.76L337.606 180.56ZM327.796 186.26C328.036 186.3 328.116 186.45 328.036 186.71C327.956 186.95 327.806 187.14 327.586 187.28L326.086 188.9L324.976 190.34C324.996 190.42 325.016 190.51 325.036 190.61C325.056 190.69 325.076 190.77 325.096 190.85C325.096 191.03 325.146 191.12 325.246 191.12L326.866 191.21L328.126 190.85H328.816L330.796 189.98L331.756 190.01L333.556 189.44C333.816 189.36 334.046 189.33 334.246 189.35C334.466 189.37 334.646 189.42 334.786 189.5C334.926 189.58 335.036 189.68 335.116 189.8C335.196 189.9 335.256 189.99 335.296 190.07C335.476 190.81 335.596 191.4 335.656 191.84C335.716 192.28 335.746 192.58 335.746 192.74C335.706 192.82 335.636 192.91 335.536 193.01C335.436 193.11 335.316 193.21 335.176 193.31C335.056 193.41 334.936 193.5 334.816 193.58C334.696 193.66 334.606 193.72 334.546 193.76L327.976 194.06L324.136 194.75L321.586 194.9L319.996 194.66C319.816 194.4 319.676 194.08 319.576 193.7C319.496 193.32 319.486 192.8 319.546 192.14L320.506 190.61L320.866 190.25L322.186 189.44L322.996 188.63L324.286 187.13L326.506 186.2L327.796 186.26ZM319.096 169.4L320.146 170.6C320.166 171.64 319.946 172.19 319.486 172.25C319.026 172.29 318.546 172.44 318.046 172.7L317.236 171.8L314.506 169.61L314.926 168.92L318.136 167.9L318.556 168.08L319.096 169.4ZM319.696 180.62C319.476 180.78 319.246 181 319.006 181.28C318.766 181.56 318.536 181.84 318.316 182.12C318.076 182.42 317.876 182.7 317.716 182.96C317.576 183.22 317.496 183.41 317.476 183.53C317.336 183.79 317.366 184.02 317.566 184.22C317.746 184.4 318.046 184.5 318.466 184.52C318.886 184.52 319.236 184.51 319.516 184.49C319.716 184.35 319.946 184.2 320.206 184.04C320.486 183.88 320.746 183.73 320.986 183.59C321.226 183.43 321.426 183.29 321.586 183.17C321.766 183.03 321.876 182.91 321.916 182.81C321.976 182.51 321.996 182.28 321.976 182.12C321.956 181.94 321.866 181.73 321.706 181.49C321.586 181.31 321.386 181.11 321.106 180.89C320.826 180.67 320.616 180.56 320.476 180.56L319.696 180.62ZM366.36 173.63L367.38 174.17C367.5 174.23 367.59 174.32 367.65 174.44C367.71 174.56 367.74 174.86 367.74 175.34C367.74 176.68 367.73 178.1 367.71 179.6C367.69 181.08 367.66 182.48 367.62 183.8L367.47 184.49L367.59 185.99L367.32 187.37C367.3 187.39 367.29 187.43 367.29 187.49V187.61C367.29 187.65 367.29 187.69 367.29 187.73C367.31 187.77 367.32 187.8 367.32 187.82V188.06C367.32 188.1 367.32 188.14 367.32 188.18C367.34 188.22 367.35 188.25 367.35 188.27C367.35 188.61 367.21 188.98 366.93 189.38L364.23 189.5C364.05 189.5 363.96 189.39 363.96 189.17C363.96 188.93 364.02 188.69 364.14 188.45L364.08 187.4L364.35 186.62L364.05 184.37V183.02C364.05 182.9 363.98 182.77 363.84 182.63C363.72 182.49 363.54 182.45 363.3 182.51C363.18 182.55 363.06 182.58 362.94 182.6C362.82 182.6 362.7 182.6 362.58 182.6C362.46 182.6 362.34 182.6 362.22 182.6C362.12 182.58 362.02 182.56 361.92 182.54C361.8 182.54 361.68 182.54 361.56 182.54C361.46 182.52 361.36 182.51 361.26 182.51H360.96C360.84 182.51 360.75 182.52 360.69 182.54C360.57 182.6 360.4 182.64 360.18 182.66C359.98 182.66 359.77 182.66 359.55 182.66H359.52L359.22 184.28L358.29 186.17L358.08 188.24L357.54 189.41L356.19 189.83L353.55 189.17L354.57 184.85L356.61 179.69L356.22 177.92L354.84 178.16L352.05 177.98C351.79 177.88 351.48 177.85 351.12 177.89C350.78 177.93 350.52 178.04 350.34 178.22L349.2 177.83L348.42 175.1L351.93 174.71H354.48C355.18 174.71 355.89 174.72 356.61 174.74C357.35 174.76 357.96 174.79 358.44 174.83L359.49 175.43L361.14 175.85L361.5 176.96L361.08 177.5L360.21 179.9L360.6 179.75C361.1 179.55 361.76 179.39 362.58 179.27L363.99 179.54C364.23 179.48 364.41 179.4 364.53 179.3C364.67 179.2 364.72 179.08 364.68 178.94L363.87 178.43L363.51 177.8L364.35 174.32L366.36 173.63ZM369.93 182.6L369.72 181.25L369.96 180.35L369.72 179.09L369.9 176.24L369.75 175.4L369.78 173.24C369.78 173.02 370.08 172.89 370.68 172.85H371.13C371.23 172.85 371.32 172.85 371.4 172.85C371.48 172.85 371.57 172.86 371.67 172.88C371.87 172.88 372.07 172.89 372.27 172.91C372.49 172.91 372.72 172.91 372.96 172.91C373.26 172.93 373.48 173.02 373.62 173.18C373.78 173.34 373.9 173.54 373.98 173.78V175.52L374.19 178.64L374.16 182.36L373.65 184.52L373.71 186.86L373.23 188.54L373.32 189.98C373.1 190.44 372.86 190.69 372.6 190.73C372.36 190.75 372.09 190.76 371.79 190.76C371.45 190.82 371.12 190.85 370.8 190.85H370.14C369.96 190.85 369.83 190.81 369.75 190.73C369.69 190.63 369.66 190.52 369.66 190.4C369.64 190.28 369.64 190.12 369.66 189.92L369.72 183.5L369.93 182.6ZM382.873 186.95C382.673 187.31 382.503 187.6 382.363 187.82C382.223 188.02 382.093 188.18 381.973 188.3C381.853 188.44 381.743 188.58 381.643 188.72C381.543 188.84 381.433 189 381.313 189.2L379.633 189.83L377.923 188.09L379.003 184.61L380.683 182L380.953 181.01C381.533 180.03 382.103 179.12 382.663 178.28C383.223 177.42 383.703 176.73 384.103 176.21L384.403 175.25L386.263 173.12L387.703 173.78L388.903 175.13L386.173 179.93L385.873 181.04L386.173 182.21L389.203 182.78L392.803 184.67C393.223 184.85 393.483 185.09 393.583 185.39C393.683 185.69 393.663 186.01 393.523 186.35L392.593 188.36L391.543 188.15L390.613 188.27L388.843 187.01L388.483 186.5L387.043 185.69L386.443 184.94L385.903 184.25C386.083 184.11 386.193 183.96 386.233 183.8C386.273 183.62 386.243 183.49 386.143 183.41C386.043 183.33 385.863 183.32 385.603 183.38C385.363 183.42 385.053 183.58 384.673 183.86L383.533 184.97L382.873 186.95ZM398.413 172.46L400.153 172.91C400.333 173.09 400.373 173.44 400.273 173.96L400.363 174.56L400.393 177.14L400.543 182.36L399.943 183.65L400.303 186.02L400.483 189.71L399.583 190.37L396.943 190.55L395.773 189.44L396.013 188.75L396.193 187.25L396.373 184.25C396.273 183.37 396.193 182.69 396.133 182.21C396.093 181.71 396.063 181.41 396.043 181.31C396.023 181.11 396.073 180.8 396.193 180.38L395.893 175.04L397.183 172.64L398.413 172.46ZM411.46 180.2L416.5 177.17L417.97 174.44L418.57 173.39L418.36 172.7L417.52 172.61L415.75 172.7L415.45 172.91L410.32 173.33L408.43 174.2L407.56 173.81L407.2 170L411.28 169.34L419.65 169.31L420.46 169.85L422.05 169.91L423.34 170.09C423.26 170.21 423.18 170.4 423.1 170.66C423.04 170.92 422.99 171.17 422.95 171.41C422.91 171.55 422.88 171.7 422.86 171.86C422.84 172 422.82 172.17 422.8 172.37L423.13 174.23L419.62 177.77L414.7 179.78L414.82 180.14L419.08 179.48L424.66 179.09L425.38 179.3L425.65 180.83L425.29 181.37L422.74 182.39L420.37 182.3C420.17 182.36 419.93 182.44 419.65 182.54C419.37 182.64 419.14 182.75 418.96 182.87L415.81 183.11L413.2 183.2L407.26 184.58L405.13 184.16L404.98 182.33L405.31 181.7L406.15 181.4L407.98 180.86L409.96 180.77L410.74 180.74L411.46 180.2ZM407.83 196.52L407.68 194.03C407.66 193.91 407.67 193.74 407.71 193.52C407.75 193.32 407.81 193.1 407.89 192.86C407.91 192.8 407.92 192.74 407.92 192.68C407.94 192.64 407.95 192.59 407.95 192.53V192.17C407.95 192.05 407.95 191.93 407.95 191.81C407.97 191.71 408.04 191.59 408.16 191.45C408.56 191.29 408.84 191.14 409 191C409.16 190.86 409.27 190.73 409.33 190.61L409.42 190.34C409.44 190.32 409.46 190.3 409.48 190.28C409.5 190.24 409.54 190.2 409.6 190.16L416.35 188.33L416.32 187.67L415.72 187.4L411.79 187.73L409.72 188.48L409.33 187.88L409.21 186.23L410.41 185.27L416.71 184.28L420.85 184.64L421.15 186.98L420.49 190.07L412.99 191.78C412.69 191.9 412.49 192.11 412.39 192.41C412.31 192.73 412.27 193 412.27 193.22C412.49 193.22 412.71 193.21 412.93 193.19C413.15 193.19 413.37 193.19 413.59 193.19C413.81 193.17 414.02 193.15 414.22 193.13C414.44 193.13 414.66 193.13 414.88 193.13C415.66 193.13 416.47 193.07 417.31 192.95C417.51 192.95 417.74 192.9 418 192.8C418.12 192.78 418.23 192.74 418.33 192.68C418.45 192.64 418.56 192.6 418.66 192.56C418.76 192.54 418.86 192.51 418.96 192.47C419.06 192.43 419.15 192.4 419.23 192.38C419.37 192.3 419.51 192.26 419.65 192.26C419.77 192.26 420 192.23 420.34 192.17C420.68 192.13 421.06 192.05 421.48 191.93C421.68 191.89 421.89 191.84 422.11 191.78C422.33 191.74 422.54 191.69 422.74 191.63C422.96 191.57 423.16 191.51 423.34 191.45C423.54 191.41 423.72 191.36 423.88 191.3L424.33 193.1V193.88C424.33 194.08 423.98 194.3 423.28 194.54C422.58 194.8 421.83 195.05 421.03 195.29C420.83 195.35 420.62 195.38 420.4 195.38C420.2 195.4 419.98 195.4 419.74 195.38H418.36C418.06 195.46 417.75 195.5 417.43 195.5C417.35 195.52 417.27 195.53 417.19 195.53C417.11 195.53 417.03 195.53 416.95 195.53H416.53C416.37 195.55 416.21 195.56 416.05 195.56C415.89 195.56 415.73 195.57 415.57 195.59C415.39 195.59 415.22 195.59 415.06 195.59C414.9 195.61 414.75 195.63 414.61 195.65L407.83 196.52ZM436.34 176.57C436.4 176.63 436.43 176.59 436.43 176.45C436.45 176.41 436.46 176.36 436.46 176.3C436.46 176.22 436.47 176.13 436.49 176.03C436.49 175.91 436.51 175.77 436.55 175.61C436.59 175.45 436.67 175.33 436.79 175.25C437.77 174.67 438.7 174.68 439.58 175.28L441.89 176.99C442.07 177.19 442.21 177.54 442.31 178.04C442.43 178.54 442.5 179.11 442.52 179.75C442.56 180.37 442.56 181.02 442.52 181.7C442.48 182.36 442.43 182.95 442.37 183.47C442.31 183.61 442.19 183.85 442.01 184.19C441.83 184.51 441.6 184.76 441.32 184.94L437.33 187.31C436.03 187.67 434.74 187.61 433.46 187.13C432.98 187.13 432.51 186.98 432.05 186.68C431.59 186.38 431.3 185.98 431.18 185.48C430.94 185.08 430.8 184.67 430.76 184.25C430.74 183.81 430.79 183.4 430.91 183.02L433.16 177.86C433.22 177.8 433.29 177.71 433.37 177.59C433.45 177.47 433.53 177.34 433.61 177.2C433.81 176.98 434.09 176.7 434.45 176.36L436.34 176.57ZM448.64 172.28L450.02 172.16L451.76 172.61C451.94 172.79 451.98 173.14 451.88 173.66L451.97 174.26L452 176.84L452.15 182.06L451.55 183.35L451.91 185.72L452.09 189.71L451.19 190.37L447.35 190.55L447.38 189.44L447.62 188.75L447.8 186.95L447.98 183.95C447.88 183.07 447.8 182.39 447.74 181.91C447.7 181.41 447.67 181.11 447.65 181.01C447.63 180.81 447.68 180.5 447.8 180.08V176.24L447.59 173.69L448.64 172.28ZM435.89 180.98L435.74 181.19C435.7 181.27 435.65 181.35 435.59 181.43C435.53 181.49 435.47 181.57 435.41 181.67C435.29 181.85 435.18 182.04 435.08 182.24C435 182.44 434.97 182.6 434.99 182.72C434.99 182.94 435.01 183.13 435.05 183.29C435.05 183.43 435.18 183.56 435.44 183.68C435.64 183.78 435.91 183.82 436.25 183.8H437.18C437.28 183.82 437.4 183.83 437.54 183.83C437.7 183.81 437.9 183.77 438.14 183.71C438.62 183.59 438.91 183.37 439.01 183.05C439.07 182.87 439.09 182.7 439.07 182.54C439.07 182.36 439.05 182.21 439.01 182.09C438.93 181.99 438.89 181.88 438.89 181.76C438.85 181.62 438.87 181.47 438.95 181.31C438.95 180.83 439 180.49 439.1 180.29C439.2 180.03 439.29 179.86 439.37 179.78C439.41 179.72 439.43 179.56 439.43 179.3C439.43 179.04 439.38 178.84 439.28 178.7C439.18 178.58 439.05 178.49 438.89 178.43C438.73 178.37 438.56 178.33 438.38 178.31C438.2 178.29 438.03 178.29 437.87 178.31C437.73 178.31 437.63 178.34 437.57 178.4L435.89 180.98ZM470.786 172.31C470.846 172.33 470.876 172.29 470.876 172.19C470.896 172.07 470.916 171.93 470.936 171.77C470.936 171.63 470.956 171.49 470.996 171.35C471.036 171.19 471.116 171.07 471.236 170.99C472.236 170.41 473.166 170.42 474.026 171.02L476.336 172.73C476.536 172.95 476.676 173.3 476.756 173.78C476.836 174.18 476.896 174.6 476.936 175.04L480.146 175.07C480.506 174.95 480.746 174.72 480.866 174.38L483.296 174.35L483.446 173.33L483.776 171.5L485.036 170.66L487.256 170.72L487.676 173.45L487.376 176.93C487.256 176.93 487.156 176.96 487.076 177.02C486.996 177.06 486.966 177.19 486.986 177.41V180.2L486.596 180.89L485.516 182.27L483.326 182.03L483.236 178.19C483.216 177.95 483.116 177.76 482.936 177.62C482.776 177.46 482.526 177.37 482.186 177.35L480.146 178.07L476.936 178.28C476.916 178.44 476.896 178.6 476.876 178.76C476.856 178.92 476.836 179.07 476.816 179.21C476.796 179.29 476.756 179.43 476.696 179.63C476.636 179.81 476.556 180 476.456 180.2C476.376 180.42 476.276 180.64 476.156 180.86C476.036 181.06 475.906 181.2 475.766 181.28L471.776 183.05C470.476 183.39 469.186 183.33 467.906 182.87C467.426 182.87 466.956 182.72 466.496 182.42C466.036 182.12 465.746 181.72 465.626 181.22C465.406 180.82 465.276 180.41 465.236 179.99C465.196 179.55 465.236 179.14 465.356 178.76L467.606 173.6C467.686 173.52 467.756 173.43 467.816 173.33C467.896 173.21 467.976 173.08 468.056 172.94C468.156 172.82 468.266 172.69 468.386 172.55C468.526 172.41 468.696 172.26 468.896 172.1L470.786 172.31ZM481.586 186.26L483.236 184.76L484.796 183.05L487.166 182.87L487.736 183.38C487.796 183.8 487.576 184.41 487.076 185.21C486.576 186.01 485.866 186.89 484.946 187.85C484.586 187.95 484.366 188.05 484.286 188.15C484.206 188.23 484.186 188.32 484.226 188.42C484.286 188.54 484.366 188.65 484.466 188.75C484.566 188.85 484.626 188.95 484.646 189.05L486.086 189.17L487.286 189.44L489.866 190.61L491.066 191.36V192.89C490.786 192.87 490.506 192.85 490.226 192.83C489.966 192.83 489.706 192.89 489.446 193.01L487.976 193.85L487.196 193.58L484.766 191.69L484.616 191.24L484.706 190.82C484.866 190.76 484.916 190.69 484.856 190.61C484.816 190.53 484.706 190.39 484.526 190.19C484.126 190.11 483.776 190.11 483.476 190.19C483.376 190.23 483.246 190.29 483.086 190.37L482.726 190.55L480.506 193.01L477.686 195.05L476.006 195.23L475.586 194.87L476.126 193.79L474.626 194L469.676 195.26H468.566L468.386 194.6L467.666 191.51L467.996 188.24L468.206 187.61L468.536 186.74L468.746 184.07L471.386 184.34L471.686 184.73L471.566 186.35L471.896 186.74L474.026 185.9L475.616 186.05C475.676 185.91 475.726 185.79 475.766 185.69C475.826 185.59 475.866 185.5 475.886 185.42C475.926 185.3 475.946 185.22 475.946 185.18V184.82L475.766 183.65L475.946 182.9L478.796 182.21L479.516 182.54C479.376 182.74 479.246 182.95 479.126 183.17C479.026 183.39 478.956 183.7 478.916 184.1L479.276 185.6L479.006 188.24L478.976 189.26C479.016 189.18 479.056 189.11 479.096 189.05C479.156 188.99 479.206 188.92 479.246 188.84C479.346 188.72 479.496 188.58 479.696 188.42C479.916 188.26 480.246 188.09 480.686 187.91L481.586 186.26ZM470.336 176.72C470.236 176.86 470.146 176.99 470.066 177.11C469.986 177.21 469.916 177.31 469.856 177.41C469.736 177.59 469.626 177.78 469.526 177.98C469.446 178.18 469.416 178.34 469.436 178.46C469.436 178.58 469.436 178.69 469.436 178.79C469.456 178.87 469.476 178.95 469.496 179.03C469.516 179.17 469.646 179.3 469.886 179.42C470.086 179.54 470.356 179.58 470.696 179.54C470.836 179.54 470.986 179.54 471.146 179.54C471.306 179.52 471.466 179.52 471.626 179.54C471.826 179.58 472.096 179.55 472.436 179.45C472.796 179.33 473.036 179.11 473.156 178.79C473.216 178.59 473.256 178.41 473.276 178.25C473.296 178.09 473.306 177.95 473.306 177.83V177.47C473.306 177.35 473.336 177.21 473.396 177.05L473.456 176.21C473.476 176.19 473.496 176.16 473.516 176.12C473.556 176.06 473.596 176 473.636 175.94C473.656 175.88 473.676 175.81 473.696 175.73C473.736 175.65 473.776 175.58 473.816 175.52C473.856 175.46 473.876 175.3 473.876 175.04C473.876 174.78 473.826 174.58 473.726 174.44C473.626 174.32 473.496 174.23 473.336 174.17C473.176 174.11 473.006 174.07 472.826 174.05C472.646 174.03 472.476 174.03 472.316 174.05C472.176 174.05 472.076 174.08 472.016 174.14L470.336 176.72ZM473.516 188.99L471.566 189.59L471.776 191.81L472.046 192.8C472.346 192.74 472.506 192.66 472.526 192.56C472.566 192.46 472.536 192.35 472.436 192.23L474.116 191.75L475.196 191.54L475.526 190.04C475.946 189.94 476.186 189.77 476.246 189.53C476.306 189.27 476.276 189.11 476.156 189.05L473.516 188.99ZM500.663 183.74L501.443 185.54V187.37L505.043 186.29L507.803 185.96L508.133 184.85L508.073 184.28L508.103 182.93L511.463 183.02L512.033 184.19L511.073 189.68L511.703 190.61L511.643 192.32L510.263 193.82L509.333 194.15L507.923 193.4L502.193 194.78L497.993 194.75L497.243 192.8L497.543 190.7L497.063 186.44L497.453 184.31L500.663 183.74ZM500.873 167.9L503.933 167.72C504.173 167.74 504.333 167.85 504.413 168.05C504.493 168.25 504.493 168.47 504.413 168.71L503.993 169.7C503.913 169.84 503.843 169.95 503.783 170.03C503.743 170.09 503.673 170.17 503.573 170.27C503.493 170.33 503.423 170.39 503.363 170.45C503.303 170.51 503.233 170.59 503.153 170.69C503.093 170.77 503.023 170.86 502.943 170.96C502.863 171.04 502.793 171.14 502.733 171.26L500.843 172.37L500.873 172.73C501.413 172.69 501.973 172.65 502.553 172.61C503.133 172.55 503.703 172.48 504.263 172.4C504.823 172.34 505.343 172.29 505.823 172.25C506.323 172.21 506.753 172.18 507.113 172.16L513.803 174.86L512.843 176.66C512.363 176.68 511.973 176.72 511.673 176.78C511.393 176.84 511.143 176.89 510.923 176.93C510.683 176.99 510.453 177.04 510.233 177.08C510.013 177.1 509.783 177.09 509.543 177.05L507.713 176.84L507.263 176.33L504.803 175.58C504.703 175.58 504.603 175.56 504.503 175.52C504.423 175.48 504.343 175.45 504.263 175.43C504.163 175.39 504.073 175.35 503.993 175.31C503.913 175.25 503.833 175.2 503.753 175.16C503.573 175.08 503.393 175 503.213 174.92C503.053 174.84 502.883 174.79 502.703 174.77C502.403 174.81 502.113 174.79 501.833 174.71C501.733 174.71 501.633 174.71 501.533 174.71C501.453 174.69 501.373 174.68 501.293 174.68C501.193 174.66 501.103 174.65 501.023 174.65C500.943 174.63 500.863 174.61 500.783 174.59C500.723 174.59 500.613 174.67 500.453 174.83C500.293 174.97 500.113 175.14 499.913 175.34C499.653 175.58 499.373 175.81 499.073 176.03C498.793 176.23 498.533 176.38 498.293 176.48L498.143 176.78L497.453 176.96L496.943 177.62L495.383 179.21L493.103 178.58L495.503 174.35L499.643 169.28L500.873 167.9ZM511.163 178.58L513.083 178.85L513.713 180.29V181.07C513.713 181.29 513.433 181.47 512.873 181.61C512.773 181.63 512.583 181.65 512.303 181.67C512.023 181.67 511.703 181.68 511.343 181.7C510.983 181.74 510.603 181.78 510.203 181.82C509.803 181.84 509.433 181.86 509.093 181.88L502.583 182.72L502.613 182.24L501.203 182.63L496.613 183.38L495.203 183.71L494.183 183.59L493.163 182.36L492.803 180.68L493.463 179.96L495.203 179.75L497.543 179.9L499.403 179.51L500.933 179.6L506.063 179.06L511.163 178.58ZM501.473 191.27L502.193 191.84L506.933 191L507.323 188.96L506.453 188.48L503.093 189.44L501.473 189.35V191.27ZM521.403 174.86L522.933 179.36L522.033 183.89C521.993 184.11 521.983 184.27 522.003 184.37C522.023 184.45 522.083 184.52 522.183 184.58C522.303 184.68 522.463 184.74 522.663 184.76C522.863 184.76 523.033 184.73 523.173 184.67L525.363 183.95L527.253 183.77L532.533 181.28C532.533 180.96 532.583 180.62 532.683 180.26V176.42L533.673 172.52L534.903 172.34L536.643 172.79C536.823 172.97 536.883 173.19 536.823 173.45C536.783 173.71 536.793 174.04 536.853 174.44L536.883 177.02L537.033 182.24L536.433 183.53L536.793 185.9L536.973 189.89L536.073 190.55L532.233 190.73L532.263 189.62L532.503 188.93L532.683 187.13L532.863 184.13L532.713 182.87L530.373 185.27L527.583 187.31L521.313 187.85L518.223 186.65C518.003 186.11 517.853 185.62 517.773 185.18C517.693 184.72 517.633 184.27 517.593 183.83C517.573 183.37 517.573 182.89 517.593 182.39C517.613 181.89 517.623 181.32 517.623 180.68L517.683 177.29L518.253 176.6L518.523 174.53L521.403 174.86ZM558.921 172.94L560.151 173.39C560.331 173.57 560.431 173.79 560.451 174.05C560.471 174.31 560.511 174.74 560.571 175.34L560.601 177.92L560.211 179.36L560.691 179.99C560.971 180.03 561.351 180.03 561.831 179.99C562.051 179.97 562.261 179.95 562.461 179.93C562.681 179.91 562.881 179.89 563.061 179.87C563.501 179.85 563.971 179.77 564.471 179.63C564.691 179.59 564.901 179.55 565.101 179.51C565.321 179.47 565.521 179.45 565.701 179.45L566.871 180.23L566.511 182.18L566.031 182.99C565.991 183.39 565.801 183.58 565.461 183.56L563.271 183.44C563.211 183.44 563.101 183.43 562.941 183.41C562.801 183.37 562.631 183.34 562.431 183.32C562.231 183.28 562.021 183.26 561.801 183.26C561.581 183.24 561.371 183.24 561.171 183.26L560.751 183.14C560.611 183.12 560.501 183.16 560.421 183.26C560.341 183.36 560.271 183.48 560.211 183.62C560.171 183.78 560.141 183.94 560.121 184.1C560.121 184.26 560.131 184.37 560.151 184.43L560.061 185.75L560.511 186.8L560.331 187.94L560.391 189.89L556.821 190.7L556.191 190.19L556.461 187.52L556.281 185.51L556.371 184.76L555.381 185.6L553.671 186.95L552.051 187.7L548.361 189.29L543.921 189.71L542.511 188.75C542.271 187.99 542.071 187.26 541.911 186.56C541.771 185.86 541.731 185.18 541.791 184.52L543.111 178.79L542.031 178.19C542.151 178.17 542.221 178.09 542.241 177.95C542.261 177.81 542.231 177.68 542.151 177.56C542.091 177.44 541.971 177.35 541.791 177.29C541.631 177.23 541.441 177.24 541.221 177.32C540.881 177.16 540.601 177.03 540.381 176.93C540.161 176.81 540.001 176.72 539.901 176.66C539.581 176.46 539.391 176.28 539.331 176.12C539.271 175.94 539.281 175.7 539.361 175.4L539.661 174.05L542.811 174.59L545.271 173.84L550.461 174.2L551.811 173.99L553.311 174.53L553.281 175.31L552.561 176.06L551.781 178.07L547.131 178.34L545.691 179.03L546.351 183.71L545.301 184.7L546.441 185.51C546.821 185.81 547.151 185.97 547.431 185.99C547.731 185.99 548.011 185.96 548.271 185.9L549.651 185.3L552.591 185.15L556.521 183.08L556.401 176.21L557.061 173.33L558.921 172.94ZM579.957 174.5L585.417 173.51L592.737 173.72L592.377 176.12L590.007 177.44L588.177 177.41L587.937 177.74L588.117 178.31C588.137 178.81 588.177 179.34 588.237 179.9C588.297 180.44 588.357 181 588.417 181.58C588.497 182.14 588.557 182.7 588.597 183.26C588.657 183.82 588.687 184.35 588.687 184.85L588.087 185.66H584.457L583.827 185.3L584.037 181.79L584.487 179.6L585.597 177.74L585.327 177.62L581.547 178.28L580.587 178.67L577.467 178.7L574.047 179.33L572.457 179.12L571.887 176.9L572.607 176.12L572.817 174.71L579.957 174.5ZM577.137 179.99L579.297 179.66L580.437 180.5L579.927 182.18L580.347 183.71L579.567 186.02L575.667 186.2L575.427 185.72L575.967 184.88L577.137 179.99ZM609.957 174.5L615.417 173.51L622.737 173.72L622.377 176.12L620.007 177.44L618.177 177.41L617.937 177.74L618.117 178.31C618.137 178.81 618.177 179.34 618.237 179.9C618.297 180.44 618.357 181 618.417 181.58C618.497 182.14 618.557 182.7 618.597 183.26C618.657 183.82 618.687 184.35 618.687 184.85L618.087 185.66H614.457L613.827 185.3L614.037 181.79L614.487 179.6L615.597 177.74L615.327 177.62L611.547 178.28L610.587 178.67L607.467 178.7L604.047 179.33L602.457 179.12L601.887 176.9L602.607 176.12L602.817 174.71L609.957 174.5ZM607.137 179.99L609.297 179.66L610.437 180.5L609.927 182.18L610.347 183.71L609.567 186.02L605.667 186.2L605.427 185.72L605.967 184.88L607.137 179.99Z" fill="black"/>
</svg>
