<svg width="27" height="26" viewBox="0 0 27 26" fill="none" xmlns="http://www.w3.org/2000/svg">
<path d="M6.34766 0.75H20.0977V17L11.3477 25.75L9.78516 24.1875C9.63932 24.0417 9.51953 23.8438 9.42578 23.5938C9.33203 23.3438 9.28516 23.1042 9.28516 22.875V22.4375L10.6602 17H2.59766C1.93099 17 1.34766 16.75 0.847656 16.25C0.347656 15.75 0.0976562 15.1667 0.0976562 14.5V12C0.0976562 11.8542 0.11849 11.6979 0.160156 11.5312C0.201823 11.3646 0.24349 11.2083 0.285156 11.0625L4.03516 2.25C4.22266 1.83333 4.53516 1.47917 4.97266 1.1875C5.41016 0.895833 5.86849 0.75 6.34766 0.75ZM17.5977 3.25H6.34766L2.59766 12V14.5H13.8477L12.1602 21.375L17.5977 15.9375V3.25ZM20.0977 17V14.5H23.8477V3.25H20.0977V0.75H26.3477V17H20.0977Z" fill="#617092"/>
</svg>
